<svg width="677" height="959" viewBox="0 0 677 959" fill="none" xmlns="http://www.w3.org/2000/svg">
<path d="M504.725 608.294C513.601 616.21 514.009 629.728 513.538 641.646C511.4 693.255 505.701 744.657 504.214 796.299C503.302 822.181 503.968 848.095 506.207 873.896C506.842 880.593 511.181 942.052 525.688 929.899C528.805 927.279 529.387 922.758 529.545 918.681C529.704 909.229 529.298 899.776 528.33 890.373C526.684 870.572 525.036 850.732 523.385 830.853C521.924 813.212 522.466 796.354 521.909 779.001C521.442 764.565 521.351 750.123 521.637 735.678C522.053 713.646 522.469 691.615 523.836 669.621C524.768 654.451 521.697 621.868 537.175 612.843C539.747 611.365 541.713 613.488 543.428 615.915C544.979 618.457 546.054 621.261 546.601 624.189C545.518 619.019 543.493 614.092 540.629 609.654C545.742 614.585 550.101 620.243 553.564 626.445L545.196 609.025C551.448 613.997 556.34 620.471 559.415 627.844L551.614 609.059C556.961 616.863 561.46 625.215 565.037 633.973C563.885 625.962 562.032 618.068 559.5 610.381C563.162 618.221 565.855 626.478 567.522 634.969L565.313 611.613C567.911 619.221 569.416 627.158 569.784 635.188C569.604 627.624 569.421 620.069 569.234 612.523L575.924 635.696C576.059 628.803 576.195 621.918 576.332 615.042C578.35 621.632 579.971 628.338 581.184 635.123C580.276 628.796 579.377 622.463 578.486 616.126C582.308 622.909 586.135 629.691 589.967 636.473L584.928 617.25C589.017 624.118 593.114 630.99 597.22 637.865C595.031 631.289 592.842 624.718 590.654 618.151C596.553 623.734 601.659 630.101 605.828 637.072L598.154 619.175L613.795 638.635C610.358 632.672 607.511 626.389 605.295 619.873C611.102 626.028 616.209 632.808 620.52 640.089C617.347 633.313 614.178 626.524 611.012 619.722C616.082 626.781 621.604 633.503 627.543 639.848C624.619 633.288 621.699 626.72 618.783 620.143L632.41 642.964C630.138 636.195 627.866 629.426 625.594 622.657C631.236 629.431 635.391 637.315 637.79 645.798C636.337 637.361 634.885 628.929 633.432 620.501C638.198 627.439 641.105 635.483 641.876 643.864L638.267 622.23L645.36 639.609C648.291 625.728 638.617 611.568 626.074 605.089C613.531 598.61 598.625 598.295 584.502 599.356C576.179 599.973 567.893 601.017 559.678 602.485C551.588 603.714 543.692 605.984 536.183 609.236C537.343 606.739 539.183 604.62 541.492 603.121C543.801 601.622 546.486 600.804 549.239 600.762C551.991 600.72 554.7 601.454 557.054 602.882C559.408 604.309 561.312 606.371 562.548 608.831C560.754 604.696 558.955 600.565 557.153 596.439C561.182 600.663 564.857 605.212 568.139 610.04C566.822 604.863 564.794 599.895 562.112 595.276C566.751 600.148 570.959 605.414 574.688 611.013C571.96 605.943 569.569 600.699 567.531 595.314C572.693 599.549 577.381 604.331 581.511 609.578L573.64 595.006C580.224 599.651 586.382 604.874 592.039 610.612C588.252 605.421 585.097 599.798 582.639 593.861C589.51 599.586 595.824 605.948 601.495 612.864L591.369 596.306C599.193 601.229 606.493 606.941 613.154 613.352C607.971 606.658 603.416 599.501 599.549 591.971L622.964 613.968C618.927 608.084 614.885 602.2 610.839 596.316C609.046 593.687 607.172 590.843 607.159 587.662C615.94 593.425 623.324 601.077 628.771 610.058C625.711 603.421 622.652 596.785 619.593 590.148C624.399 594.207 628.096 599.42 630.336 605.299C627.63 599.919 625.693 594.187 624.58 588.269C629.837 593.797 634.327 600.007 637.93 606.732C634.589 600.244 631.704 593.531 629.298 586.642C635.989 592.296 641.95 598.762 647.041 605.891C642.798 598.484 639.008 590.828 635.693 582.963C642.008 590.007 647.854 597.458 653.194 605.268C648.826 596.376 644.074 587.684 638.937 579.191C643.435 585.148 648.458 590.689 653.947 595.747C650.744 589.349 646.246 583.687 640.739 579.12C635.232 574.553 628.835 571.18 621.956 569.215L632.682 570.677C623.588 567.066 613.573 566.482 604.122 569.014L610.836 565.079C601.494 566.672 592.565 570.119 584.577 575.218L587.198 570.333C571.243 578.484 556.159 588.237 542.178 599.441C542.613 596.416 543.838 593.56 545.73 591.159C547.621 588.759 550.112 586.9 552.951 585.77C555.791 584.64 558.878 584.278 561.902 584.722C564.925 585.166 567.778 586.4 570.173 588.299C567.953 585.742 566.14 582.858 564.799 579.749C569.701 582.006 574.502 584.439 579.204 587.047C576.358 583.478 573.407 580.012 570.35 576.649C576.783 579.375 582.877 582.839 588.511 586.971C584.911 582.999 581.928 578.509 579.662 573.65C585.949 576.908 591.856 580.854 597.274 585.414C594.588 580.405 591.906 575.396 589.228 570.387L608.027 579.224C604.145 574.933 600.824 570.167 598.143 565.039C604.727 566.201 611.154 568.121 617.296 570.76L606.825 560.448C613.087 562.059 619.186 564.243 625.047 566.974C620.85 563.931 617.101 560.313 613.909 556.228C620.522 558.118 626.972 560.54 633.194 563.472L623.655 554.433C629.737 555.649 635.656 557.574 641.29 560.168C637.186 557.311 633.09 554.444 629.002 551.567C635.505 552.886 641.873 554.799 648.025 557.284C643.514 554.481 638.84 551.948 634.029 549.698L649.448 551.964C640.548 548.47 631.061 546.718 621.501 546.803L635.7 542.737C622.949 543.394 610.69 547.867 600.511 555.575L607.112 548.7C600.973 551.418 595.113 554.727 589.615 558.58L594.543 551.743C572.823 561.425 552.586 574.136 534.434 589.498C533.844 586.799 534.976 584.031 536.356 581.649C538.645 577.307 542.247 573.798 546.647 571.621C551.108 569.648 556.722 569.881 560.447 573.012C557.942 570.218 555.79 567.126 554.039 563.807C559.633 566.222 564.873 569.383 569.617 573.206L559.821 558.794C564.566 561.904 568.868 565.642 572.609 569.906L563.834 555.229C569.748 559.385 575.234 564.12 580.208 569.365L570.054 551.29C576.602 555.744 582.745 560.767 588.412 566.301C584.861 559.326 581.315 552.347 577.773 545.363C583.474 550.111 588.82 555.27 593.77 560.798C591.543 553.679 588.478 546.851 584.64 540.456C590.277 543.949 595.483 548.095 600.15 552.808C596.838 546.251 592.432 540.307 587.121 535.231C591.52 537.189 596.103 538.707 600.801 539.761L588.552 531.715L603.14 534.727C596.909 529.732 588.004 529.065 580.358 531.363C572.712 533.661 566.119 538.601 560.178 543.937C548.396 554.548 538.547 567.125 531.071 581.108C536.426 563.227 550.44 549.407 564.773 537.357C571.214 531.921 578.468 526.416 586.889 526.103C596.956 525.741 605.539 532.807 613.145 539.461L602.12 522.68C608.728 527.223 614.947 532.308 620.712 537.882L612.183 520.954C616.425 526.522 620.358 532.319 623.963 538.319C622.354 532.976 620.757 527.631 619.173 522.286C624.308 527.905 628.894 534.001 632.869 540.492C630.01 534.491 627.142 528.491 624.265 522.491C629.419 526.101 634.192 530.226 638.513 534.8C634.108 528.993 629.511 523.334 624.72 517.822L639.816 523.851L622.399 512.84C627.085 513.051 631.778 512.638 636.354 511.61C629.945 510.535 623.461 509.974 616.963 509.932L631.69 503.751C624.562 503.906 617.471 504.835 610.543 506.521C615.152 502.999 619.384 499.009 623.171 494.616C616.115 496.577 609.443 499.72 603.438 503.911C607.477 500.131 611.103 495.935 614.257 491.391C607.828 495.236 602.153 500.221 597.512 506.102C599.582 502.034 601.226 497.763 602.419 493.357C597.632 498.195 593.664 503.779 590.671 509.89C591.496 505.685 592.312 501.485 593.12 497.29L583.924 514.477C584.431 510.935 584.947 507.392 585.471 503.849C582.614 509.227 580.236 514.847 578.365 520.643C578.434 516.574 577.994 512.512 577.057 508.551L570.531 524.344C571.057 521.444 570.849 518.458 569.927 515.658C568.337 520.445 566.739 525.232 565.133 530.019C564.26 526.989 563.413 523.969 562.527 520.94C561.327 525.352 560.136 529.765 558.954 534.177C557.938 532.407 557.241 530.473 556.894 528.462C555.241 530.473 554.848 533.228 553.604 535.51C549.668 542.784 542.042 547.055 538.069 554.917C538.326 552.428 538.926 549.987 539.85 547.662C540.318 546.501 541.017 545.447 541.905 544.563C542.792 543.68 543.849 542.986 545.013 542.524C543.73 541.16 542.339 539.901 540.855 538.76L545.709 540.397C544.305 538.884 542.797 537.365 541.328 535.857C543.498 536.318 545.603 537.044 547.596 538.019L543.072 532.735C542.662 532.257 542.24 531.598 542.566 531.056C542.892 530.514 543.758 530.635 544.396 530.851C545.82 531.349 552.134 532.3 552.799 533.462C550.955 530.205 548.247 527.521 544.973 525.706C549.644 527.827 554.519 529.464 559.523 530.591C556.292 527.801 552.85 525.265 549.228 523.007L564.628 524.625C560.499 522.93 556.706 520.511 553.428 517.481C558.419 518.279 563.473 518.61 568.525 518.47L554.225 510.814C558.949 513.134 564.084 514.498 569.337 514.829C565.892 510.902 562.142 507.254 558.122 503.919C564.12 504.671 570.013 506.095 575.692 508.165C571.852 505.283 567.829 502.652 563.649 500.288C569.486 501.224 575.396 501.622 581.306 501.476L567.033 495.532L587.907 496.847L570.356 492.509C577.26 492.236 584.166 491.626 591.01 490.67C585.673 489.441 580.24 488.676 574.771 488.383L593.553 487.077C588.598 485.251 583.461 483.962 578.231 483.233L596.319 477.922L583.649 476.712C586.268 476.285 588.831 475.571 591.294 474.583C593.517 473.493 594.888 471.736 597.471 471.14L581.709 473.847L596.027 463.642C587.13 465.514 579.28 470.704 574.073 478.158C577.432 473.256 581.352 468.764 585.754 464.773C577.38 469.769 570.532 476.96 565.951 485.568L575.621 466.984C568.4 474.509 562.46 483.167 558.037 492.612C559.733 486.494 561.416 480.367 563.084 474.233L550.6 505.572C551.417 500.138 552.239 494.708 553.065 489.282C549.755 498.596 546.451 507.917 543.151 517.247L543.861 504.482C542.043 512.203 540.234 519.931 538.434 527.668C538.146 526.142 535.812 527.317 535.037 528.696C527.312 542.803 522.608 558.364 521.226 574.389C521.477 552.041 528.919 530.369 542.45 512.581L535.155 516.375L546.805 503.485L538.735 507.54C544.457 503.783 549.991 499.748 555.337 495.437L542.239 499.841L561.539 489.732L548.353 493.065L566.225 482.6C561.879 483.206 557.601 484.226 553.448 485.645C560.803 480.466 567.911 474.971 574.772 469.16C568.73 471.554 562.85 474.336 557.167 477.489C563.81 472.257 569.927 466.389 575.432 459.97C569.279 464.164 563.48 468.855 558.093 473.996C563.155 467.562 566.988 460.251 569.4 452.428C563.174 459.487 558.209 467.565 554.721 476.308C557.197 469.33 559.669 462.344 562.135 455.349C556.919 465.181 552.523 475.426 548.991 485.981L553.564 464.336C550.204 472.804 547.222 481.411 544.618 490.155C545.455 482.628 545.362 475.027 544.343 467.523C542.749 478.093 541.163 488.655 539.585 499.208L535.705 480.774L535.668 505.455C534.254 498.586 532.09 491.894 529.215 485.499C530.436 495.025 531.141 504.61 531.328 514.212C529.516 508.571 527.703 502.926 525.89 497.277C527.476 506.14 528.241 515.13 528.174 524.134C527.076 520.022 525.492 516.055 523.456 512.318C524.535 519.248 525.19 526.238 525.418 533.249C524.715 529.187 522.94 525.387 520.275 522.241C520.775 527.809 521.274 533.372 521.773 538.931L519.163 533.151L518.519 572.071C512.82 557.565 512.334 541.531 517.144 526.706C515.784 528.814 514.41 530.91 513.049 533.005C516.127 527.466 519.252 521.919 522.425 516.364L514.695 522.876C518.501 517.339 522.806 512.161 527.556 507.409L517.085 513.917C522.053 509.519 526.833 504.918 531.426 500.113C527.496 501.987 523.863 504.428 520.643 507.357C525.503 503.003 530.012 498.273 534.128 493.21L522.961 499.792C528.4 495.287 533.405 490.282 537.91 484.842C533.826 486.204 529.905 488.015 526.219 490.24L542.427 475.462L530.035 480.857C536.393 477.15 542.297 472.711 547.624 467.632C542.744 469.36 538.055 471.584 533.629 474.268C540.689 469.083 547.378 463.41 553.645 457.29C547.187 460.054 541.028 463.468 535.261 467.479C541.08 462.661 546.585 457.475 551.742 451.954C546.926 453.607 542.531 456.293 538.864 459.824C535.196 463.355 532.345 467.645 530.511 472.394L540.296 450.607C533.359 458.933 528.278 468.643 525.392 479.088C525.958 473.04 526.521 466.996 527.079 460.956C524.308 469.958 522.596 479.253 521.978 488.652L519.282 472.85C519.128 480.966 518.987 489.085 518.859 497.207C518.151 493.386 517.453 489.564 516.762 485.741C516.723 493.771 516.689 501.804 516.659 509.842C516.065 507.398 515.462 504.951 514.85 502.5C514.627 510.256 514.777 518.013 515.299 525.77C512.101 514.665 512.183 502.873 515.535 491.814C513.646 494.436 512.224 497.365 511.332 500.471C514.708 492.897 516.755 484.797 517.382 476.528C514.852 480.513 513.056 484.918 512.078 489.535C514.812 480.646 516.321 471.426 516.562 462.129C514.52 467.882 512.484 473.652 510.453 479.439C512.145 470.547 512.727 461.48 512.187 452.445C510.946 458.92 510.234 465.485 510.058 472.076C509.453 464.225 507.54 456.531 504.397 449.311L506.492 464.31C504.493 457.077 500.266 450.659 494.41 445.966L500.768 462.682C497.136 457.44 492.341 453.11 486.756 450.032C491.429 454.457 495.305 459.653 498.215 465.392C492.937 462.797 487.448 460.654 481.807 458.987L498.302 466.451C493.353 465.519 488.251 465.802 483.436 467.277C488.89 467.058 494.323 468.084 499.322 470.277C493.983 469.113 488.43 469.387 483.232 471.071C490.541 471.723 497.707 473.489 504.482 476.308C498.113 475.464 491.677 475.251 485.266 475.671C493.311 476.229 501.099 478.737 507.959 482.976C501.644 480.681 494.91 479.763 488.211 480.284C496.166 482.89 503.609 486.855 510.21 492.003L492.059 486.121C499.391 489.76 505.7 495.169 510.415 501.86L494.864 493.59C501.25 498.014 506.473 503.916 510.088 510.793L497.3 500.785C503.468 506.884 508.822 513.754 513.23 521.225L501.815 511.732C506.977 516.275 510.937 522.022 513.343 528.464C510.012 526.075 507.097 523.153 504.715 519.817C508.99 532.772 511.352 546.281 511.725 559.918C506.436 545.741 502.796 531.002 500.877 515.992C499.297 520.029 498.301 524.27 497.922 528.589C497.785 519.687 497.072 510.803 495.786 501.994L495.385 514.893L490.884 486.034C490.837 491.337 490.795 496.643 490.757 501.954C488.919 490.091 484.658 478.732 478.241 468.587C479.617 473.687 480.992 478.76 482.364 483.808C479.076 474.195 474.169 465.215 467.854 457.256C470.055 462.757 472.252 468.259 474.444 473.761C470.535 464.637 464.591 456.53 457.066 450.057L466.47 464.989C460.765 457.359 453.324 451.197 444.763 447.016L455.641 457.949C448.983 452.91 441.218 449.531 432.992 448.095C438.047 449.919 442.918 452.22 447.537 454.967C440.558 452.8 433.176 452.265 425.958 453.403C434.302 453.928 442.548 455.493 450.505 458.06C445.056 457.633 439.575 457.988 434.226 459.114C443.865 459.901 453.271 462.489 461.955 466.745L445.03 464.116C455.288 467.452 465.146 471.911 474.425 477.412L457.346 472.936C466.104 476.069 474.174 480.867 481.11 487.065C476.216 485.763 471.521 483.799 467.157 481.229C475.398 487.071 482.752 494.07 488.995 502.012L478.251 493.199C485.426 500.53 491.237 509.08 495.411 518.45L485.851 508.725C492.048 517.658 496.441 527.717 498.781 538.335C493.995 526.667 489.165 514.923 482.136 504.424C475.106 493.925 465.711 484.707 454.018 480L466.146 490.028L443.965 480.738C450.959 483.056 457.455 486.671 463.111 491.395C459.21 490.62 455.391 489.482 451.704 487.993C457.611 491.327 463.027 495.466 467.795 500.291L455.266 495.889C461.963 499.962 468.218 504.72 473.931 510.086L460.989 502.907C469.154 507.648 476.432 513.774 482.497 521.011C479.365 519.413 476.519 517.307 474.075 514.778C480.932 522.097 486.037 530.877 489.006 540.457C480.335 527.838 471.194 515.55 461.582 503.593L468.117 519.128C463.212 511.538 457.092 504.807 450.003 499.203L458.375 512.012C451.749 506.376 444.434 501.603 436.606 497.81L445.84 505.831C439.454 502.854 432.763 500.58 425.885 499.049C429.293 500.589 432.583 502.379 435.726 504.404C429.132 502.717 422.376 501.741 415.574 501.494C420.017 502.079 424.338 503.37 428.373 505.318C422.725 505.785 417.285 507.668 412.558 510.795L429.927 508.795C424.079 511.345 419.065 515.488 415.458 520.751L432.685 511.474C427.363 514.237 422.975 518.509 420.07 523.755C426.119 519.649 432.577 516.179 439.339 513.401C433.491 517.733 428.481 523.094 424.555 529.223L448.17 515.06C441.942 518.682 436.61 523.661 432.571 529.627L453.136 518.858C446.299 522.25 440.587 527.545 436.688 534.107L458.418 521.79C454.818 523.836 451.694 526.626 449.255 529.974C446.817 533.321 445.118 537.149 444.273 541.204C448.408 535.156 453.735 530.017 459.926 526.101C453.921 530.312 449.12 536.019 445.998 542.656C453.312 540.102 460.315 536.731 466.873 532.605C461.387 535.687 457.219 540.671 455.157 546.616L473.242 538.098C468.391 539.89 463.91 542.557 460.022 545.966C466.971 544.896 474.015 544.567 481.034 544.986L468.981 549.474C476.688 549.653 484.319 551.042 491.594 553.59L478.955 555.054C489.255 558.247 498.085 564.999 503.867 574.103C499.587 569.787 494.342 566.552 488.564 564.665C482.786 562.779 476.642 562.296 470.641 563.256C471.421 559.083 471.242 554.787 470.118 550.694C469.839 555.792 470.047 560.905 470.738 565.964C467.478 559.017 463.45 552.457 458.728 546.407C459.642 550.773 460.57 555.15 461.484 559.516L444.218 541.156L448.985 553.67C442.477 547.879 435.965 542.08 429.448 536.273C431.35 540.081 433.246 543.88 435.138 547.671L417.18 536.178L422.69 545.368C416.12 542.213 409.188 539.877 402.048 538.413L409.426 544.394C403.201 542.144 396.439 541.844 390.039 543.534C394.886 544.06 399.649 545.182 404.221 546.873C398.532 547.055 393.035 548.979 388.473 552.384L409.518 548.323C405.268 551.609 401.285 555.226 397.606 559.139C403.101 557.356 408.197 554.522 412.612 550.796L403.471 560.173C408.67 557.795 413.629 554.923 418.279 551.597C416.235 555.802 413.413 559.581 409.961 562.735L422.399 554.817C420.01 557.379 418.1 560.35 416.762 563.587L430.423 556.078C428.564 558.806 426.319 561.251 423.758 563.334C427.972 560.532 432.552 558.321 437.367 556.764L431.181 568.104L444.728 559.135L439.024 572.183C442.469 569.946 445.514 567.149 448.034 563.906L443.651 575.589L452.879 566.154C451.125 570.074 449.923 574.218 449.307 578.469L458.475 570.038C457.042 573.148 456.196 576.496 455.979 579.914L465.859 572.564C463.978 575.303 462.669 578.394 462.01 581.651L474.251 572.59C472.508 575.567 471.218 578.787 470.422 582.144C474.289 580.69 477.995 578.839 481.481 576.621C480.138 578.613 479.22 580.861 478.784 583.225L489.555 578.241C489.952 579.647 490.666 580.944 491.643 582.031C492.619 583.118 493.831 583.967 495.187 584.513C482.46 589.216 469.164 580.491 456.009 577.158C447.044 574.885 437.686 575.159 428.398 575.52C419.655 575.868 410.8 576.289 402.434 578.884C394.068 581.479 386.08 586.515 381.802 594.112C384.696 590.382 388.19 587.159 392.14 584.574C390.363 587.496 389.063 590.681 388.29 594.012L396.61 582.913C394.595 587.16 392.938 591.567 391.655 596.09L400.168 583.094C398.3 587.288 396.725 591.608 395.456 596.02L404.988 583.668L401.387 594.088L409.835 584.824C408.196 588.228 407.375 591.968 407.438 595.746L417.409 585.22C415.173 588.374 413.783 592.048 413.371 595.891L423.586 584.024C421.352 587.808 419.841 591.974 419.128 596.309L430.402 583.979C427.828 587.705 425.989 591.888 424.986 596.305L435.92 585.439C433.965 588.376 432.622 591.676 431.971 595.144L442.715 585.85L440.282 593.812C444.269 592.091 447.861 589.569 450.833 586.402C449.954 589.269 449.089 592.148 448.223 595.013L459.969 586.858L458.363 592.892C463.113 592.48 467.7 590.96 471.757 588.454C472.018 590.594 471.815 592.766 471.161 594.821C474.203 592.622 477.345 590.364 480.979 589.397C484.614 588.43 488.911 588.963 491.455 591.734C486.655 593.003 481.645 593.267 476.738 592.511C471.831 591.755 467.133 589.995 462.938 587.34L463.725 591.182C457.492 588.127 450.649 586.525 443.708 586.495C445.222 587.764 446.408 589.379 447.166 591.203L431.239 588.726L434.643 594.906C429.885 593.436 424.869 592.996 419.928 593.617C421.046 595.439 422.603 596.951 424.455 598.017C419.485 598.456 414.585 599.495 409.864 601.11L414.546 602.512C408.746 605.345 403.256 608.774 398.165 612.743C400.51 612.705 402.76 611.804 404.483 610.212C400.633 614.684 397.421 619.667 394.94 625.021C398.101 620.67 401.262 616.312 404.422 611.944L398.884 625.707L410.493 610.158C409.822 614.394 408.608 618.525 406.88 622.45L417.045 609.871C415.175 614.487 413.331 619.1 411.513 623.712C415.876 618.084 420.246 612.446 424.625 606.799C422.117 612.389 420.014 618.152 418.329 624.043L432.282 608.591C430.625 613.148 428.959 617.698 427.283 622.239L442.408 607.77L435.909 621.327L448.921 607.655C446.055 612.222 443.625 617.048 441.662 622.07L456.835 607.909C454.524 612.781 452.218 617.652 449.916 622.522L466.62 606.476L457.359 621.979C462.284 616.99 467.754 612.571 473.666 608.804L464.44 623.499L478.162 607.712C475.482 613.46 472.484 619.054 469.183 624.468L483.624 607.995C481.773 613.242 479.324 618.259 476.325 622.946C480.815 617.258 486.123 612.267 492.076 608.134L485.552 620.966C489.893 617.191 494.454 613.677 499.211 610.444L492.085 620.031C494.855 615.887 498.199 612.156 502.017 608.95C502.705 608.382 503.717 607.818 504.382 608.408C505.046 608.999 503.402 610.009 503.523 609.131C503.754 607.595 503.571 607.205 504.725 608.294Z" fill="#0C4C60"/>
<path d="M482.768 493.527C484.9 516.806 474.842 535.005 466.061 555.795C448.085 598.593 431.313 641.449 416.876 685.574C402.614 729.218 388.962 773.252 369.399 814.929C366.335 821.462 363.043 828.035 358.075 833.297C353.107 838.56 346.234 842.424 339.027 842.136C337.414 842.132 335.831 841.702 334.438 840.888C333.074 839.891 332.006 838.543 331.345 836.988C324.668 823.237 333.392 807.373 341.407 794.361C358.233 767.057 373.088 738.585 385.857 709.163C391.645 696.056 396.773 682.668 401.221 669.048C405.349 656.166 408.639 643.008 413.185 630.264C429.778 583.761 462.844 543.107 470.805 494.385C471.361 491.015 467.109 488.6 463.814 487.74C460.518 486.879 457.013 487.577 453.685 488.325C448.625 489.472 442.895 491.154 440.457 495.785C438.697 499.136 439.131 503.173 439.602 506.932C440.534 514.155 441.458 521.386 442.373 528.626C439.474 521.42 436.575 514.217 433.676 507.019C435.997 515.191 438.33 523.37 440.676 531.558L427.881 508.22L437.301 539.511C432.238 531.038 427.882 522.161 424.278 512.971C427.156 522.301 430.515 531.477 434.341 540.46C429.584 532.18 425.374 523.597 421.74 514.766C425.994 524.346 429.229 534.345 431.395 544.6C426.663 536.525 422.565 528.095 419.137 519.386C423.028 529.357 426.304 539.557 428.947 549.929L416.851 527.069C419.917 535.896 422.987 544.722 426.061 553.549C421.316 544.881 416.566 536.209 411.813 527.532C416.965 537.854 420.653 548.845 422.77 560.185C417.921 550.918 413.076 541.685 408.236 532.485C412.578 542.305 415.842 552.567 417.97 563.092C413.015 554.508 408.557 545.647 404.618 536.552C408.092 546.773 410.967 557.189 413.227 567.745C409.296 560.112 405.361 552.488 401.422 544.872L408.756 573.816L398.818 549.238C400.829 560.699 401.934 572.301 402.123 583.935C399.12 575.25 396.694 566.376 394.862 557.371C396.18 569.472 396.829 581.636 396.805 593.808C393.778 584.878 391.58 575.688 390.238 566.355C390.775 578.295 390.552 590.258 389.57 602.17L386.062 579.808C385.971 589.661 384.954 599.484 383.026 609.148C381.957 602.345 381.62 595.448 382.019 588.574C381 596.493 379.55 604.375 377.808 612.157C377.085 605.315 377.485 598.401 378.993 591.689C377.587 598.298 375.433 604.726 372.573 610.848C376.314 582.358 385.389 554.828 399.323 529.697C408.903 512.475 421.5 495.76 439.193 487.028C449.898 481.742 463.897 480.065 472.969 487.817C468.245 480.032 461.841 473.4 454.225 468.407C446.609 463.414 437.974 460.185 428.951 458.956C427.748 458.676 426.486 458.811 425.369 459.338C424.305 460.18 423.575 461.372 423.305 462.702L416.55 483.408C415.62 475.26 416.394 467.007 418.821 459.174C416.897 468.802 414.216 478.263 410.804 487.47C409.908 479.079 409.789 470.622 410.45 462.208C409.219 471.111 407.989 480.019 406.758 488.93C406.719 479.179 406.976 469.432 407.528 459.688C406.147 471.191 404.757 482.686 403.36 494.173C402.931 482.634 403.333 471.079 404.564 459.598C401.771 470.739 400.299 482.169 400.179 493.654C398.463 483.968 397.778 474.127 398.137 464.296C396.281 476.37 395.63 488.597 396.194 500.8C393.401 489.239 392.3 477.334 392.925 465.457C390.442 477.337 390.182 489.575 392.157 501.55C388.007 490.861 386.417 479.349 387.515 467.935C386.271 480.037 386.396 492.241 387.888 504.315C384.681 493.407 382.804 482.151 382.296 470.793C382.372 484.642 383.273 498.474 384.994 512.216C381.653 502.498 379.437 492.428 378.391 482.205L383.362 518.997C379.997 509.028 377.254 498.859 375.149 488.55L380.053 527.571C375.396 516.295 372.504 504.368 371.479 492.211L374.162 530.076C370.755 520.497 368.703 510.489 368.067 500.342C367.667 512.374 366.812 524.386 365.501 536.379C363.729 528.106 363.031 519.639 363.425 511.188C362.329 519.426 360.592 527.566 358.229 535.534C357.988 528.883 358.896 522.239 360.911 515.896C358.992 520.223 356.392 524.213 353.208 527.716C355.334 521.178 357.919 514.799 360.945 508.627L349.91 516.775C354.273 512.022 358.639 507.264 363.01 502.502C357.574 504.634 352.316 507.195 347.288 510.163L366.585 494.016L348.872 497.962C355.772 493.08 363.056 488.765 370.652 485.06L351.075 488.127C358.353 483.311 366.294 479.581 374.647 477.053L358.184 476.727C364.271 473.688 370.883 471.839 377.663 471.28L362.043 469.607C369.048 467.342 376.248 465.732 383.551 464.798C378.569 464.267 373.726 462.827 369.263 460.549C375.382 459.092 381.674 458.488 387.959 458.753C384.514 457.499 381.243 455.81 378.226 453.726C384.332 453.348 390.461 453.865 396.417 455.262L385.415 449.506C391.065 449.941 396.644 451.033 402.042 452.757L396.559 446.448C401.576 448.118 406.439 450.217 411.096 452.721L405.848 444.891C411.189 445.761 416.124 448.283 419.958 452.103C418.086 449.546 416.658 446.692 415.733 443.661C419.291 445.22 422.48 447.511 425.092 450.386L422.263 442.774C425.519 449.536 433.407 452.379 440.27 455.365C453.568 461.367 465.539 469.954 475.486 480.627C474.638 477.591 474.266 473.211 473.418 470.175C472.134 465.609 470.849 460.929 468.047 457.065C465.246 453.201 460.751 450.256 456.017 450.706C449.941 451.287 445.785 456.913 442.437 462.017C444.027 454.981 447.503 448.51 452.492 443.299L432.521 455.485C435.074 448.87 439.201 442.976 444.545 438.316C436.285 440.538 428.747 444.876 422.676 450.902C426.321 444.135 430.76 437.826 435.897 432.108C427.785 437.645 420.779 444.647 415.237 452.755L426.144 434.705L405.722 457.846L419.877 431.741C411.481 439.718 402.668 447.243 393.475 454.286C399.519 448.218 405.086 441.693 410.125 434.769C402.287 440.279 393.438 444.187 384.085 446.269C390.742 439.365 398.285 433.374 406.516 428.451C397.156 429.505 387.861 431.081 378.676 433.172C385.9 426.792 394.93 422.817 404.514 421.799L382.552 417.606C393.012 415.492 403.869 416.642 413.654 420.901C407.612 417.83 402.037 413.917 397.094 409.279C408.199 410.706 418.661 415.293 427.235 422.493C422.874 417.47 419.195 411.894 416.291 405.91C423.36 410.16 429.799 415.377 435.424 421.409L429.023 404.226C435.731 411.302 441.531 419.186 446.288 427.697C445.017 420.25 442.924 412.966 440.047 405.98C443.668 414.222 447.289 422.472 450.91 430.731L447.681 411.749L455.658 430.459L454.825 421.724L462.424 441.069C462.412 438.08 462.261 435.105 462.173 432.117C462.342 439.461 468.329 445.097 472.708 450.994C477.397 457.331 480.496 464.701 481.747 472.485C479.809 450.888 470.452 430.629 455.267 415.15L461.433 418.064C455.373 412.393 448.43 407.746 440.877 404.305L453.111 404.75L431.832 397.3L446.295 397.635L423.366 389.014C429.647 387.615 436.156 387.589 442.449 388.938C432.566 387.756 422.952 384.917 414.012 380.542C420.908 379.175 428.012 379.242 434.881 380.737C426.415 379.797 418.166 377.446 410.477 373.781L427.822 372.99C418.622 371.188 409.626 368.467 400.969 364.866C407.311 363.244 413.948 363.157 420.33 364.612C412.122 364.261 404.076 362.211 396.702 358.59C401.234 356.603 406.236 355.938 411.13 356.671C404.409 357.503 397.62 357.636 390.871 357.068C395.945 355.239 401.253 354.139 406.636 353.801L387.475 350.079C394.401 349.972 401.327 350.368 408.196 351.263C402.595 350.165 397.558 347.132 393.967 342.696C402.034 345.414 409.784 348.996 417.082 353.38L409.898 339.682C415.501 345.522 420.144 352.214 423.653 359.508C422.785 353.509 421.917 347.506 421.048 341.499L429.925 366.789C430.193 358.475 429.278 350.164 427.205 342.107C429.774 351.164 432.343 360.22 434.912 369.277L435.534 344.252C437.861 356.188 439.753 368.198 441.211 380.281C441.482 371.588 442.721 362.953 444.907 354.535L444.703 382.673C445.781 375.306 449.438 368.561 455.024 363.637C451.231 371.18 448.807 379.336 447.864 387.726C450.93 379.51 455.925 372.15 462.429 366.267C458.331 375.127 455.062 384.348 452.662 393.811C457.047 385.905 462.371 378.558 468.518 371.929C463.099 381.885 459.122 392.56 456.703 403.634C460.459 396.863 465.308 390.759 471.054 385.569C466.867 393.392 463.394 401.578 460.679 410.025L472.771 393.642C468.91 401.384 466.098 409.605 464.409 418.09C467.221 414.009 470.024 409.929 472.819 405.849C471.185 412.369 470.177 419.03 469.809 425.742L475.791 414.258C474.616 421.551 474.141 428.94 474.372 436.323C475.379 432.807 476.395 429.291 477.42 425.775C478.505 433.997 479.155 442.271 479.367 450.562C480.511 435.236 480.534 419.847 479.437 404.518C480.413 408.009 481.385 411.496 482.353 414.979L478.031 388.606C479.691 391.993 481.338 395.38 482.998 398.78L477.308 369.386C480.258 375.138 482.469 381.239 483.89 387.544C482.831 376.16 482.233 364.766 482.094 353.361C483.518 361.122 484.938 368.879 486.354 376.631C485.889 365.053 487.123 353.469 490.015 342.249C488.945 349.575 488.361 356.963 488.267 364.366C490.193 352.391 495.124 341.101 502.598 331.549C500.308 340.483 497.28 349.212 493.547 357.646C498.234 348.522 504.046 340.02 510.845 332.339C504.836 345.913 498.126 359.165 490.742 372.042C496.39 363.701 503.363 356.337 511.385 350.243C503.862 357.723 496.953 365.797 490.726 374.385L511.501 357.093C504.585 365.039 498.071 373.301 491.959 381.877L513.054 365.508C504.518 373.792 496.888 382.962 490.293 392.863L508.276 374.151C501.14 384.065 494.495 394.315 488.341 404.9C494.147 398.191 499.954 391.486 505.761 384.785C497.372 396.025 490.771 408.494 486.192 421.751C490.187 413.103 495.055 404.886 500.72 397.228C496.658 407.459 493.095 417.87 490.03 428.46C497.737 411.216 506.043 394.26 514.951 377.594L507.337 402.191C511.98 387.471 519.248 373.713 528.791 361.583C525.557 371.199 521.536 380.533 516.771 389.49C523.555 376.721 532.676 365.34 543.661 355.939C539.417 363.228 534.511 370.111 529.003 376.499C537.848 367.017 547.703 358.532 558.394 351.195L543.819 367.133C551.817 360.578 560.841 355.386 570.528 351.767C565.209 355.069 560.243 358.908 555.707 363.223C563.834 359.215 572.713 356.962 581.767 356.61L566.594 362.42C573.616 361.469 580.742 361.616 587.718 362.854C579.763 361.799 571.67 362.75 564.176 365.62C570.946 366.131 577.661 367.219 584.247 368.871C573.34 370.471 562.352 371.458 551.335 371.826L576.985 376.953C565.845 376.82 554.706 377.258 543.61 378.264C551.825 379.137 560.114 379.028 568.302 377.938C555.573 379.491 543.134 382.867 531.366 387.963L555.428 388.36C544.918 389.677 534.736 392.892 525.378 397.851L542.664 394.832C534.6 398.359 526.759 402.374 519.183 406.854C523.538 406.418 527.82 405.426 531.923 403.903C521.629 407.809 512.599 414.458 505.813 423.129C515.065 415.722 525.109 409.362 535.761 404.167C542.801 400.719 550.742 397.775 558.335 399.708C563.304 400.954 567.508 404.255 571.346 407.659C577.603 413.226 583.306 419.387 588.376 426.054C581.204 422.88 574.665 418.436 569.075 412.936C573.806 417.107 577.544 422.284 580.014 428.088L557.244 408.804C562.504 412.717 566.81 417.769 569.84 423.582L552.257 409.407C556.655 411.964 560.555 415.295 563.769 419.238L543.894 411.327L555.717 419.713C548.902 417.031 542.171 414.162 535.523 411.107L547.568 421.063C540.178 420.057 532.913 418.283 525.892 415.767L536.589 421.094C531.704 420.675 526.799 420.521 521.898 420.633C522.301 421.484 522.977 422.176 523.818 422.6C524.659 423.023 525.618 423.153 526.542 422.97C519.175 423.734 511.266 428.337 507.493 434.76C505.895 437.476 498.628 453.676 496.412 453.799C498.413 453.652 499.849 451.898 501.033 450.285L513.023 433.864C510.661 438.274 508.855 442.96 507.646 447.815C511.987 440.744 517.193 434.936 524.548 430.969L515.524 445.124C520.363 438.976 525.264 432.777 531.272 427.763L520.712 444.09C525.195 437.652 530.056 430.883 537.3 427.891C532.949 432.416 529.279 437.549 526.407 443.131C530.547 437.343 535.78 432.423 541.811 428.646C538.118 433.042 534.755 437.538 533.144 443.129C540.394 436.371 549.055 431.306 558.5 428.3C553.485 430.874 549.025 434.407 545.371 438.699C553.959 433.055 563.376 428.788 573.281 426.051C567.773 429.36 562.837 433.541 558.667 438.43C567.255 433.968 576.611 431.172 586.24 430.191L572.235 439.984L596.903 430.528L585.735 440.196C593.268 437.396 601.08 435.412 609.037 434.278C604.681 437.55 599.139 438.737 595.016 443.097C603.663 442.343 612.364 443.717 620.358 447.099C616.357 446.869 612.343 447.2 608.434 448.084C616.572 450.331 624.8 452.628 632.224 456.676C627.588 456.444 622.975 455.861 618.427 454.933L639.067 470.527C640.146 471.346 641.28 473.051 640.182 473.84C635.209 471.771 630.449 469.225 625.969 466.236C629.426 472.63 631.086 479.335 632.381 486.472C629.683 477.589 623.691 470.074 615.632 465.467C618.238 468.203 620.262 471.439 621.582 474.979C622.902 478.519 623.49 482.29 623.313 486.064C620.44 476.985 615.748 468.584 609.525 461.376C614.356 468.901 616.723 477.743 616.3 486.675C613.119 476.459 608.895 466.597 603.696 457.245C606.828 464.832 608.987 472.784 610.122 480.913C606.377 470.287 601.581 460.061 595.805 450.388C600.269 460.683 603.041 471.632 604.013 482.811C600.633 471.641 596.016 460.884 590.247 450.74C593.526 459.672 596.243 468.801 598.385 478.072C593.922 468.339 589.46 458.598 584.997 448.848C588.687 457.705 591.534 466.89 593.502 476.281C589.09 466.59 584.079 457.183 578.498 448.115C582.431 456.199 585.499 464.676 587.653 473.404L572.714 448.961C577.627 457.025 581.235 465.814 583.405 475.004L567.065 448.527C571.186 456.41 574.732 464.581 577.673 472.976L562.8 449.216C566.183 456.184 568.762 463.515 570.485 471.067C566.235 463.731 561.984 456.39 557.734 449.046L567.331 473.891C562.708 465.826 557.208 458.297 550.931 451.441L560.505 470.727L543.776 451.508L554.692 470.623L532.66 452.033C537.996 457.32 542.265 463.584 545.232 470.484C538.071 466.429 531.488 461.429 525.659 455.619L540.675 474.048L520.517 458.667C525.007 464.737 530.211 470.243 536.019 475.067C528.605 471.597 521.475 467.547 514.697 462.957C519.97 466.929 524.848 471.4 529.262 476.309C521.532 473.26 514.144 469.406 507.22 464.811L521.373 476.328L502.423 465.362L511.102 472.925L501.166 467.785C502.924 470.311 504.686 472.87 506.452 475.463C504.717 474.338 502.768 473.58 500.728 473.238C498.688 472.895 496.599 472.975 494.591 473.472C490.796 474.437 489.398 479.318 488.691 483.132C503.77 479.362 520.218 475.687 534.363 482.101C529.836 482.289 525.422 483.571 521.499 485.838C532.587 485.653 543.653 486.864 554.438 489.442C548.777 489.574 543.193 490.791 537.99 493.028C550.129 491.713 563.738 490.696 573.228 498.383C568.593 498.022 563.939 497.981 559.298 498.261C571.107 501.897 582.35 507.163 592.703 513.906C590.896 514.106 589.067 513.89 587.357 513.273C585.647 512.657 584.1 511.656 582.837 510.349C593.794 515.321 603.979 521.844 613.078 529.717C608.48 528.127 604.099 525.971 600.034 523.299C609.482 527.958 617.337 535.312 622.608 544.432L601.439 526.332C606.753 532.643 610.363 540.21 611.924 548.312C606.401 538.458 599.245 529.614 590.76 522.158C595.569 528.791 599.296 536.145 601.801 543.945L583.431 516.489C586.738 523.155 589.158 530.225 590.632 537.519L574.279 511.08C576.887 517.531 579.067 524.147 580.804 530.885L565.311 507.216C567.475 513.361 568.961 519.725 569.743 526.193L557.47 503.524C559.035 508.583 560.605 513.676 562.179 518.802L548.381 497.988C549.883 503.96 551.392 509.935 552.91 515.914L538.778 493.759C540.098 498.591 541.413 503.423 542.724 508.256C536.549 502.811 531.068 496.628 526.403 489.845C528.626 493.806 530.127 498.131 530.836 502.617L516.441 487.466L517.185 493.048C512.426 490.534 508.031 487.209 502.934 485.443C497.836 483.678 491.606 483.804 487.746 487.53C493.32 484.785 499.952 487.051 505.722 489.333C526.954 497.732 549.075 506.749 563.922 524.101L549.781 515.483C560.617 521.818 570.561 529.567 579.353 538.526L564.296 528.899C573.207 536.962 580.75 546.417 586.631 556.897L570.55 541.309C578.558 549.755 584.744 559.756 588.725 570.691L579.477 557.039C584.745 565.611 588.628 574.958 590.985 584.739L580.782 566.646C583.77 575.42 585.789 584.495 586.804 593.708C582.725 586.715 579.145 579.443 576.092 571.945C578.603 581.906 580.224 592.07 580.937 602.317C574.748 592.654 570.371 581.943 568.021 570.711L568.662 591.603C566.415 581.631 565.182 571.458 564.982 561.238C562.663 567.566 561.021 574.123 560.083 580.797C560.804 571.175 562.149 561.61 564.11 552.162C560.961 560.617 557.825 569.046 554.701 577.45L561.155 547.805C555.831 555.159 552.048 563.513 550.033 572.366C549.5 562.912 550.363 553.432 552.593 544.23C549.353 551.206 547.041 558.576 545.716 566.152C546.793 554.844 547.884 543.532 548.987 532.215C546.023 540.508 543.059 548.793 540.095 557.07L546.571 523.474C544.168 530.659 541.757 537.845 539.338 545.03C540.259 536.77 541.171 528.502 542.075 520.225L532.257 544.615L536.93 516.117C532.15 522.31 528.997 529.602 527.758 537.327C529.616 528.525 530.682 519.574 530.944 510.582L523.879 529.998C524.806 521.13 525.725 512.262 526.635 503.394C523.651 510.058 521.14 516.923 519.119 523.938C520.135 516.227 521.159 508.511 522.192 500.79C520.397 505.702 518.614 510.619 516.844 515.539C517.01 509.479 516.859 503.414 516.392 497.369C515.142 501.595 513.893 505.796 512.643 509.971C512.551 505.945 512.42 501.741 510.532 498.178C506.385 490.368 496.021 488.903 487.192 488.381C492.451 489.17 496.835 492.939 499.954 497.194C503.074 501.449 505.221 506.43 508.037 510.939C511.084 515.587 514.489 519.989 518.221 524.106L531.095 539.061C524.984 537.161 519.575 533.522 514.268 529.947C524.024 534.2 532.077 541.594 537.145 550.953C531.974 547.345 527.346 543.014 523.405 538.091C531.031 545.791 537.706 554.378 543.287 563.668L523.264 544.094C531.975 551.825 539.104 561.171 544.256 571.616L528.994 555.025C536.716 563.366 542.738 573.131 546.723 583.776L535.72 568.256C542.505 579.147 547.523 591.043 550.588 603.502L534.001 572.202C538.275 584.726 541.126 597.692 542.5 610.854L535.818 583.173C534.953 592.902 534.084 602.614 533.211 612.309C531.814 601.639 531.504 590.855 532.285 580.123L525.537 602.665L526.809 569.191C524.023 575.635 521.242 582.083 518.465 588.536C518.719 578.905 519.552 569.299 520.959 559.768C516.808 568.101 513.561 576.855 511.274 585.88C512.371 574.96 513.475 564.044 514.588 553.132C512.358 561.119 510.127 569.114 507.896 577.118C509.078 566.552 510.269 555.995 511.468 545.446C508.201 553.214 505.495 561.206 503.37 569.361L506.076 533.614L498.579 558.654L501.4 526.276C498.952 533.305 497.038 540.509 495.673 547.826C496.694 537.1 497.719 526.379 498.749 515.662L491.236 536.991C492.643 527.742 494.054 518.492 495.469 509.242L488.096 527.494C490.328 520.6 491.79 513.481 492.456 506.266C492.783 502.731 492.883 499.008 491.375 495.785C489.868 492.562 486.222 492.69 482.768 493.527Z" fill="#0C4C60"/>
<path d="M319.873 617.392C313.246 626.909 315.955 639.795 319.112 650.994C332.795 699.46 349.801 746.92 362.859 795.555C369.576 819.89 374.794 844.614 378.485 869.588C379.398 876.078 389.164 935.339 372.683 927.096C369.129 925.31 367.551 921.153 366.465 917.303C364.175 908.378 362.426 899.323 361.228 890.187L352.484 832.651C349.894 815.651 345.539 799.747 342.173 783.117C339.347 769.327 336.176 755.615 332.659 741.981C327.286 721.188 321.91 700.384 315.654 679.837C311.34 665.662 306.912 634.122 290.185 628.978C287.454 628.122 286.049 630.615 284.97 633.304C284.067 636.061 283.677 638.96 283.817 641.859C283.677 636.714 284.481 631.588 286.189 626.735C282.462 632.567 279.613 638.917 277.734 645.581C279.063 639.435 280.395 633.297 281.728 627.167C276.925 633.289 273.754 640.533 272.513 648.219L275.675 628.639C272.342 637.269 269.935 646.231 268.494 655.372C267.773 647.515 267.743 639.61 268.407 631.749C266.712 640.009 266.026 648.446 266.363 656.874L263.174 634.238C262.437 642.037 262.8 649.902 264.254 657.601C262.74 650.416 261.21 643.206 259.666 635.97L258.657 659.488L253.607 639.989C253.2 646.705 253.198 653.44 253.6 660.157L251.867 641.544L245.577 663.417C245.723 656.97 245.868 650.518 246.013 644.063L238.99 666.383L240.795 646.208C236.487 652.816 233.107 659.986 230.751 667.517C231.774 661.288 232.81 655.06 233.859 648.832L223.48 670.817C225.367 664.4 226.625 657.814 227.237 651.151C223.131 658.304 219.83 665.89 217.394 673.772C218.858 666.617 220.326 659.462 221.797 652.306C218.588 660.146 214.876 667.77 210.684 675.13L214.53 654.458L206.843 679.163C207.471 672.225 208.093 665.293 208.707 658.368C204.897 666.067 202.745 674.483 202.392 683.07L200.703 658.07C197.762 665.725 196.824 674.007 197.978 682.129C197.491 675.024 197.006 667.915 196.525 660.8C195.587 666.832 194.651 672.859 193.719 678.88C187.917 666.362 193.844 650.755 204.275 641.752C214.706 632.749 228.731 629.126 242.348 626.941C250.37 625.662 258.452 624.799 266.564 624.356C274.502 623.692 282.492 624.059 290.337 625.449C288.652 623.369 286.427 621.793 283.907 620.894C281.387 619.995 278.669 619.808 276.051 620.352C273.451 620.969 271.07 622.291 269.17 624.171C267.271 626.052 265.924 628.42 265.279 631.016L267.597 618.049C264.73 622.96 262.273 628.1 260.251 633.417C260.333 628.21 261.132 623.04 262.626 618.053C259.351 623.724 256.571 629.667 254.316 635.817C255.762 630.39 256.846 624.874 257.562 619.303C253.615 624.486 250.25 630.088 247.529 636.009C248.917 630.806 250.305 625.604 251.693 620.401C246.504 626.307 241.851 632.663 237.787 639.396C240.204 633.62 241.925 627.576 242.915 621.392C237.703 628.377 233.162 635.839 229.352 643.679L235.149 625.635C228.857 632.069 223.236 639.13 218.375 646.706C221.762 639.19 224.449 631.377 226.402 623.367L209.193 649.512L216.677 630.001C217.792 627.101 218.951 623.977 218.2 620.963C211.175 628.402 205.898 637.317 202.753 647.059C204.16 640.079 205.569 633.094 206.982 626.104C203.336 631.039 201.009 636.825 200.222 642.914C201.582 637.212 202.133 631.347 201.857 625.491C198.132 631.925 195.281 638.828 193.381 646.019C195.051 639.111 196.246 632.096 196.957 625.024C191.889 631.893 187.702 639.373 184.496 647.288C186.837 639.303 188.697 631.183 190.064 622.974C185.67 631.08 181.815 639.468 178.526 648.084C180.66 638.67 183.197 629.358 186.137 620.147C183.224 626.806 179.718 633.19 175.661 639.219C177.255 632.419 180.245 626.027 184.441 620.448C188.636 614.869 193.946 610.226 200.032 606.813L190.196 610.627C197.997 605.158 207.35 602.349 216.872 602.615L209.621 600.389C218.832 599.797 228.069 601.055 236.789 604.09L233.191 600.059C250.164 604.169 266.676 610.002 282.469 617.467C281.347 614.712 279.534 612.294 277.205 610.445C274.876 608.597 272.111 607.382 269.177 606.917C266.236 606.52 263.245 606.889 260.489 607.986C257.733 609.084 255.307 610.874 253.444 613.184C254.969 610.261 256.037 607.121 256.611 603.874C252.468 607.116 248.464 610.51 244.597 614.053C246.459 610.043 248.475 606.095 250.645 602.21C245.164 606.247 240.171 610.909 235.769 616.103C238.275 611.522 240.088 606.593 241.147 601.478C235.922 605.992 231.221 611.079 227.13 616.644L231.33 600.472L215.483 613.095C218.192 608.152 220.262 602.884 221.644 597.417C215.67 600.005 210.014 603.272 204.787 607.153L212.387 595.024C206.816 597.942 201.527 601.371 196.588 605.265C199.891 601.434 202.639 597.155 204.747 592.555C198.911 595.84 193.351 599.595 188.124 603.783L195.116 593.053C189.63 595.576 184.461 598.739 179.717 602.476L189.414 591.538C183.561 594.29 177.97 597.57 172.711 601.337C176.354 597.667 180.209 594.214 184.257 590.997L170.162 596.616C177.804 591.299 186.393 587.497 195.465 585.416L181.08 584.819C193.309 582.572 205.933 584.057 217.312 589.082L209.502 584.059C215.934 585.238 222.236 587.043 228.318 589.451L222.107 584.03C244.86 588.313 266.892 595.805 287.547 606.281C287.503 603.582 285.795 601.223 283.959 599.261C280.799 595.671 276.59 593.17 271.931 592.114C267.262 591.261 262.015 592.733 259.19 596.551C260.929 593.333 262.267 589.914 263.172 586.37C258.419 589.922 254.169 594.102 250.536 598.796L256.573 582.923C252.786 586.939 249.562 591.453 246.991 596.34L251.846 580.472C247.196 585.746 243.088 591.474 239.582 597.57C241.43 591.085 243.272 584.605 245.107 578.131C239.915 583.84 235.233 589.992 231.112 596.518L236.449 574.253C232.131 580.052 228.239 586.157 224.803 592.52C225.301 585.272 226.659 578.108 228.848 571.182C224.302 575.761 220.314 580.864 216.967 586.383C218.62 579.418 221.449 572.787 225.333 566.777C221.613 569.631 217.616 572.105 213.404 574.163L223.234 563.759L210.099 569.895C214.865 563.766 223.167 561.117 230.922 561.578C238.678 562.039 246.041 565.219 252.898 568.942C266.442 576.353 278.605 586.053 288.847 597.613C279.696 581.859 263.248 571.932 247.005 563.731C239.674 560.026 231.567 556.438 223.508 558.044C213.915 559.957 207.324 568.608 201.707 576.626L208.358 558.217C203.124 564 198.382 570.212 194.183 576.788L198.366 558.78C195.611 565.006 193.195 571.377 191.128 577.864C191.452 572.431 191.756 567.003 192.04 561.58C188.447 568.068 185.481 574.885 183.181 581.938C184.546 575.598 185.903 569.261 187.252 562.925C183.19 567.513 179.601 572.5 176.538 577.809C179.4 571.315 182.478 564.913 185.772 558.605L172.826 567.719L186.864 553.342C182.475 554.597 177.94 555.266 173.375 555.331C179.2 552.861 185.214 550.864 191.359 549.36L176.003 546.887C182.791 545.41 189.719 544.676 196.667 544.697C191.493 542.404 186.571 539.58 181.979 536.272C189.104 536.531 196.133 538.005 202.765 540.63C198.078 537.956 193.683 534.798 189.653 531.207C196.61 533.397 203.109 536.843 208.829 541.374C205.952 537.982 203.432 534.302 201.308 530.394C206.946 533.918 211.973 538.34 216.19 543.484C214.473 539.677 212.747 535.885 211.033 532.09C215.236 536.832 219.446 541.567 223.663 546.297C222.371 543.065 221.08 539.824 219.792 536.574C223.71 541.029 227.23 545.819 230.31 550.891C229.33 547.049 228.832 543.101 228.826 539.136L238.61 552.628C237.454 549.997 236.97 547.121 237.202 544.257C239.804 548.431 242.403 552.611 244.999 556.795L245.425 547.601L251.761 559.331C252.326 557.428 252.55 555.439 252.424 553.456C254.443 554.995 255.438 557.52 257.129 559.404C262.504 565.412 270.688 567.745 276.164 574.308C275.352 572.007 274.233 569.827 272.836 567.827C272.131 566.831 271.23 565.989 270.188 565.354C269.147 564.719 267.987 564.303 266.779 564.132C267.69 562.528 268.733 561.004 269.897 559.574L265.66 562.218L268.784 556.927C266.837 557.856 265.015 559.026 263.359 560.41L266.445 554.41C266.711 553.864 266.972 553.144 266.549 552.707C266.125 552.271 265.26 552.588 264.765 552.925C263.53 553.725 257.749 556.036 257.393 557.284C258.399 553.78 260.358 550.626 263.052 548.172C259.134 551.221 254.918 553.865 250.467 556.062C252.896 552.674 255.579 549.477 258.493 546.498L244.31 551.61C247.842 549.07 250.893 545.919 253.319 542.306C248.788 544.18 244.094 545.633 239.296 546.647C243.231 543.145 247.171 539.642 251.114 536.138C247.166 539.406 242.609 541.858 237.706 543.35C240.071 538.855 242.787 534.553 245.828 530.486C240.336 532.555 235.093 535.232 230.195 538.467C233.159 534.877 236.348 531.481 239.744 528.297C234.425 530.504 228.916 532.22 223.285 533.422L235.452 524.565L215.99 530.514L231.599 522.438C225.001 523.743 218.32 524.715 211.622 525.364C216.409 522.98 221.397 521.024 226.528 519.518L208.453 522.55C212.731 519.701 217.304 517.323 222.092 515.456L203.763 514.493L215.513 510.48C212.92 510.674 210.313 510.58 207.74 510.199C205.391 509.663 203.697 508.321 201.117 508.322L216.608 507.346L200.74 500.904C209.599 500.682 218.212 503.848 224.825 509.759C220.531 505.869 215.802 502.488 210.733 499.685C219.79 502.54 227.897 507.819 234.176 514.952L220.835 499.461C229.378 504.985 236.959 511.875 243.278 519.854L234.357 503.563C240.662 512.528 246.959 521.494 253.249 530.463C251.254 525.491 249.253 520.528 247.246 515.575L262.948 539.829C261.755 535.854 260.572 531.864 259.391 527.886C262.843 534.797 266.302 541.72 269.767 548.653C269.691 547.135 272.194 547.733 273.204 548.855C283.71 560.495 291.683 574.196 296.615 589.085C291.332 567.933 279.384 549.044 262.541 535.217L270.337 537.155L256.387 527.551L264.948 529.575C258.672 527.292 252.517 524.718 246.482 521.853L259.89 523.073L239.335 517.824L252.566 518.03L233.282 512.124C237.554 511.713 241.856 511.708 246.13 512.11C238.004 508.867 230.035 505.262 222.224 501.295C228.445 502.207 234.599 503.531 240.646 505.259C233.21 501.777 226.128 497.583 219.498 492.736C226.27 495.325 232.82 498.464 239.083 502.12C232.842 497.175 227.564 491.12 223.515 484.26C231.007 489.545 237.534 496.082 242.809 503.586L231.057 485.379C238.215 493.529 244.689 502.255 250.414 511.47C247.343 504.976 244.271 498.478 241.198 491.976C246.294 499.238 251.073 506.743 255.509 514.435C253.037 507.494 251.431 500.274 250.728 492.94C254.61 502.584 258.505 512.234 262.415 521.889C262.241 515.773 262.058 509.655 261.867 503.535L267.458 526.971C267.246 520.14 267.784 513.307 269.061 506.594C270.051 515.904 271.547 525.154 273.541 534.302L274.847 517.024C275.374 525.78 276.698 534.469 278.802 542.985C278.887 538.849 279.459 534.739 280.506 530.738C281.051 537.555 282.005 544.333 283.364 551.036C283.119 547.024 283.945 543.02 285.759 539.436L288.103 555.602C288.504 553.573 288.895 551.56 289.284 549.535L298.669 586.266C300.784 571.245 297.624 555.951 289.731 542.995C291.507 544.67 293.275 546.359 295.041 548.036L282.404 534.361L291.189 538.8C286.33 534.411 281.084 530.472 275.516 527.029L286.914 530.842C281.213 527.801 275.645 524.518 270.209 520.991C274.352 521.88 278.342 523.373 282.052 525.424C276.468 522.393 271.13 518.928 266.087 515.062L278.14 518.774C271.981 515.743 266.119 512.141 260.63 508.016C264.804 508.39 268.924 509.222 272.917 510.498L254.228 500.109L267.182 502.437C260.3 500.312 253.69 497.387 247.487 493.723C252.497 494.275 257.44 495.327 262.242 496.863C254.38 493.556 246.762 489.694 239.447 485.304C246.184 486.476 252.785 488.326 259.151 490.827C252.556 487.568 246.174 483.893 240.044 479.824C244.976 480.305 249.744 481.859 254.014 484.378C258.284 486.897 261.953 490.319 264.764 494.406L250.586 475.96C259.054 482.282 266.076 490.342 271.182 499.6C269.29 493.996 267.394 488.394 265.494 482.793C270.141 490.705 273.852 499.132 276.55 507.903C276.212 502.71 275.877 497.513 275.545 492.311L281.43 515.307L280.868 503.965C282.714 511.572 284.565 519.181 286.421 526.793C286.428 524.346 286.455 521.881 286.447 519.426C288.422 526.739 290.029 534.128 291.268 541.591C291.817 530.343 289.098 519.174 283.44 509.437C285.821 511.496 287.83 513.949 289.378 516.691C284.461 510.278 280.697 503.058 278.255 495.353C281.562 498.557 284.274 502.323 286.265 506.477C281.655 498.666 278.133 490.261 275.795 481.497C279.016 486.509 282.245 491.514 285.48 496.514C281.866 488.465 279.268 479.997 277.747 471.306C280.373 477.147 282.524 483.19 284.179 489.377C282.983 481.798 283.057 474.074 284.397 466.522C284.869 471.446 285.338 476.341 285.805 481.207C286.057 473.895 288.614 466.851 293.111 461.085C292.351 466.854 291.593 472.618 290.839 478.377C293.083 472.573 296.642 467.371 301.236 463.18C297.814 468.433 295.318 474.235 293.857 480.334C298.229 476.724 302.896 473.486 307.808 470.655L293.886 481.511C298.363 479.513 303.259 478.634 308.152 478.95C302.933 479.965 298.017 482.166 293.781 485.382C298.583 483.057 303.917 482.058 309.235 482.487C302.452 484.755 296.057 488.05 290.272 492.256C296.111 490.017 302.158 488.362 308.324 487.314C300.832 489.662 294.023 493.795 288.48 499.358C293.944 495.753 300.114 493.356 306.577 492.325C299.631 496.586 293.478 502.022 288.391 508.392L304.246 498.729C298.124 503.832 293.372 510.384 290.42 517.792L303.275 506.445C298.221 512.086 294.601 518.864 292.719 526.205C295.995 522.078 299.28 517.953 302.574 513.829C298.109 521.001 294.588 528.72 292.1 536.796L300.769 525.219C296.916 530.703 294.479 537.057 293.673 543.714C296.288 540.696 298.389 537.268 299.892 533.567C298.773 546.822 299.595 560.171 302.332 573.19C304.133 558.55 304.244 543.75 302.663 529.083C305.076 532.555 306.981 536.354 308.321 540.364C306.429 531.912 305.088 523.346 304.306 514.721C305.415 518.763 306.521 522.811 307.623 526.863L305.369 498.436L309.124 513.494C308.182 501.839 309.642 490.115 313.413 479.05C313.245 484.133 313.091 489.251 312.949 494.404C313.895 484.563 316.515 474.958 320.696 466.004L318.196 483.088C319.829 473.57 323.607 464.55 329.243 456.714L323.736 472.947C327.409 464.417 333.062 456.889 340.227 450.989L332.384 463.758C337.579 457.495 344.188 452.56 351.665 449.359C347.292 452.228 343.204 455.509 339.457 459.159C345.571 455.531 352.438 453.362 359.527 452.819C351.743 455.204 344.284 458.545 337.322 462.766C342.403 461.138 347.691 460.245 353.024 460.112C344.047 463.017 335.699 467.592 328.417 473.595L343.847 467.227C334.896 472.722 326.58 479.191 319.051 486.518L334.216 478.426C326.623 483.361 320.062 489.727 314.897 497.17C319.239 494.833 323.241 491.914 326.794 488.494C320.308 495.883 314.921 504.171 310.801 513.102L318.989 502.325C313.847 510.903 310.272 520.33 308.434 530.165L315.296 518.762C311.448 528.628 309.557 539.151 309.728 549.743C311.646 537.594 313.546 525.374 317.827 513.87C322.109 502.367 328.92 491.468 338.933 484.371L329.713 496.614L348.624 482.799C342.522 486.572 337.186 491.465 332.897 497.219C336.416 495.607 339.776 493.668 342.933 491.428C338.104 495.926 333.922 501.074 330.509 506.726L341.354 499.736C335.931 505.106 331.079 511.026 326.877 517.399L337.559 507.69C330.899 514.024 325.383 521.463 321.253 529.678C323.863 527.458 326.085 524.817 327.826 521.864C322.995 530.354 320.142 539.829 319.48 549.581C324.881 535.63 330.768 521.916 337.142 508.437C336.233 513.848 335.336 519.252 334.449 524.649C337.377 516.342 341.654 508.577 347.109 501.667L342.075 515.702C347.084 508.859 352.941 502.681 359.506 497.315L352.582 507.007C357.968 502.734 363.808 499.067 369.996 496.074C367.108 498.296 364.391 500.734 361.871 503.368C367.72 500.282 373.881 497.829 380.25 496.051C376.178 497.631 372.384 499.853 369.014 502.633C374.469 501.797 380.048 502.358 385.23 504.262L368.322 506.272C374.437 507.368 380.121 510.166 384.723 514.345L366.283 509.351C371.945 510.782 377.062 513.85 380.995 518.174C374.338 515.643 367.439 513.807 360.407 512.694C366.923 515.482 372.878 519.434 377.98 524.357L352.422 516.261C359.137 518.293 365.308 521.817 370.475 526.569L348.575 520.976C355.821 522.66 362.432 526.393 367.621 531.73L344.178 524.946C348.051 526.072 351.64 528.011 354.705 530.635C357.771 533.259 360.243 536.507 361.957 540.162C356.676 535.363 350.475 531.69 343.732 529.367C350.376 531.99 356.223 536.301 360.697 541.875C353.189 541.111 345.792 539.492 338.649 537.05C344.542 538.735 349.616 542.523 352.91 547.699L333.827 543.76C338.827 544.364 343.674 545.886 348.125 548.249C341.298 548.776 334.548 550.036 327.991 552.009L340.436 553.607C333.198 555.504 326.307 558.536 320.018 562.592L332.316 561.127C323.283 566.484 316.453 574.89 313.052 584.835C316.122 579.797 320.343 575.561 325.369 572.476C330.395 569.391 336.081 567.546 341.96 567.091C340.28 563.313 339.479 559.203 339.618 555.071C341.033 559.845 341.992 564.741 342.483 569.696C343.996 562.369 346.33 555.238 349.443 548.437L349.792 561.496L361.989 540.192L360.273 553.148L374.849 532.247C373.898 536.273 372.956 540.289 372.025 544.294L386.427 529.36C385.381 532.671 384.335 535.982 383.29 539.292C388.803 534.827 394.841 531.053 401.27 528.054L395.639 535.407C401.033 531.83 407.392 529.994 413.862 530.145C409.392 531.736 405.135 533.873 401.187 536.506C406.623 535.405 412.268 535.999 417.358 538.209L396.514 539.121C401.275 541.282 405.858 543.814 410.222 546.694C404.632 546.236 399.182 544.697 394.176 542.162L404.942 548.993C399.481 547.891 394.136 546.269 388.982 544.15C391.847 547.676 395.351 550.63 399.309 552.855C394.771 551.281 390.23 549.712 385.686 548.148C388.519 550.028 390.994 552.398 392.995 555.148L378.356 551.11C380.739 553.27 383.415 555.081 386.306 556.488C381.685 554.772 376.849 553.709 371.936 553.328C374.753 556.449 377.561 559.568 380.361 562.684L365.506 557.225C368.301 560.931 371.097 564.637 373.892 568.343C370.121 566.997 366.601 565.029 363.478 562.52L370.312 572.613L359.46 565.74C362.002 569.065 364.072 572.728 365.609 576.622L355.038 570.725C357.095 573.351 358.649 576.335 359.624 579.526L348.629 574.856C351.032 577.025 352.973 579.658 354.335 582.596L340.698 576.77C343.031 579.193 344.991 581.95 346.513 584.95C342.523 584.439 338.596 583.522 334.792 582.213C336.513 583.798 337.892 585.719 338.842 587.858L327.524 585.576C327.457 587 327.067 588.391 326.381 589.641C325.696 590.891 324.734 591.967 323.569 592.788C336.678 594.372 347.308 583.088 359.015 576.98C366.997 572.797 375.95 570.943 384.77 569.21C393.169 567.557 401.589 565.987 410.124 566.544C418.658 567.101 427.284 570.092 433.094 576.332C429.51 573.449 425.473 571.181 421.149 569.618C423.5 571.985 425.455 574.715 426.941 577.702L416.551 569.05C419.412 572.625 421.973 576.429 424.209 580.425C420.566 576.956 416.912 573.493 413.248 570.038C415.964 573.592 418.427 577.333 420.621 581.232L408.756 571.662L414.53 580.734L404.49 573.835C406.808 576.697 408.427 580.061 409.217 583.659C405.284 581.077 401.348 578.5 397.409 575.928C400.242 578.428 402.391 581.609 403.653 585.172L391.264 576.225C394.233 579.31 396.606 582.919 398.261 586.87L384.8 577.71C388.076 580.673 390.764 584.227 392.724 588.187L379.899 580.319C382.414 582.664 384.433 585.491 385.836 588.632L373.553 582.229C374.918 584.573 376.291 586.902 377.653 589.235C373.49 588.498 369.522 586.913 365.995 584.579C367.466 587.099 368.929 589.633 370.4 592.152L357.465 587.173L360.351 592.54C355.757 593.217 351.068 592.807 346.659 591.341C346.896 593.43 347.578 595.443 348.66 597.245C345.277 595.845 341.8 594.418 338.135 594.311C334.471 594.204 330.539 595.701 328.743 598.896C333.576 599.02 338.382 598.142 342.859 596.319C347.337 594.495 351.389 591.765 354.763 588.3C354.798 589.552 354.851 590.874 354.883 592.165C360.097 587.86 366.219 584.795 372.788 583.201C371.642 584.746 370.882 586.543 370.57 588.442L385.08 582.417L383.241 589.027C387.419 586.569 392.071 585.026 396.89 584.502C396.23 586.477 395.097 588.261 393.591 589.698C398.399 588.992 403.275 588.868 408.113 589.329L404.001 591.715C410.145 593.088 416.13 595.098 421.86 597.711C419.635 598.209 417.304 597.86 415.322 596.732C419.966 600.095 424.125 604.084 427.68 608.586L415.757 598.325C418.542 602.261 421.314 606.191 424.071 610.116L409.613 598.017C411.207 601.877 413.287 605.517 415.801 608.851L403.329 599.218C406.13 603.183 408.934 607.143 411.741 611.098L395.562 598.004C399.2 602.74 402.493 607.731 405.416 612.94C399.852 609.101 394.28 605.268 388.702 601.441L396.516 613.243L378.905 602.888L388.129 614.288L372.716 604.267C376.467 607.947 379.868 611.968 382.873 616.279L365.273 606.274C368.564 610.386 371.848 614.487 375.126 618.577L355.681 607.128L367.846 619.875C362.057 616.225 355.875 613.243 349.417 610.984C353.433 614.94 357.447 618.892 361.461 622.841L344.905 610.962C348.733 615.814 352.83 620.448 357.177 624.841L339.791 612.464C342.727 617.01 346.176 621.204 350.07 624.962C344.54 620.575 338.389 617.037 331.818 614.464L340.889 625.147C335.925 622.552 330.813 620.253 325.578 618.263L334.472 625.763C330.912 622.44 326.895 619.643 322.545 617.457C321.781 617.067 320.688 616.773 320.181 617.466C319.674 618.16 321.475 618.77 321.173 617.963C320.626 616.524 320.726 616.171 319.873 617.392Z" fill="#0C4C60"/>
<path d="M255.287 228.08C252.45 229.285 248.443 234.211 247.602 235.175C243.924 239.392 240.219 243.587 236.525 247.806C229.163 256.234 221.834 264.696 214.538 273.192C199.912 290.15 185.41 307.215 171.03 324.387C157.51 340.532 144.099 356.763 130.797 373.081C119.326 387.142 107.398 401.716 91.0386 409.577C89.3625 410.378 87.4637 411.128 85.694 410.566C83.1357 409.761 82.0697 406.507 82.7548 403.916C83.4398 401.325 85.3702 399.278 87.2262 397.35C140.03 342.553 191.27 286.305 240.945 228.604C241.496 227.872 239.317 226.523 238.509 226.961C238.146 227.239 237.848 227.593 237.636 227.998C237.425 228.403 237.304 228.849 237.283 229.305L235.54 238.459C234.781 235.462 233.781 232.531 232.55 229.695C232.947 234.362 232.741 239.061 231.938 243.675L230.807 231.839C230.927 237.739 230.042 243.616 228.191 249.219L227.577 236.522C227.816 242.34 226.712 248.135 224.351 253.458C224.654 248.383 224.947 243.316 225.229 238.255C223.606 245.569 221.929 253.031 218.106 259.488C218.284 253.601 218.763 247.726 219.538 241.887C216.517 250.384 213.403 259.045 208.137 266.319C209.382 259.118 211.215 252.03 213.618 245.128C210.429 252.735 206.343 259.934 201.445 266.572C203.615 260.559 205.785 254.537 207.958 248.507C204.41 255.58 200.101 262.244 195.107 268.381C198.335 263.48 200.829 258.133 202.51 252.51C198.948 258.983 194.257 264.766 188.658 269.585C191.774 265.251 194.666 260.759 197.323 256.129C192.856 262.335 187.67 267.99 181.872 272.975L190.968 253.268C187.043 261.835 181.349 269.475 174.261 275.685C177.272 269.647 180.28 263.612 183.286 257.579C178.245 263.127 172.862 268.353 167.169 273.227C170.018 267.928 173.697 263.118 178.066 258.982C170.603 260.222 166.306 268.66 159.094 270.975L175.056 257.677C168.37 261.049 161.707 264.482 155.065 267.975C161.466 260.406 172.471 258.491 179.893 251.937L157.226 256.74C166.791 252.319 177.095 249.616 187.266 246.899L165.174 247.81C174.165 243.263 185.126 245.479 194.758 242.474C187.324 241.224 179.746 241.088 172.273 242.073C182.516 238.409 193.568 237.762 204.399 237.197L181.225 233.273L212.598 233.723C207.667 232.251 203.031 230.29 198.277 228.487C206.267 229.442 214.296 230.307 222.365 231.08C216.447 228.06 210.146 225.862 203.634 224.546C211.532 225.718 219.491 226.425 227.472 226.661C220.927 224.518 214.253 222.788 207.491 221.481C214.665 221.746 221.814 222.359 228.937 223.322C223.117 221.323 217.127 219.856 211.042 218.94C218.059 219.425 225.094 219.721 232.145 219.826C227.265 219.06 222.12 217.718 217.176 216.919C225.295 215.91 233.493 215.7 241.653 216.292C236.072 214.913 230.298 214.499 224.578 215.066C231.696 213.545 238.938 212.674 246.214 212.464C243.079 212.584 239.955 212.023 237.058 210.82C241.848 210.75 246.637 211.018 251.389 211.623L236.088 207.188C233.877 206.557 231.532 205.911 229.295 206.435C224.676 207.521 222.485 212.927 218.496 215.414L224.24 205.843C221.098 210.528 217.636 214.991 213.879 219.2C216.138 214.909 218.589 210.728 221.232 206.658C218.007 211.316 214.479 215.757 210.672 219.953C213.595 216.04 216.234 211.922 218.57 207.632C214.157 211.763 210.165 216.323 206.654 221.243C209.724 216.483 212.602 211.593 215.246 206.571C211.021 212.841 206.246 218.722 200.976 224.144C203.895 219.688 206.278 214.904 208.077 209.89C203.597 215.849 199.115 221.812 194.63 227.777C197.553 223.057 199.836 217.97 201.418 212.648L188.456 232.149C190.52 226.559 192.589 220.975 194.665 215.394C190.587 221.695 186.5 227.993 182.405 234.29C184.88 229.028 186.835 223.537 188.242 217.895C183.992 224.115 179.732 230.336 175.46 236.559C178.291 230.618 181.125 224.673 183.961 218.726C178.956 225.113 173.94 231.502 168.913 237.893C170.997 232.036 173.81 226.466 177.285 221.312C171.886 227.391 166.867 233.797 162.256 240.493C164.584 233.821 167.428 227.341 170.761 221.11C166.711 227.964 162.662 234.824 158.614 241.688C160.231 234.357 162.476 227.178 165.325 220.232C161.814 227.065 158.301 233.906 154.787 240.756L161.548 220.179L151.357 239.179L157.818 219.059C153.334 224.972 149.262 231.188 145.633 237.662C146.532 230.675 149.966 224.273 153.356 218.084C147.408 223.706 142.011 229.884 137.237 236.532C138.323 230.455 142.324 225.364 146.19 220.549C140.563 225.859 134.693 230.894 128.579 235.655C132.466 230.33 136.904 225.43 141.818 221.036L120.503 235.49C126.224 228.661 133.11 222.9 140.842 218.473L120.078 231.325C126.344 225.238 133.773 220.479 141.922 217.333C150.07 214.186 158.77 212.717 167.501 213.014C160.299 211.877 152.975 211.744 145.737 212.618C156.25 210.449 167.118 211.071 177.829 211.707C173.394 208.603 168.041 207.085 162.637 207.398C169.573 205.893 176.724 208.177 183.81 207.96C188.794 207.817 193.661 206.44 198.521 205.42C214.347 202.206 230.732 203.083 246.124 207.969C245.69 203.565 240.763 200.717 236.347 201.012C231.932 201.306 228.031 203.889 224.462 206.59C226.864 203.974 229.271 201.357 231.684 198.74C227.359 202.91 223.042 207.076 218.733 211.238L228.325 198.014L213.178 211.329C216.438 206.697 219.707 202.072 222.985 197.454C218.024 200.671 213.441 204.436 209.322 208.678C211.902 205.073 214.498 201.465 217.077 197.86C211.816 203 205.852 207.366 199.362 210.827C202.316 206.652 205.273 202.474 208.232 198.294L193.223 212.467C195.803 207.852 198.774 203.468 202.103 199.361C197.76 204.612 192.667 209.195 186.988 212.961C190.424 208.249 193.862 203.528 197.301 198.799C193.741 201.946 190.451 205.386 187.466 209.082C189.981 204.965 192.487 200.845 194.985 196.724C190.608 201.813 185.788 206.505 180.584 210.745C183.171 206.275 185.766 201.806 188.37 197.339C183.907 202.842 178.609 207.61 172.667 211.47C175.478 206.713 178.285 201.963 181.087 197.219C175.805 203.32 169.596 208.55 162.686 212.718L173.592 195.837C168.454 202.091 162.946 208.031 157.098 213.626C160.914 206.791 165.417 200.362 170.535 194.439C163.343 200.789 156.149 207.141 148.952 213.496L162.951 194.006C156.148 200.778 149.24 207.631 140.898 212.26C145.456 205.605 150.019 198.943 154.586 192.275C148.442 197.797 142.298 203.313 136.152 208.823C140.057 203.05 143.969 197.254 147.889 191.435L128.764 207.086C131.457 202.674 134.609 198.558 138.168 194.809C132.115 197.89 126.459 201.693 121.322 206.136L130.18 196.032C125.087 198.944 120.188 202.184 115.515 205.733C123.629 194.939 137.373 189.669 150.806 188.287C161.276 187.218 171.856 188.146 182.262 189.554C204.13 192.461 225.705 197.254 246.746 203.88C240.059 201.306 234.264 196.775 227.608 194.123C220.952 191.47 212.491 191.161 207.427 196.237C211.049 194.153 214.404 191.635 217.417 188.74L201.639 197.198C204.055 194.447 206.473 191.688 208.892 188.921C204.421 191.365 200.161 194.177 196.156 197.329L207.054 187.06L189.639 197.407C193.286 193.56 196.938 189.712 200.596 185.863C194.546 189.509 188.478 193.172 182.393 196.852C186.49 192.984 190.125 188.654 193.225 183.949C187.03 187.517 180.833 191.083 174.632 194.646C178.62 189.651 182.606 184.651 186.591 179.645C180.456 184.578 173.992 189.087 167.244 193.141C171.445 188.45 175.298 183.46 178.774 178.209L159.643 193.638C162.737 189.123 165.829 184.617 168.92 180.119C164.019 184.708 159.119 189.296 154.218 193.885C156.806 189.155 159.395 184.424 161.983 179.694C157.662 184.438 153.341 189.176 149.018 193.909C151.312 189.751 153.603 185.59 155.891 181.427C151.122 185.758 146.699 190.454 142.661 195.473L149.176 181.865L139.604 194.771C141.696 189.022 145.112 183.847 149.576 179.663C154.039 175.48 159.425 172.406 165.297 170.691C155.311 171.079 146.221 176.277 137.61 181.342C142.585 176.404 147.973 171.898 153.713 167.875L136.74 177.422L146.913 167.654C140.247 169.124 133.929 171.87 128.308 175.742C134.495 170.904 141.643 167.441 149.275 165.585C156.907 163.729 164.848 163.523 172.566 164.98L160.797 161.792C170.102 162.148 179.314 163.793 188.167 166.679L182.495 162.487L200.271 171.99C199.236 170.093 198.479 168.057 198.022 165.945C202.77 170.941 208.053 175.399 213.775 179.239C212.375 177.271 211.545 174.955 211.377 172.545C215.591 177.267 220.41 181.412 225.709 184.872C226.23 183.174 226.782 181.514 227.276 179.795C228.995 183.031 230.433 186.408 231.573 189.89C233.05 188.768 234.725 187.934 236.511 187.434C236.576 189.495 236.395 191.557 235.973 193.575C237.072 191.415 238.572 189.484 240.395 187.886L239.893 194.925C241.274 194.091 242.618 193.23 244.046 192.431L245.205 197.511C247.774 195.581 251.107 198.581 252.895 201.26C251.697 191.579 241 184.263 231.528 186.649C234.317 184.87 237.112 183.082 239.933 181.357L226.294 184.267L234.305 178.592C229.638 180.034 224.825 180.952 219.954 181.33C222.467 179.01 224.989 176.697 227.502 174.378L212.697 176.948C214.627 174.901 216.548 172.848 218.479 170.801C213.832 172.426 209.188 174.054 204.547 175.684C207.45 173.274 210.187 170.672 212.739 167.895C207.847 169.459 203.103 171.453 198.563 173.856C201.502 171.13 204.441 168.405 207.38 165.68C202.567 167.422 197.759 169.173 192.954 170.93C195.661 168.128 198.376 165.302 201.098 162.452C196.125 164.865 190.885 166.684 185.486 167.871C188.064 165.639 190.629 163.411 193.181 161.188L177.545 164.862C188.978 157.492 204.032 157.198 216.86 161.718C229.688 166.238 240.664 174.94 250.259 184.591C247.675 173.839 234.919 166.79 224.442 170.321C227.031 168.653 229.624 166.96 232.206 165.302L220.119 166.882C222.06 165.439 224.011 164.002 225.952 162.559L211.514 165.682C214.468 163.548 217.431 161.422 220.42 159.242C213.946 160.624 207.575 162.449 201.351 164.703L214.431 152.766C207.881 155.141 201.538 158.052 195.466 161.469L210.37 147.435C202.682 150.156 195.235 153.514 188.106 157.475C193.145 152.265 198.176 147.053 203.198 141.84C196.668 144.715 190.342 148.033 184.265 151.772L199.462 137.696L180.734 143.747C185.545 140.942 189.923 137.452 193.731 133.388C187.571 134.534 181.561 136.38 175.82 138.893L186.006 130.266C181.164 129.792 176.281 130.595 171.846 132.596L180.84 125.729L168.919 127.551C172.777 125.778 176.629 124 180.475 122.218L169.57 124.31C176.478 119.445 185.943 122.396 193.805 125.49C200.702 128.208 207.634 130.937 213.943 134.824C222.623 140.335 230.154 147.475 236.12 155.849C238.786 159.464 241.255 163.207 243.873 166.772C245.083 168.735 246.555 170.525 248.248 172.092C249.268 172.859 253.436 174.265 253.855 175.059C252.676 172.85 250.981 170.959 248.914 169.545L253.73 170.263C251.641 168.572 249.445 167.018 247.155 165.611C249.22 165.567 251.27 165.414 253.304 165.153C251.426 163.937 249.233 163.297 246.995 163.313C246.531 163.313 245.937 163.273 245.782 162.823C245.627 162.372 246.052 161.981 246.429 161.712C246.805 161.443 249.358 158.297 249.653 158.33C244.899 158.399 240.142 158.684 235.397 159.224L249.963 152.918L232.395 156.111C238.054 153.079 243.894 150.398 249.882 148.082C244.021 148.168 238.179 148.774 232.425 149.893C238.579 147.23 244.501 144.06 250.13 140.417C242.159 141.492 234.291 143.222 226.604 145.59L248.442 133.531C239.401 134.382 230.611 136.976 222.556 141.168C230.132 136.616 237.986 132.544 246.073 128.978C237.735 131.06 229.426 133.168 221.145 135.303C228.489 131.334 236.28 128.255 244.352 126.132C234.624 125.81 224.913 127.189 215.659 130.206C222.004 127.003 228.669 124.478 235.544 122.674C227.45 121.857 219.293 123.403 211.277 124.953C217.958 121.587 224.639 118.215 231.319 114.838C222.635 116.096 214.125 118.347 205.956 121.548C212.262 117.978 218.786 114.806 225.489 112.052C217.438 113.335 209.531 115.397 201.878 118.207L219.704 110.287C212.726 110.352 205.78 111.245 199.012 112.946C206.843 110.249 214.825 108.011 222.917 106.244L202.489 107.084C210.957 106.14 219.489 105.898 227.996 106.361L216.161 100.483C220.866 102.191 225.649 103.673 230.511 104.928C227.203 103.289 224.45 100.715 222.593 97.5246C227.338 99.624 231.76 102.387 235.728 105.73C235.369 102.964 235.312 100.337 234.937 97.5732C237.435 101.803 238.883 106.569 239.16 111.474C238.825 107.826 238.489 104.187 238.151 100.556C240.455 105.576 241.908 110.945 242.449 116.443C241.946 112.413 241.945 108.336 242.444 104.306C244.813 108.784 246.127 113.743 246.289 118.806L247.057 110.429C249.782 115.647 251.198 121.448 251.184 127.334C251.192 124.119 252.198 120.986 254.064 118.367C254.152 122.497 254.923 126.589 255.043 130.714C255.164 134.84 254.424 139.261 254.159 143.474C255.267 142.446 256.475 141.531 257.765 140.743C258.433 141.419 258.313 142.505 258.164 143.437L256.223 154.823C257.417 153.833 258.62 152.851 259.813 151.861C259.961 155.415 259.661 158.973 258.92 162.452C260.265 160.898 261.793 159.513 263.472 158.327C263.879 161.211 263.873 164.139 263.453 167.021C263.845 165.516 264.814 164.227 266.151 163.432C267.942 167.942 263.243 174.309 261.524 178.43C261.267 178.87 261.103 179.358 261.039 179.864C260.975 180.37 261.015 180.883 261.154 181.374C261.213 181.53 261.306 181.672 261.426 181.79C261.545 181.907 261.689 181.997 261.847 182.054C262.494 182.236 263.063 181.633 263.414 181.07C266.117 176.702 265.761 171.325 267.384 166.638C269.006 161.951 269.661 157.566 266.19 153.418C268.535 154.861 270.468 156.884 271.803 159.292C271.801 157.421 271.388 155.572 270.592 153.878C269.797 152.184 268.638 150.686 267.199 149.489C269.739 150.464 272.035 151.983 273.927 153.937C272.473 149.056 266.059 141.622 260.289 141.885L273.041 141.312L259.578 136.286L275.135 138.315L260.723 130.92C266.383 132.789 272.308 133.729 278.268 133.703C272.572 131.941 267.214 129.233 262.418 125.692L277.682 128.459L262.747 119.598C267.908 120.685 272.941 122.313 277.761 124.454C272.333 121.29 267.445 117.278 263.284 112.57C268.351 114.29 273.248 116.475 277.913 119.097C272.31 116.115 267.284 112.155 263.074 107.405C268.513 109.026 273.65 111.525 278.282 114.803C273.577 110.463 269.236 105.744 265.305 100.693C270.023 100.595 274.602 102.299 278.109 105.457C273.014 101.543 268.501 96.924 264.707 91.7387C267.068 91.7414 269.4 92.2615 271.539 93.2624C273.677 94.2633 275.571 95.7208 277.085 97.5322L262.503 84.6689C267.394 85.3992 271.845 87.9032 275.008 91.7038L265.541 79.9136C269.52 82.2223 272.984 85.3205 275.721 89.0179C272.478 84.5717 269.544 79.9077 266.941 75.0589C272.31 78.9486 276.527 84.2163 279.149 90.3053C281.771 96.3943 282.699 103.078 281.835 109.651C283.065 106.03 283.303 102.145 282.525 98.4004C281.747 94.6557 279.98 91.1876 277.409 88.3562C281.244 91.1404 284.736 94.3694 287.811 97.9758C283.902 93.4173 280.83 88.2038 278.736 82.5757C282.541 85.8459 285.91 89.5928 288.758 93.7239C284.599 89.3551 281.721 83.9279 280.437 78.0346C284.452 80.6952 287.872 84.1603 290.479 88.2107C287.001 83.217 284.505 77.6071 283.124 71.6803C286.26 74.5952 288.935 77.9711 291.055 81.6916C287.844 77.8261 286.215 72.889 286.495 67.872C292.301 76.9568 295.446 87.4865 295.574 98.2675C296.406 94.9351 297.239 91.5996 298.075 88.2609C298.97 96.5652 297.618 104.957 294.162 112.561C296.792 107.223 300.062 102.224 303.9 97.6759C300.308 103.742 296.72 109.801 293.137 115.854C296.682 112.259 300.226 108.658 303.769 105.052C299.984 110.653 296.189 116.247 292.385 121.835C296.408 118.531 300.429 115.221 304.45 111.906C299.603 118.354 294.736 124.777 289.848 131.176C294.175 128.86 298.225 126.062 301.923 122.836C297.263 127.954 292.608 133.071 287.959 138.187C292.001 136.575 295.853 134.52 299.444 132.061C294.588 136.433 289.991 141.085 285.676 145.992L296.242 139.814C291.477 143.967 287.043 148.485 282.979 153.326C285.411 151.932 287.833 150.531 290.246 149.123C286.516 153.634 282.779 158.148 279.033 162.667L283.368 159.874C278.485 169.555 273.565 179.325 270.808 189.807C274.897 185.831 278.158 181.083 280.401 175.839C282.644 170.595 283.826 164.958 283.877 159.255C285.576 161.32 286.63 163.838 286.909 166.497C286.129 160.582 286.337 154.578 287.522 148.73C288.782 151.934 289.611 155.29 289.989 158.712C289.386 152.959 289.308 147.163 289.756 141.396L293.004 151.4C292.759 145.033 292.511 138.658 292.258 132.276L296.63 143.545L294.482 125.167L299.586 133.358C297.375 127.862 296.689 121.871 297.601 116.017C299.544 118.55 300.916 121.473 301.624 124.585C300.181 119.499 299.665 114.196 300.101 108.927C302.199 111.427 303.624 114.422 304.242 117.628C302.404 112.788 301.422 107.664 301.342 102.487L307.45 109.808C304.456 105.27 302.3 100.233 301.084 94.9349C304 95.8545 306.462 97.8399 307.978 100.495C303.998 96.0064 300.651 90.9949 298.029 85.5996C300.665 86.856 303.123 88.4549 305.34 90.355C301.229 86.519 297.857 81.962 295.389 76.9098C299.492 79.484 303.04 82.8515 305.824 86.8149C302.544 82.8673 299.948 78.399 298.143 73.595C302.418 77.2565 305.804 81.8422 308.046 87.0053C305.891 82.7389 305.125 77.9051 305.855 73.1814C309.092 80.0504 311.222 87.3877 312.168 94.9218C312.229 90.7335 313.514 86.6546 315.865 83.188C314.918 90.5712 313.085 97.8132 310.405 104.757C312.817 101.549 315.148 98.2941 317.532 95.0647C315.19 100.29 312.847 105.505 310.503 110.709C313.097 107.972 315.676 105.237 318.261 102.493L308.567 119.094L316.866 111.124C312.351 117.153 308.274 123.498 304.669 130.111C307.159 127.629 309.721 125.07 312.239 122.551C308.404 127.922 304.562 133.296 300.712 138.675C303.062 136.348 305.411 134.021 307.76 131.694L300.824 142.851C309.258 133.968 314.077 124.295 317.359 112.496C317.276 116.584 318.3 119.372 317.646 123.408C317.649 116.851 318.793 110.345 321.027 104.18C321.404 107.811 321.777 111.439 322.147 115.065C321.517 108.358 322.14 101.591 323.984 95.1114C324.498 100.044 324.647 105.007 324.432 109.961C324.703 103.098 325.528 96.2676 326.898 89.5369L329.618 102.83C329.823 97.1885 330.951 91.6187 332.957 86.3417C331.425 91.847 330.379 97.4762 329.831 103.164C332.995 97.3358 335.855 91.3472 338.399 85.2226C337.041 89.3587 335.688 93.4887 334.339 97.6125C337.829 91.7602 341.307 85.9041 344.774 80.044C343.341 85.6573 339.134 89.4763 338.005 94.8394C343.235 89.5691 348.46 84.305 353.68 79.047L342.079 95.8694C350.446 89.127 360.47 84.7536 371.105 83.2058C363.346 87.9244 356.106 93.4465 349.504 99.6806C357.315 94.6433 366.488 92.134 375.776 92.4941C366.593 94.9606 357.982 99.2011 350.428 104.976C357.036 102.251 364.245 101.318 371.329 102.271C362.877 104.184 354.618 106.872 346.659 110.299L365.386 111.548C356.824 112.075 348.384 113.84 340.329 116.789C350.021 117.166 359.671 118.269 369.198 120.088C359.987 118.652 350.572 119.301 341.646 121.988L366.539 125.941C357.34 125.012 348.048 125.734 339.103 128.073C343.977 129.621 348.983 130.717 354.057 131.347C346.681 130.657 339.242 131.486 332.198 133.782C337.477 135.591 343.032 136.461 348.611 136.353C342.201 135.267 335.639 135.465 329.306 136.934L342.965 141.005C335.831 139.752 328.499 140.277 321.615 142.531C327.78 143.836 334.014 144.787 340.288 145.378C332.339 145.519 324.459 146.885 316.926 149.426L334.293 150.495C326.69 150.438 319.14 151.777 312.02 154.446C317.706 155.496 323.473 156.048 329.255 156.097C321.847 155.504 314.398 156.531 307.427 159.107L322.697 160.514C316.724 160.474 310.771 161.21 304.987 162.701C309.216 163.736 313.527 164.403 317.871 164.694C311.03 164.883 304.248 166.022 297.721 168.08L311.206 168.406C303.274 169.596 295.722 172.594 289.133 177.168L300.039 176.368C289.95 177.492 282.93 186.481 277.093 194.749C286.831 190.582 295.995 185.185 304.361 178.689C303.473 180.488 302.582 182.271 301.701 184.062C304.343 178.307 307.013 172.53 309.709 166.729L305.991 179.899C308.394 173.442 312.202 167.6 317.138 162.793C316.021 168.436 314.151 173.904 311.579 179.049C314.897 173.349 318.229 167.629 321.575 161.891C320.276 167.415 318.616 172.848 316.606 178.155L328.977 159.633C326.81 164.999 324.649 170.37 322.495 175.746L335.759 157.619L327.443 174.009C332.393 166.89 338.193 160.4 344.713 154.685C341.577 160.145 338.462 165.626 335.37 171.129C341.101 164.523 346.831 157.917 352.562 151.311L341.295 169.677C347.17 162.647 353.056 155.615 358.952 148.582C356.356 154.723 353.215 160.62 349.568 166.201C355.21 159.406 361.714 153.377 368.916 148.264C364.222 154.508 359.559 160.775 354.927 167.065C360.441 161.816 365.956 156.571 371.471 151.332C367.812 156.489 363.853 161.427 359.615 166.119C365.444 161.838 371.798 158.323 378.522 155.66C374.502 159.721 370.299 163.581 365.913 167.24C371.869 164.215 378.453 162.632 385.134 162.619L374.728 168.642C380.125 168.458 385.524 168.957 390.796 170.126L381.956 172.813C385.85 173.249 389.598 174.549 392.926 176.618L386.757 175.769C388.588 176.831 390.174 178.266 391.414 179.981L383.556 177.325C386.12 178.86 388.182 181.106 389.493 183.791C387.414 182.895 385.544 181.574 384.006 179.912C384.713 182.085 384.853 184.403 384.412 186.644C383.972 188.886 382.965 190.978 381.488 192.722C381.71 187.886 381.464 183.041 380.755 178.252L381.233 188.234C379.239 183.197 376.734 178.377 373.759 173.85C375.356 177.556 376.945 181.266 378.527 184.981C374.846 180.793 371.422 176.386 368.272 171.786L373.716 183.309L361.66 171.43C362.937 174.857 364.734 178.067 366.986 180.949C361.979 177.307 356.618 174.181 350.982 171.618L360.103 180.143L346.076 174.533L354.561 181.492C349.115 178.773 343.425 176.575 337.565 174.928C340.004 177.688 343.015 179.882 346.389 181.358C340.103 179.882 333.722 178.848 327.292 178.264C330.072 179.933 333.295 180.57 336.358 181.553L321.862 181.279L330.347 185.205C324.973 184.58 319.539 184.668 314.187 185.465C316.19 186.702 318.453 187.459 320.797 187.677C315.058 187.632 309.336 188.32 303.771 189.725C306.132 190.467 308.6 190.811 311.074 190.745C305.434 190.816 299.814 191.454 294.302 192.65C296.105 193.461 298.078 193.824 300.052 193.707C294.093 194.299 288.275 195.88 282.836 198.384C282.369 198.599 283.16 198.628 282.689 198.869C282.233 199.571 283.541 200.032 284.363 199.866C293.153 198.072 301.746 195.423 310.019 191.955C308.169 193.22 306.309 194.478 304.465 195.733C309.731 191.883 315.31 188.479 321.143 185.557C317.997 188.66 314.506 191.392 310.739 193.701C318.809 190.187 327.141 187.308 335.658 185.09C330.922 187.529 326.189 189.965 321.458 192.397C331.3 189.564 341.515 188.239 351.755 188.468C346.496 189.299 341.327 190.622 336.316 192.421C344.303 191.836 352.698 191.325 359.961 194.695L347.807 195.283C353.894 196.536 359.745 198.74 365.146 201.815L352.416 200.852C359.065 203.223 366.294 206.06 369.661 212.277L360.153 208.032C365.364 211.92 369.438 217.133 371.953 223.129C369.066 221.36 366.586 219.001 364.675 216.207C367.212 220.635 368.184 225.788 367.436 230.836C365.952 225.903 364.171 221.065 362.102 216.348C362.787 221.382 363.291 226.433 363.611 231.503C359.388 226.759 356.68 220.862 355.834 214.568C357.181 219.019 358.09 223.591 358.548 228.218C355.892 222.816 353.566 217.258 351.582 211.575C351.794 216.251 352.362 220.904 353.282 225.493C350.764 220.647 349.071 215.416 348.271 210.014C348.209 214.383 348.498 218.75 349.136 223.073C347.184 217.481 344.58 212.138 341.379 207.155C341.783 211.974 342.843 216.716 344.528 221.249C340.588 216.861 337.64 211.675 335.886 206.044L339.066 217.143C336.571 212.984 334.23 208.742 332.043 204.418C332.256 207.659 333.372 210.776 335.265 213.415C331.973 208.206 326.985 204.293 321.142 202.334L326.532 212.54C322.482 209.701 319.079 206.035 316.549 201.784C317.618 205.378 319.422 208.711 321.847 211.572C318.096 206.459 313.096 202.395 307.324 199.769C309.659 203.705 312.713 207.167 316.326 209.976L298.408 200.991C300.771 203.229 303.532 205.004 306.549 206.225C300.875 203.451 294.549 202.29 288.26 202.868C291.312 203.82 294.502 204.256 297.697 204.157C291.873 203.791 286.029 204.39 280.4 205.929L281.92 206.012C281.66 206.455 280.448 206.85 280.703 207.303C287.234 207.639 293.779 206.963 300.104 205.299L295.361 207.902C300.226 206.256 305.367 205.584 310.491 205.923L302.726 209.824C308.623 208.776 314.585 208.128 320.57 207.883L311.431 212.319C317.302 211.072 323.199 209.966 329.121 209C326.183 211.437 322.894 213.417 319.365 214.873C324.906 213.525 330.576 212.786 336.277 212.667C332.812 214.761 329.194 216.592 325.454 218.144C332.282 216.843 339.301 216.919 346.099 218.367C342.113 219.517 338.285 221.159 334.704 223.254C341.753 222.575 348.855 222.663 355.885 223.517C352.431 224.559 348.97 225.604 345.501 226.654L360.681 227.485C362.235 227.58 364.096 227.846 364.76 229.26C361.317 229.447 357.904 230.011 354.584 230.943C359.99 231.869 365.165 233.837 369.821 236.737L360.41 236.919C365.658 238.357 370.519 240.946 374.641 244.496C372.262 244.122 369.841 244.091 367.453 244.405C370.077 244.841 372.518 246.027 374.482 247.82C376.446 249.613 377.849 251.937 378.521 254.51C376.01 251.666 373.176 249.126 370.074 246.941C373.173 250.11 375.349 254.064 376.368 258.378C374.261 256.441 372.566 254.101 371.383 251.495C372.943 255.787 373.406 260.401 372.729 264.917C370.145 261.059 368.882 256.468 369.127 251.831C369.729 257.285 368.848 262.8 366.575 267.794C365.098 263.16 364.628 258.263 365.195 253.433C365.007 258.495 363.679 263.45 361.308 267.927C361.111 262.207 361.717 256.488 363.109 250.936C361.843 255.735 359.687 260.253 356.753 264.256L361.845 248.563C360.129 252.664 357.974 256.567 355.417 260.204L361.308 245.127C359.172 248.702 357.02 252.28 354.876 255.864C356.255 251.095 357.653 246.307 359.071 241.5C357.603 246.289 355.279 250.772 352.214 254.734C353.552 249.595 354.898 244.458 356.252 239.323C355.41 243.944 353.713 248.369 351.249 252.368L353.696 236.255C352.66 241.645 350.775 246.836 348.113 251.636L349.188 236.479C348.421 241.571 346.921 246.525 344.735 251.187C344.474 245.672 344.908 240.147 346.025 234.74C345.395 240.203 343.786 245.508 341.277 250.401C341.369 245.16 341.898 239.936 342.858 234.783C342.741 239.439 341.541 244.003 339.354 248.114L339.87 230.708C339.547 236.5 338.109 242.176 335.635 247.423C336.665 241.743 337.155 235.978 337.097 230.206C336.991 233.707 336.413 237.178 335.378 240.524C334.848 242.202 333.986 243.756 332.843 245.093C331.701 246.431 330.301 247.525 328.727 248.311C332.215 243.043 334.068 236.863 334.055 230.546C333.479 236.547 331.275 242.277 327.679 247.117C329.135 241.655 330.052 236.064 330.417 230.424C329.638 235.695 328.182 240.845 326.085 245.744L327.909 228.799C327.006 233.894 325.529 238.869 323.507 243.632C323.987 237.562 324.064 231.468 323.738 225.388C322.666 229.865 321.441 234.295 320.062 238.677L318.405 224.47C317.691 228.04 316.51 231.5 314.893 234.761C313.678 230.143 313.063 225.388 313.062 220.613C312.9 224.458 312.242 228.266 311.105 231.943C310.159 227.501 309.508 223.002 309.154 218.474L308.19 224.468C306.637 221.734 305.413 218.826 304.543 215.805C304.337 217.024 303.803 218.162 302.996 219.098C301.945 216.436 300.135 214.142 297.792 212.499C295.448 210.856 292.674 209.937 289.814 209.856L301.441 221.224C307.375 227.02 313.451 233.01 316.805 240.596C320.158 248.183 320.21 257.844 314.718 264.049C315.528 258.3 316.331 252.547 317.127 246.789C315.672 251.604 313.563 256.196 310.859 260.437C311.823 255.181 312.501 249.877 312.891 244.548C311.775 248.235 310.34 251.818 308.601 255.256C308.856 250.552 308.907 245.839 308.751 241.116C307.404 244.182 306.067 247.255 304.736 250.318C305.055 244.693 304.84 239.051 304.096 233.466C302.617 236.244 301.148 239.029 299.697 241.77L299.137 228.054C298.326 230.264 297.062 232.281 295.427 233.974C295.882 231.807 295.804 229.562 295.2 227.431C294.596 225.301 293.485 223.349 291.961 221.743C290.438 220.136 288.547 218.923 286.451 218.208C284.356 217.493 282.118 217.297 279.93 217.636L302.9 232.219C307.969 235.29 312.802 238.734 317.36 242.523C328.124 251.95 335.14 264.974 340.218 278.356C342.665 284.753 344.729 291.661 343.348 298.344L341.995 286.398C343.233 291.726 342.873 297.301 340.961 302.427C340.455 297.763 340.244 293.072 340.329 288.382C340.968 294.245 339.932 300.169 337.34 305.467C337.4 300.841 337.7 296.222 338.238 291.628C337.338 298.254 335.032 304.611 331.476 310.275L335.604 297.602C332.803 300.538 329.767 303.24 326.526 305.682C329.798 301.175 333.073 296.671 336.351 292.169C332.134 296.362 327.955 300.569 323.814 304.79C326.634 299.355 329.975 294.206 333.79 289.416C329.917 292.557 326.499 296.22 323.634 300.301C326.498 294.492 329.901 288.964 333.796 283.79C329.481 287.599 325.251 291.546 321.203 295.657C324.581 289.471 328.351 283.507 332.492 277.802C327.628 281.49 323.194 285.712 319.271 290.388L329.076 274.392C325.171 277.939 321.272 281.491 317.379 285.048C319.759 279.471 322.877 274.238 326.65 269.492C322.307 272.825 318.243 276.507 314.498 280.501C317.3 275.072 320.375 269.789 323.713 264.672C318.833 267.68 314.334 271.266 310.314 275.353C313.198 270.448 316.077 265.549 318.952 260.657L308.192 271.842L315.163 258.824C312.301 261.608 309.437 264.375 306.576 267.158L313.796 252.572C310.363 256.058 306.924 259.544 303.48 263.032L308.081 249.074L299.156 256.66C300.684 251.521 301.874 246.288 302.719 240.994C299.202 242.587 296.074 244.924 293.548 247.844L298.706 235.307L291.27 243.751C292.556 240.006 293.84 236.259 295.12 232.509L288.185 240.75L291.989 231.114L288.538 236.11C288.583 233.252 287.771 230.446 286.207 228.054C284.642 225.662 282.396 223.793 279.76 222.689C278.669 223.233 278.641 224.853 279.276 225.881C280.041 226.824 280.902 227.685 281.844 228.45C283.415 230.067 284.099 232.323 285.004 234.382C287.032 239.041 290.305 243.026 293.447 247.013C302.219 258.165 310.375 270.058 315.056 283.446C319.737 296.834 320.658 311.982 315.109 325.038L315.234 313.521C315.497 318.772 314.538 324.013 312.432 328.831C312.408 324.326 312.797 319.828 313.594 315.394C312.646 321.372 310.605 327.124 307.572 332.362C308.914 327.565 310.253 322.766 311.588 317.965C308.656 323.075 305.73 328.19 302.81 333.31C305.644 325.949 308.739 318.692 312.094 311.538C308.843 316.893 305.597 322.247 302.357 327.599L311.152 305.649C308.117 311.437 303.638 316.344 298.15 319.894C302.851 314.931 306.625 309.166 309.292 302.872C305.42 307.805 300.968 312.255 296.033 316.126C300.881 310.825 304.612 304.601 307.003 297.827C303.768 303.017 299.859 307.756 295.379 311.919C299.846 305.641 303.222 298.656 305.368 291.257L294.054 304.377C297.259 297.959 300.08 291.356 302.503 284.604C299.289 288.081 296.08 291.565 292.874 295.057L301.998 277.244L290.556 290.978C294.22 284.811 297.321 278.326 299.823 271.603C296.08 275.901 292.334 280.201 288.586 284.505C291.925 278.457 294.823 272.177 297.257 265.712L288.132 278.198C290.84 272.316 293.146 266.257 295.031 260.062C291.971 263.566 288.929 267.046 285.906 270.502L291.866 251.761L283.642 261.253C285.476 256.575 287.313 251.898 289.152 247.224C286.902 250.09 284.659 252.951 282.423 255.809C282.987 251.218 284.029 246.7 285.534 242.327L281.503 249.311C286.606 242.175 284.505 230.973 277.15 226.141C282.669 245.52 287.41 265.097 291.372 284.872C292.36 289.794 293.301 294.914 292.163 299.806L289.681 292.817C291.386 299.419 292.235 306.213 292.206 313.031C290.586 310.799 289.809 308.065 290.011 305.314C292.077 312.735 292.086 320.578 290.036 328.003C288.746 323.524 288.059 318.893 287.994 314.233C289.048 322.225 287.806 330.353 284.413 337.665C284.009 333.601 284.424 329.496 285.635 325.595C283.124 331.566 280.092 337.305 276.574 342.745C277.781 340.212 278.951 337.652 280.186 335.141C277.238 338.099 274.042 340.8 270.634 343.214C274.337 337.709 277.634 331.941 280.5 325.958L270.095 337.25C273.958 331.358 277.479 325.249 280.643 318.953C276.581 321.536 272.859 324.619 269.565 328.129C273.212 323.469 276.548 318.573 279.551 313.474C276.78 315.629 274.011 317.775 271.242 319.913C276.377 312.584 278.558 303.588 277.35 294.722C276.645 309.322 272.121 323.482 264.229 335.787C266.173 332.042 267.956 328.211 269.576 324.291C266.656 327.664 263.387 330.719 259.824 333.403C262.491 329.662 265.311 326.039 268.284 322.536C264.195 323.548 260.288 325.189 256.703 327.4C261.225 323.564 265.266 319.194 268.736 314.385C264.567 317.768 260.264 321.079 255.931 324.179C261.644 319.417 266.07 313.298 268.803 306.381C264.74 309.945 260.689 313.513 256.649 317.084C259.974 310.692 263.301 304.291 266.629 297.882C263.304 301.584 259.99 305.285 256.686 308.984C260.496 302.779 263.648 296.193 266.089 289.334C262.57 293.113 259.328 297.142 256.388 301.388C260.038 294.795 263.683 288.202 267.322 281.611L257.314 293.187C261.34 287.077 264.615 280.504 267.067 273.611L255.876 286.257C259.131 279.289 262.67 272.458 266.493 265.763C262.363 270.094 258.54 274.708 255.053 279.572C259.022 271.912 262.99 264.252 266.958 256.592C262.384 260.723 258.311 265.377 254.822 270.458C258.649 263.931 261.724 256.991 263.987 249.772C261.526 253.65 259.056 257.521 256.577 261.385C258.609 254.064 261.102 246.878 264.042 239.871C262.137 243.509 259.78 246.891 257.026 249.938L262.12 232.157C259.097 236.038 256.084 239.922 253.084 243.81C255.791 238.24 258.494 232.663 261.193 227.077C257.787 230.544 254.83 234.426 252.391 238.631C253.841 236.702 258.826 231.654 257.901 229.043C257.434 227.734 256.452 227.591 255.287 228.08Z" fill="#0C4C60"/>
</svg>
