<svg width="24" height="24" viewBox="0 0 24 24" fill="none" xmlns="http://www.w3.org/2000/svg">
<path d="M21.9383 0.0947959C22.9315 0.293987 23.708 1.07043 23.9072 2.06367C24.0494 2.77535 24.029 3.50995 23.8477 4.21267C23.6663 4.91538 23.3286 5.56807 22.8597 6.12203L19.132 10.5286L21.7662 20.1914C21.8448 20.4796 21.8459 20.7833 21.7693 21.072C21.6926 21.3607 21.541 21.6239 21.3299 21.8351L19.5656 23.5994C19.4158 23.7491 19.2332 23.862 19.0324 23.9293C18.8315 23.9965 18.6178 24.0162 18.408 23.9867C18.1982 23.9573 17.9981 23.8796 17.8235 23.7597C17.6489 23.6398 17.5044 23.481 17.4016 23.2958L13.346 15.9962L8.93122 19.0518V20.1183C8.93122 20.5668 8.75236 20.999 8.43528 21.3161L6.15474 23.5953C5.98978 23.7605 5.78531 23.8807 5.56078 23.9445C5.33625 24.0084 5.09911 24.0138 4.87192 23.9601C4.64474 23.9065 4.43504 23.7956 4.26278 23.6381C4.09052 23.4806 3.96142 23.2816 3.88775 23.0601L3.15061 20.85L0.940535 20.1128C0.719029 20.0392 0.520047 19.9101 0.362509 19.7378C0.20497 19.5656 0.0941113 19.3559 0.0404715 19.1287C-0.0131684 18.9015 -0.00780604 18.6644 0.0560488 18.4398C0.119904 18.2153 0.240128 18.0108 0.405293 17.8459L2.68583 15.5653C2.84315 15.408 3.0299 15.2833 3.23543 15.1982C3.44096 15.1131 3.66124 15.0693 3.88369 15.0694H4.95011L8.00573 10.6546L0.706112 6.599C0.520924 6.49616 0.362136 6.35174 0.242247 6.17711C0.122359 6.00247 0.0446439 5.80239 0.0152205 5.59262C-0.0142029 5.38285 0.00546869 5.16911 0.0726865 4.96823C0.139904 4.76735 0.252833 4.58482 0.402583 4.435L2.16685 2.67073C2.37803 2.45955 2.6413 2.30797 2.92995 2.23134C3.21861 2.15471 3.5224 2.15577 3.81051 2.23441L13.472 4.86861L17.8799 1.14089C18.4339 0.672022 19.0866 0.334305 19.7893 0.152936C20.492 -0.0284324 21.2266 -0.0474153 21.9383 0.0947959Z" fill="black"/>
</svg>
