<svg width="22" height="24" viewBox="0 0 22 24" fill="none" xmlns="http://www.w3.org/2000/svg">
<path d="M19.6004 21.6H2.80039V8.4H19.6004M16.0004 0V2.4H6.40039V0H4.00039V2.4H2.80039C1.46839 2.4 0.400391 3.468 0.400391 4.8V21.6C0.400391 22.2365 0.653247 22.847 1.10333 23.2971C1.55342 23.7471 2.16387 24 2.80039 24H19.6004C20.2369 24 20.8474 23.7471 21.2974 23.2971C21.7475 22.847 22.0004 22.2365 22.0004 21.6V4.8C22.0004 4.16348 21.7475 3.55303 21.2974 3.10294C20.8474 2.65286 20.2369 2.4 19.6004 2.4H18.4004V0M17.2004 13.2H11.2004V19.2H17.2004V13.2Z" fill="black"/>
</svg>
