<svg width="12" height="12" viewBox="0 0 12 12" fill="none" xmlns="http://www.w3.org/2000/svg">
<path d="M0.292893 10.1924C-0.0976311 10.583 -0.0976311 11.2161 0.292893 11.6066C0.683418 11.9972 1.31658 11.9972 1.70711 11.6066L0.292893 10.1924ZM11.8995 1.00004C11.8995 0.447756 11.4518 4.11048e-05 10.8995 4.15263e-05L1.89949 4.16527e-05C1.34721 4.13156e-05 0.899495 0.447756 0.899495 1.00004C0.899495 1.55233 1.34721 2.00004 1.89949 2.00004L9.8995 2.00004L9.89949 10C9.89949 10.5523 10.3472 11 10.8995 11C11.4518 11 11.8995 10.5523 11.8995 10L11.8995 1.00004ZM1.70711 11.6066L11.6066 1.70715L10.1924 0.292935L0.292893 10.1924L1.70711 11.6066Z" fill="url(#paint0_linear_55_231)"/>
<defs>
<linearGradient id="paint0_linear_55_231" x1="5.94975" y1="5.94979" x2="6.65685" y2="6.6569" gradientUnits="userSpaceOnUse">
<stop stop-color="white"/>
<stop offset="1" stop-color="white"/>
</linearGradient>
</defs>
</svg>
