<svg width="24" height="24" viewBox="0 0 24 24" fill="none" xmlns="http://www.w3.org/2000/svg">
<path d="M12 0C5.37262 0 0 5.24713 0 11.7197C0 18.1926 5.37262 23.4394 12 23.4394C18.6278 23.4394 24 18.1926 24 11.7197C24 5.24713 18.6278 0 12 0ZM12 21.9975C6.21038 21.9975 1.5 17.3741 1.5 11.7197C1.5 6.06527 6.21038 1.46492 12 1.46492C17.7896 1.46492 22.5 6.06529 22.5 11.7197C22.5 17.374 17.7896 21.9975 12 21.9975ZM17.25 10.9872H12.75V6.59234C12.75 6.18801 12.414 5.85985 12 5.85985C11.586 5.85985 11.25 6.18801 11.25 6.59234V10.9872H6.75C6.336 10.9872 6 11.3154 6 11.7197C6 12.124 6.336 12.4522 6.75 12.4522H11.25V16.8471C11.25 17.2514 11.586 17.5796 12 17.5796C12.414 17.5796 12.75 17.2514 12.75 16.8471V12.4522H17.25C17.664 12.4522 18 12.124 18 11.7197C18 11.3154 17.664 10.9872 17.25 10.9872Z" fill="url(#paint0_linear_55_220)"/>
<defs>
<linearGradient id="paint0_linear_55_220" x1="12" y1="0" x2="12" y2="23.4394" gradientUnits="userSpaceOnUse">
<stop stop-color="#FDF4C9"/>
<stop offset="1" stop-color="#FDF6CC"/>
</linearGradient>
</defs>
</svg>
