<svg xmlns="http://www.w3.org/2000/svg" version="1.1" xmlns:xlink="http://www.w3.org/1999/xlink" xmlns:svgjs="http://svgjs.com/svgjs" width="36" height="36"><svg width="36" height="36" viewBox="0 0 36 36" fill="none" xmlns="http://www.w3.org/2000/svg">
<path d="M21.9783 20.424C21.9269 19.646 21.8445 18.8704 21.7313 18.099C21.3755 15.7234 20.7428 13.3975 19.8463 11.169C19.3193 9.87001 18.9032 9.12601 18.9032 9.12601L15.2902 9.59201C15.2902 9.59201 15.7073 10.462 16.1583 12.167C16.3413 12.859 16.5292 13.691 16.6982 14.662C16.7842 15.152 16.8643 15.674 16.9363 16.235C17.0363 17.016 17.1192 17.867 17.1782 18.784C17.2122 19.302 17.2363 19.842 17.2523 20.403C17.2583 20.607 17.2673 20.804 17.2703 21.014C17.2765 21.6789 17.2371 22.3435 17.1523 23.003C17.0783 23.603 16.9702 24.2 16.8412 24.792C16.6584 25.6274 16.4348 26.4534 16.1712 27.267C15.9702 27.8863 15.7518 28.4999 15.5162 29.107C15.1722 29.998 14.8263 30.799 14.5273 31.466C14.0253 32.585 13.6562 33.329 13.6562 33.484C13.6562 33.974 14.0062 34.892 16.4532 35.504C20.2802 36.46 20.6493 34.883 20.6493 34.883C20.6493 34.883 20.8922 34.145 21.1752 32.691C21.3152 31.973 21.4643 31.086 21.5993 30.013C21.6803 29.371 21.7552 28.665 21.8212 27.897C21.9584 26.2792 22.0318 24.6566 22.0413 23.033C22.0433 22.787 22.0492 22.549 22.0492 22.296C22.0492 21.656 22.0193 21.035 21.9783 20.424Z" fill="#C1694F"></path>
<path d="M18.3053 30.068C16.9023 29.824 16.0073 29.415 15.5163 29.109C15.1723 30 14.8263 30.801 14.5273 31.468C15.4433 31.967 16.6063 32.363 17.8683 32.582C18.5973 32.709 19.3203 32.773 19.9993 32.773C20.4133 32.773 20.8023 32.74 21.1753 32.693C21.3153 31.975 21.4643 31.088 21.5993 30.015C21.1553 30.172 20.0513 30.372 18.3053 30.068ZM19.3653 25.395C18.2723 25.287 17.4313 25.047 16.8403 24.793C16.6575 25.6284 16.4339 26.4544 16.1703 27.268C17.0343 27.594 18.0513 27.829 19.1153 27.934C19.5443 27.976 19.9703 27.998 20.3853 27.998C20.8873 27.998 21.3633 27.959 21.8203 27.899C21.8883 27.099 21.9453 26.232 21.9853 25.294C21.3573 25.429 20.4763 25.504 19.3653 25.395ZM19.6743 23.262C20.4963 23.262 21.3043 23.179 22.0403 23.034C22.0423 22.788 22.0483 22.55 22.0483 22.297C22.0483 21.656 22.0193 21.035 21.9773 20.424C21.4483 20.562 20.6923 20.696 19.6253 20.71C18.5413 20.705 17.7783 20.555 17.2513 20.404C17.2573 20.608 17.2663 20.805 17.2693 21.015C17.2756 21.6799 17.2362 22.3445 17.1513 23.004C17.9143 23.165 18.7563 23.257 19.6123 23.261L19.6743 23.262ZM19.4253 18.685C20.2107 18.5662 20.9824 18.3703 21.7293 18.1C21.6031 17.2559 21.4413 16.4175 21.2443 15.587C20.7483 15.791 20.0453 16.018 19.0633 16.159C18.3592 16.2686 17.6446 16.2944 16.9343 16.236C17.0343 17.017 17.1173 17.868 17.1763 18.785C17.3283 18.791 17.4663 18.814 17.6223 18.814C18.2103 18.815 18.8223 18.771 19.4253 18.685ZM20.6963 13.569C20.4462 12.7574 20.1619 11.9567 19.8443 11.169C19.2884 11.4452 18.7066 11.6659 18.1073 11.828C17.471 12.0106 16.817 12.1243 16.1563 12.167C16.3393 12.859 16.5273 13.691 16.6963 14.662C17.4038 14.5968 18.1044 14.471 18.7903 14.286C19.4693 14.098 20.1003 13.846 20.6963 13.569Z" fill="#D99E82"></path>
<path d="M32.6104 4.30501C32.5664 4.24401 28.1304 -1.68899 22.3764 0.915006C19.7954 2.08201 18.1294 3.98901 17.5254 6.45001C16.4004 4.88201 14.6904 3.88501 12.4324 3.48201C6.2334 2.37601 2.5074 9.25001 2.4704 9.32001C2.4164 9.42201 2.4394 9.54901 2.5264 9.62501C2.6134 9.70101 2.7434 9.70601 2.8374 9.64001C2.8654 9.62001 5.6834 7.64701 10.3804 8.48301C15.1814 9.33701 18.5474 10.177 18.5814 10.185C18.625 10.1956 18.6707 10.1944 18.7137 10.1816C18.7568 10.1688 18.7957 10.1447 18.8264 10.112C18.8584 10.077 22.0464 6.65201 24.9794 5.32501C29.3184 3.36401 32.2774 4.66601 32.3054 4.67901C32.3559 4.70167 32.4124 4.70709 32.4662 4.69444C32.5201 4.68179 32.5683 4.65177 32.6034 4.60901C32.6385 4.56645 32.6582 4.51335 32.6595 4.45822C32.6608 4.40309 32.6435 4.34913 32.6104 4.30501Z" fill="#3E721D"></path>
<path d="M27.8846 7.63C23.4796 5.302 20.0356 6.437 17.8896 7.85C15.3146 7.363 10.5556 7.391 6.52555 12.557C1.54255 18.944 5.90755 26.899 5.95255 26.979C5.98935 27.0435 6.04443 27.0957 6.11085 27.1289C6.17726 27.1622 6.25204 27.175 6.32574 27.1658C6.39944 27.1566 6.46877 27.1258 6.52498 27.0773C6.58118 27.0287 6.62175 26.9646 6.64155 26.893C6.65655 26.839 8.16855 21.373 11.9916 16.775C14.0656 14.279 16.5416 11.969 18.2996 10.435C20.0616 10.733 22.6266 11.382 25.1456 12.789C30.1036 15.562 32.3796 20.255 32.4026 20.302C32.4356 20.3726 32.4899 20.431 32.5579 20.469C32.6259 20.5071 32.7041 20.5228 32.7816 20.514C32.8587 20.5054 32.9313 20.4733 32.9894 20.4219C33.0476 20.3705 33.0885 20.3025 33.1066 20.227C33.1266 20.139 35.0746 11.427 27.8846 7.63Z" fill="#5C913B"></path>
</svg><style>@media (prefers-color-scheme: light) { :root { filter: none; } }
@media (prefers-color-scheme: dark) { :root { filter: none; } }
</style></svg>