<svg width="690" height="749" viewBox="0 0 690 749" fill="none" xmlns="http://www.w3.org/2000/svg">
<path d="M418.117 482.973C390.383 523.576 344.415 548.645 313.933 587.291C301.148 603.489 289.887 622.992 270.328 630.047C266.912 631.309 262.133 631.619 260.286 628.433C259.159 626.45 259.764 623.974 260.599 621.885C264.37 612.51 272.044 605.334 279.483 598.525C322.989 558.575 366.495 518.63 410.003 478.69C411.029 477.877 411.859 476.847 412.433 475.674C414.474 470.598 407.416 467.226 403.483 466.573C397.199 465.506 391.27 466.072 386.116 470.039C381.58 473.531 378.527 478.57 376.119 483.75C377.667 478.925 379.546 474.216 381.742 469.655C378.491 475.642 374.878 481.425 370.923 486.974C372.768 482.449 374.591 477.902 376.391 473.333C372.789 480.362 368.476 487.002 363.518 493.153C365.964 487.618 367.804 481.831 369.009 475.89C365.667 482.222 362.317 488.558 358.961 494.899C360.805 487.92 363.074 481.065 365.758 474.371L353.838 494.128C356.537 487.234 359.231 480.342 361.92 473.45C357.1 479.981 352.735 486.834 348.855 493.962C350.818 487.145 354.347 480.922 357.796 474.742C352.453 483.202 347.115 491.662 341.782 500.12C342.717 492.566 346.15 485.62 349.527 478.835C345.169 486.631 340.97 494.522 336.93 502.509C338.495 494.767 340.367 487.096 342.545 479.496C339.261 485.805 336.567 492.405 334.497 499.217C336.105 492.855 337.728 486.498 339.366 480.146C335.585 487.264 332.019 494.495 328.668 501.838C329.888 495.416 331.355 489.047 333.068 482.731C329.927 489.185 327.005 495.744 324.302 502.41C324.421 495.81 326.273 489.396 328.118 483.081C324.459 490.16 320.792 497.243 317.118 504.33C317.661 497.806 318.952 491.376 320.968 485.166C317.111 491.935 313.712 498.956 310.796 506.185C311.365 499.977 312.706 493.875 314.788 488.018C311.5 493.366 308.209 498.725 304.915 504.097C306.291 499.113 308.109 494.266 310.348 489.613C306.115 494.678 301.885 499.74 297.656 504.799C299.278 500.312 301.443 496.045 304.104 492.088C299.023 497.649 293.856 503.288 287.373 507.17C293.415 498.699 301.145 491.558 310.098 486.178C304.782 487.898 299.306 489.114 293.744 489.812C300.675 487.366 307.751 485.325 314.936 483.703C309.6 483.22 304.164 482.703 299.161 480.701L325.433 479.415L310.142 473.279L332.219 476.46L316.936 469.168C323.888 470.843 330.882 472.208 337.916 473.264L324.761 466.162L345.179 471.521C340.473 469.458 336.053 466.791 332.033 463.59L352.032 468.632C348.797 466.548 345.747 464.19 342.919 461.584L359.29 465.687C356.299 464.333 353.664 462.297 351.605 459.748C356.908 461.859 362.332 463.647 367.846 465.102C365.442 462.41 362.825 459.912 360.022 457.633L372.946 463.775C370.856 461.756 369.349 459.22 368.585 456.44C371.614 458.664 374.839 460.61 378.219 462.252L376.24 455.741C378.611 458.048 381.199 460.124 383.967 461.941C383.748 460.61 383.514 459.282 383.285 457.946C385.172 458.315 385.888 461.001 387.771 461.356C388.437 461.42 389.106 461.334 389.728 461.103C394.191 459.842 398.935 459.821 403.45 461.041C407.277 462.177 410.259 464.406 414.171 461.684C414.737 461.296 415.265 460.442 414.729 459.988C414.215 460.356 413.455 459.702 413.49 459.072C413.617 458.448 413.973 457.897 414.49 457.525L410.151 460.119C411.004 458.705 411.822 457.218 412.644 455.811C410.901 456.625 409.301 457.704 407.901 459.009C408.141 457.929 408.381 456.849 408.625 455.785C407.222 454.391 403.067 458.882 402.345 459.814C404.329 456.855 406.304 453.889 408.289 450.93C405.395 453.943 401.708 456.096 397.632 457.154C399.832 454.233 402.036 451.328 404.236 448.407C399.49 452.108 394.261 455.162 388.684 457.489C391.637 453.928 394.418 450.228 397.026 446.389C392.263 449.884 387.499 453.381 382.732 456.882L391.457 444.972C386.421 449.643 381.064 453.965 375.424 457.907C378.75 453.407 382.083 448.902 385.422 444.393C380.277 450.038 374.691 455.273 368.716 460.05C371.562 455.686 374.404 451.319 377.243 446.951L361.07 460.559C363.975 455.744 366.905 450.939 369.859 446.145C364.412 451.364 358.565 456.157 352.37 460.483C355.688 455.848 358.996 451.215 362.294 446.585C355.385 452.39 348.474 458.185 341.56 463.969C345.1 458.774 349.134 453.929 353.606 449.501C347.149 454.222 341.226 459.616 335.935 465.592C341.088 457.052 346.576 448.283 354.929 442.754C363.244 437.489 373.288 435.512 383.106 437.21C392.873 438.963 401.992 443.39 409.428 449.988C409.13 447.137 406.983 444.8 404.727 442.996C393.555 434.08 376.479 433.499 364.99 441.631L374.26 431.743C368.89 435.453 363.534 439.124 358.193 442.756C360.392 438.874 362.993 435.234 365.954 431.893C360.735 435.572 355.569 439.318 350.455 443.13C353.635 438.812 356.809 434.489 359.977 430.163C355.348 434.008 350.33 437.373 345 440.204L353.188 427.579C347.774 430.802 342.361 434.026 336.948 437.249C340.004 433.151 343.059 429.048 346.113 424.939C340.784 428.214 335.447 431.479 330.103 434.736L340.435 422.009L325.567 432.729L333.35 423.26C327.284 426.993 321.401 430.988 315.7 435.246C319.053 431.257 322.4 427.278 325.742 423.309C320.559 426.428 315.484 429.708 310.515 433.148C313.656 428.809 317.542 425.055 321.999 422.054C318.792 421.584 315.53 421.871 312.481 422.893L326.48 418.125C323.27 418.315 320.053 417.643 317.167 416.181L334.136 417.05L326.059 409.297L344.7 415.005L341.978 407.902C346.524 410.499 350.777 413.58 354.658 417.09L351.238 410.284C355.497 412.775 359.467 415.729 363.073 419.091C361.407 416.82 360.425 414.134 360.243 411.351C363.913 414.082 367.377 417.077 370.605 420.312C370.019 417.988 370.038 415.565 370.659 413.269L379.988 424.8C380.012 422.356 380.615 419.962 381.75 417.81C384.237 421.425 386.486 425.193 388.482 429.091C388.611 427.865 388.73 426.634 388.859 425.409C389.455 427.918 391.829 429.572 393.99 431.006C404.594 438.003 415.255 446.115 420.419 457.596L417.245 445.257C417.009 443.99 416.516 442.779 415.796 441.698C412.867 437.951 406.973 440.285 402.238 439.774L410.025 434.412L396.839 438.185C399.716 435.968 402.6 433.755 405.49 431.546L392.721 437.993C395.473 434.546 398.232 431.102 400.997 427.662L390.626 434.293L399.216 424.894L386.773 432.738C389.632 429.085 392.496 425.422 395.366 421.75L382.637 428.835C385.596 425.208 388.549 421.581 391.496 417.956C387.311 420.511 383.277 423.298 379.413 426.304L389.423 414.464C384.657 417.392 379.886 420.313 375.111 423.226C377.733 419.804 380.352 416.38 382.967 412.954L368.995 421.726C371.144 417.455 373.79 413.454 376.879 409.802C372.127 412.061 367.681 414.893 363.642 418.236L371.43 407.923C366.588 409.982 361.936 412.446 357.524 415.287C359.8 412.217 362.081 409.163 364.387 406.11L350.484 413.008C353.15 409.865 355.813 406.719 358.473 403.572L342.541 411.786C345.494 408.443 348.807 405.431 352.421 402.801L336.618 409.373C340.524 405.895 344.968 403.057 349.787 400.964C346.753 401.721 343.555 401.635 340.54 400.715L362.493 397.019C357.539 396.324 352.7 394.928 348.125 392.873C354.331 391.804 360.723 392.154 366.819 393.895C362.94 392.741 359.235 391.054 355.813 388.885C362.199 389.572 368.517 390.848 374.682 392.697C370.272 390.663 366.153 388.047 362.439 384.92C368.603 387.023 374.67 389.432 380.641 392.148C376.613 389.452 373.187 385.956 370.586 381.887C377.366 385.314 383.499 389.897 388.701 395.421C386.248 391.544 384.524 387.267 383.613 382.8L393.858 398.819C393.23 395.269 392.588 391.72 391.933 388.171C396.222 393.768 399.48 400.063 401.556 406.76C400.863 403.455 400.587 400.084 400.734 396.725L411.304 424.107C411.628 423.13 411.958 422.143 412.292 421.172L423.535 455.006C423.683 448.292 423.16 441.569 421.973 434.935C421.152 430.4 419.958 425.758 417.147 422.056C414.337 418.354 409.538 415.771 405.025 416.762C408.617 414.761 412.878 414.242 416.901 415.314L400.461 409.917L413.01 408.783L395.355 407.358C399.037 406.17 402.839 405.368 406.701 404.964L387.295 406.991C391.81 404.541 396.549 402.511 401.453 400.925L380.682 401.672C385.129 399.763 389.872 398.589 394.725 398.195C389.326 396.32 383.757 394.995 378.105 394.241C383.107 393.594 388.156 393.313 393.212 393.399C388.77 392.129 384.728 389.717 381.5 386.412L396.648 390.651C392.932 387.289 389.843 383.303 387.529 378.882C392.611 382.69 397.437 386.825 401.975 391.258C400.057 388.448 398.952 385.179 398.781 381.813C402.524 386.981 405.427 392.69 407.383 398.73L408.515 390.956C409.767 395.907 411.024 400.856 412.285 405.805L413.403 393.657C414.979 399.899 415.804 406.294 415.86 412.705C416.741 410.63 417.631 408.561 418.511 406.485L419.501 420.948C421.022 417.591 422.533 414.228 424.054 410.872C424.043 416.946 423.822 422.989 423.39 429.001C424.412 425.393 425.733 421.88 427.338 418.496L426.142 436.252C427.628 433.239 429.104 430.22 430.59 427.207C429.975 435.925 428.911 444.599 427.401 453.195C430.183 450.744 432.328 447.665 433.661 444.21C434.995 440.755 435.478 437.022 435.073 433.318C434.667 429.614 433.384 426.044 431.327 422.9C429.271 419.756 426.5 417.127 423.243 415.23C426.952 415.191 430.657 415.671 434.248 416.657C429.967 413.772 425.471 411.221 420.8 409.026C425.28 408.109 429.876 407.813 434.459 408.145C430.101 408.099 425.756 407.53 421.519 406.45C425.727 404.731 430.167 403.607 434.709 403.11C430.216 402.822 425.712 402.926 421.249 403.42C425.721 402.457 430.071 401.028 434.227 399.157L419.785 400.061C423.379 397.77 427.112 395.696 430.963 393.852L417.303 398.016C421.228 395.25 425.158 392.483 429.093 389.714L414.656 395.781C418.55 393.321 422.082 390.346 425.156 386.935L410.168 395.015L419.678 385.389C413.99 387.648 408.443 390.232 403.064 393.127L413.068 384.333C406.761 387 400.516 389.813 394.333 392.772C398.742 389.542 403.144 386.308 407.539 383.07C403.186 384.208 398.9 385.577 394.7 387.169L407.463 381.656L398.743 380.513C403.132 380.796 407.53 380.534 411.835 379.733L404.469 376.214C409.446 377.04 414.33 378.383 419.039 380.222C416.191 378.838 413.893 376.532 412.534 373.691C416.486 376.059 420.232 378.755 423.732 381.749C421.875 379.052 421.075 375.786 421.488 372.577L429.538 385.083C428.876 382.159 428.944 379.131 429.736 376.263C431.007 380.556 431.8 384.967 432.1 389.417L435.519 380.912C435.78 384.988 435.469 389.072 434.595 393.046L439.794 385.485L437.778 399.123L443.62 391.089C442.338 395.268 441.058 399.443 439.78 403.615C441.872 402.4 443.689 400.774 445.119 398.835L441.932 409.265C444.668 406.798 445.765 402.912 445.54 399.193C445.516 397.46 445.144 395.743 444.446 394.142C443.748 392.542 442.737 391.091 441.474 389.873C438.871 387.586 434.682 386.831 431.799 388.727C434.411 387.764 436.935 386.589 439.347 385.215C436.192 384.579 432.966 384.435 429.783 384.787C432.685 383.773 435.473 382.474 438.108 380.91L425.397 382.598C428.69 381.123 431.814 379.308 434.716 377.182C430.338 377.971 426.036 379.106 421.852 380.576L431.466 373.88C426.43 374.675 421.556 376.219 417.008 378.462C419.599 376.468 421.819 374.044 423.575 371.295C420.037 372.951 416.646 374.893 413.436 377.102L417.368 370.913C413.499 372.99 409.985 375.653 406.952 378.807C408.428 376.361 409.903 373.915 411.373 371.479C408.081 373.636 404.783 375.795 401.48 377.955C404.233 375.168 406.993 372.381 409.762 369.595L398.896 373.373C402.486 370.938 406.387 368.981 410.503 367.553L397.419 367.856C401.867 367.343 406.261 366.487 410.564 365.296C406.812 365.278 403.116 364.279 399.847 362.402C406.568 361.66 413.367 361.711 420.102 362.554L410.13 355.235C415.713 356.595 421.054 358.831 425.949 361.86C423.891 358.903 422.353 355.626 421.402 352.171C425.13 355.626 428.575 359.37 431.704 363.364C429.792 359.399 428.727 355.095 428.577 350.728L435.488 364.683C433.89 360.45 433.022 355.992 432.918 351.496C434.675 357.187 436.058 362.978 437.057 368.835L438.615 353.317L440.036 372.235C441.733 367.795 443.431 363.367 445.129 358.954C445.584 364.969 445.553 371.002 445.034 376.996L451.135 364.376C450.519 370.832 449.63 377.254 448.443 383.6C450.629 379.316 452.812 375.03 454.992 370.742C453.649 376.41 451.937 381.98 449.869 387.419L456.986 375.424L451.777 392.857L458.218 384.624L453.229 399.493C455.467 397.428 457.536 395.191 459.417 392.801C457.64 395.995 455.865 399.193 454.092 402.397C457.331 398.788 460.454 394.886 461.859 390.248C463.264 385.609 462.623 380.05 459.116 376.579L463.3 375.715C459.892 375.035 456.713 373.469 454.093 371.177L463.84 371.102C459.159 369.255 454.339 367.79 449.428 366.721C453.131 366.494 456.855 366.776 460.496 367.56L445 363.502L457.464 365.04C453.124 362.853 449.078 360.123 445.427 356.919L457.334 362.395C453.485 359.374 450.288 355.614 447.94 351.346L458.775 358.378C455.877 354.905 453.31 351.175 451.109 347.237C455.311 349.748 459.106 352.881 462.36 356.527C461.277 352.955 460.001 348.888 458.767 345.368C462.172 349.362 464.455 354.167 465.38 359.287L466.904 344.882C468.681 350.137 469.54 355.64 469.444 361.153C470.471 356.899 471.497 352.639 472.521 348.375C473.017 354.078 473.021 359.804 472.534 365.492L477.021 351.585C476.584 357.309 475.754 362.991 474.539 368.591L480.47 355.725C479.663 361.44 478.21 367.036 476.138 372.41C479.294 368.102 482.455 363.794 485.621 359.484C483.73 366.578 480.25 373.118 476.804 379.6C479.792 375.765 483.035 372.132 486.51 368.725C483.373 373.594 480.497 378.627 477.892 383.801C481.072 380.275 484.608 377.082 488.446 374.271C485.287 378.686 482.419 383.302 479.858 388.089C482.684 385.01 485.804 382.211 489.176 379.728C484.698 383.669 480.738 388.151 477.383 393.072C479.741 390.329 482.632 388.087 485.888 386.475L472.348 400.12C472.118 400.346 471.771 400.593 471.494 400.413C471.218 400.233 471.852 399.821 471.78 400.116C478.811 397.096 485.641 393.65 492.234 389.795C485.703 394.688 479.614 400.129 474.032 406.062C478.016 402.687 482.706 400.221 487.776 398.834C482.28 402.798 477.059 407.123 472.149 411.78L484.318 407.185C477.871 410.733 472.02 415.239 466.965 420.549C471.284 417.298 476.163 414.841 481.376 413.293C473.303 418.929 466.221 425.832 460.402 433.738C468.396 427.615 477.471 421.571 485.654 415.705L478.105 423.204C485.681 416.455 494.405 411.083 503.887 407.328C498.808 409.959 494.092 413.216 489.849 417.024C498.332 411.179 507.827 406.907 517.885 404.41C513.368 406.837 508.979 409.479 504.715 412.336C510.997 410.248 517.678 409.525 524.311 410.215L509.832 414.745C514.631 414.754 519.401 415.651 523.896 417.392L512.608 418.284C517.882 420.541 523.893 423.58 525.193 429.147L519.538 425.892C521.941 429.81 523.265 434.273 523.375 438.826L519.817 429.148C520.146 432.929 519.964 436.729 519.278 440.447C517.262 436.086 515.801 431.501 514.93 426.799L515.582 437.005C513.19 433.09 511.132 428.989 509.427 424.744L512.136 434.378C509.415 430.513 506.544 426.744 503.522 423.07C503.699 424.464 504.195 425.803 504.972 426.986C505.75 428.169 506.788 429.164 508.006 429.893C505.917 427.529 503.358 425.618 500.494 424.283C497.63 422.948 494.525 422.219 491.38 422.143L502.262 428.305C496.421 426.144 490.051 425.97 484.164 427.811L496.515 431.209C488.987 430.546 481.42 430.972 474.052 432.474L483.749 432.108C477.385 432.336 471.252 434.376 466.081 437.986C470.772 435.943 475.886 434.988 481.04 435.191C474.054 436.1 467.531 439.049 462.297 443.664L479.534 438.061C484.16 436.36 488.975 435.191 493.887 434.576C498.522 434.161 503.209 434.731 507.635 436.25L493.173 438.575C498.731 438.825 504.229 439.943 509.463 441.888C505.597 441.658 501.726 442.012 497.986 442.938C502.544 444.1 506.975 445.729 511.206 447.799L499.54 447.798L512.124 452.68L499.016 451.352C500.889 452.827 503.195 453.649 505.569 453.69L497.843 454.241C501.046 454.768 504.048 456.177 506.505 458.307C508.962 460.438 510.775 463.202 511.735 466.283C515.118 466.039 518.528 466.389 521.808 467.318C523.447 467.794 524.976 468.595 526.303 469.671C527.63 470.747 528.726 472.076 529.526 473.576C525.155 471.594 520.486 470.36 515.722 469.926C520.08 471.417 524.163 473.629 527.795 476.467C529.954 478.148 532.098 481.148 530.472 483.295C528.324 480.435 525.729 477.932 522.786 475.882C525.418 480.008 527.373 484.513 528.578 489.228L521.862 480.055C523.909 483.925 525.481 488.02 526.544 492.248C526.984 494.026 527.17 496.249 525.678 497.29C524.731 492.81 523.726 488.294 521.363 484.38C522.787 490.815 523.22 497.412 522.646 503.944L519.543 492.677C520.479 498.69 519.728 504.815 517.371 510.378C517.333 507.178 517.687 503.992 518.424 500.889C516.29 506.137 513.09 510.88 509.02 514.827C511.286 509.531 513.294 504.135 515.042 498.64C513.056 502.19 510.554 505.426 507.615 508.246C510.016 502.637 511.967 496.843 513.451 490.917C512.009 494.533 509.931 497.858 507.312 500.74L512.014 485.268C510.405 489.259 508.259 493.009 505.633 496.417L509.788 479.872C508.158 484.222 505.907 488.31 503.102 492.01C504.723 486.069 506.35 480.027 506.088 473.861C505.402 478.272 504.33 482.609 502.886 486.824C501.96 483.959 502.251 480.903 502.081 477.907C501.91 474.912 501.097 471.684 498.668 469.88C500.178 473.332 500.82 477.084 500.538 480.809C500.257 484.534 499.061 488.12 497.055 491.255C498.61 483.88 500.081 475.789 496.472 469.077C497.695 472.543 498.024 476.245 497.429 479.841C496.834 483.437 495.334 486.813 493.068 489.657C494.202 483.103 493.457 476.335 490.919 470.118C490.798 473.576 491.682 477.016 491.931 480.476C492.18 483.935 491.676 487.697 489.254 490.171L487.043 468.249C487.333 475.382 487.358 483.281 482.618 488.565C482.679 483.624 482.527 478.677 482.162 473.722C481.996 471.511 481.652 469.023 479.874 467.638L478.151 481.493C477.938 483.123 477.234 485.213 475.535 485.126C474.944 479.975 474.544 474.808 474.334 469.625C474.848 474.433 474.685 479.278 473.853 484.02L471.339 468.848C471.106 472.946 470.88 477.045 470.663 481.145C469.265 476.833 467.469 472.652 465.297 468.656C465.506 472.232 464.887 475.794 463.487 479.07C460.829 475.124 458.722 470.845 457.224 466.352C457.477 470.376 457.487 474.407 457.254 478.424L454.642 467.727C452.447 470.438 450.016 472.952 447.376 475.24C446.885 471.52 446.779 467.767 447.059 464.038L444.65 471.002C445.59 468.872 443.082 466.473 440.706 466.539C438.331 466.604 436.389 468.195 434.61 469.715L432.386 471.618C433.821 470.451 435.864 470.98 437.639 471.712C463.533 482.292 485.565 500.596 500.64 524.053C504.75 530.441 508.313 537.361 509.206 544.857C508.303 542.208 506.926 539.735 505.142 537.558C507.574 545.105 508.111 553.098 506.706 560.837C505.746 555.092 504.166 549.456 501.996 544.026C502.875 547.397 503.07 550.896 502.572 554.321C502.074 557.745 500.892 561.026 499.095 563.972C500.345 555.838 500.272 547.536 498.878 539.383C498.934 544.675 497.477 549.85 494.677 554.31C496.307 547.113 496.588 539.66 495.508 532.319C495.663 537.853 494.594 543.333 492.378 548.375C493.881 541.406 493.805 534.17 492.156 527.183C491.802 532.275 490.102 537.163 487.228 541.358C489.109 534.395 489.563 527.106 488.561 519.919C488.395 526.042 486.824 532.023 483.968 537.411C484.879 530.755 484.775 523.986 483.661 517.328C483.866 523.002 482.681 528.619 480.209 533.697C480.749 526.765 480.584 519.786 479.718 512.864C479.681 519.63 478.095 526.275 475.081 532.298C476.488 524.998 477.002 517.542 476.612 510.092C476.741 516.645 475.431 523.124 472.774 529.082C473.217 521.617 473.331 514.167 473.118 506.732C473.192 513.307 471.894 519.805 469.303 525.815C471.008 518.697 471.126 511.273 469.65 504.054C469.121 510.086 467.823 516.015 465.787 521.7C466.847 514.929 466.787 508.014 465.61 501.226C465.514 507.707 464.212 514.095 461.767 520.069C463.2 513.609 463.409 506.923 462.383 500.348C461.861 505.762 460.294 511.01 457.769 515.807C457.929 508.053 457.275 500.291 455.815 492.645C454.235 498.329 452.662 504.009 451.097 509.684C451.73 503.238 452.369 496.795 453.015 490.357C452.15 496.201 450.672 501.93 448.607 507.452C450.212 500.949 450.547 494.181 449.595 487.512C449.301 492.869 448.417 498.169 446.96 503.318L446.778 484.965C446.615 489.984 445.74 494.944 444.18 499.699L442.322 481.703C442.079 485.459 441.472 489.177 440.508 492.806C439.987 488.605 439.153 484.443 438.012 480.355C437.551 482.175 437.081 483.989 436.614 485.818L434.906 476.396C435.555 479.202 435.487 482.113 434.708 484.864C434.811 482.922 434.388 480.98 433.484 479.238C432.579 477.496 431.225 476.018 429.562 474.957C430.327 478.992 431.499 482.947 433.059 486.761C439.04 503.401 442.65 521.046 441.612 538.584C440.574 556.123 434.516 573.513 422.986 586.663C425.727 579.437 429.291 572.556 433.609 566.15C429.46 568.227 425.564 570.759 421.994 573.699L433.831 563.053C429.38 565.372 424.924 567.683 420.464 569.987C424.562 566.127 428.499 562.117 432.274 557.957C428.093 559.399 424.135 561.394 420.506 563.888C424.23 560.166 427.948 556.437 431.662 552.701L418.978 557.689C423.26 553.523 427.543 549.357 431.826 545.19C427.027 545.785 422.49 547.622 418.671 550.519C423.021 546.071 427.777 542.032 432.88 538.45C427.31 540.147 421.924 542.37 416.797 545.089C422.099 541.39 427.42 537.702 432.761 534.027C426.925 535.33 421.168 536.941 415.514 538.855L431.242 530.1C425.377 530.909 419.671 532.543 414.297 534.954C419.554 531.653 424.819 528.345 430.093 525.029L414.242 529.083C420.249 526.349 425.972 523.052 431.333 519.235C425.676 519.328 420.174 520.791 414.729 522.249L428.555 516.426C423.715 514.653 418.509 514.173 413.466 515.037L429.166 513.85L413.931 511.956C412.487 511.775 410.81 511.454 410.147 510.155L429.091 508.188C423.358 507.877 417.671 506.9 412.147 505.276C417.843 504.415 423.621 504.124 429.394 504.409C423.458 503.6 417.739 501.566 412.608 498.44C417.913 499.5 423.332 499.788 428.695 499.297C424.222 498.153 420.099 495.899 416.718 492.749C421.129 493.064 425.541 493.371 429.953 493.67L418.982 488.667L429.425 490.277C425.957 489.279 422.795 487.411 420.246 484.856L428.334 486.1C428.495 483.351 427.744 480.61 426.195 478.295C426.071 478.057 425.902 477.846 425.697 477.673C425.491 477.5 425.254 477.368 424.999 477.286C424.453 477.263 423.923 477.454 423.524 477.817C420.8 479.757 419.99 480.22 418.117 482.973Z" fill="#477309"/>
<path d="M428.673 264.397C428.163 286.073 416.271 301.631 405.342 319.725C382.941 356.983 361.714 394.437 342.634 433.336C323.78 471.813 305.479 510.721 281.648 546.76C277.915 552.41 273.955 558.069 268.497 562.324C263.039 566.578 255.87 569.321 248.838 568.202C247.257 568.007 245.753 567.424 244.479 566.51C243.254 565.43 242.357 564.063 241.883 562.554C236.873 549.108 247.197 535.541 256.507 524.516C276.05 501.38 293.791 476.936 309.593 451.371C316.731 439.995 323.253 428.28 329.135 416.273C334.62 404.906 339.315 393.186 345.194 381.996C366.653 341.164 403.606 307.666 416.851 263.769C417.773 260.733 413.874 258.008 410.74 256.825C407.605 255.643 404.092 255.87 400.746 256.164C395.658 256.62 389.853 257.489 386.946 261.463C384.847 264.338 384.822 268.105 384.863 271.621C384.97 278.378 385.068 285.143 385.157 291.914C383.12 284.938 381.083 277.967 379.045 270.999C380.407 278.794 381.78 286.598 383.165 294.411L373.23 271.417L378.969 301.331C374.952 292.933 371.674 284.247 369.168 275.363C370.947 284.291 373.215 293.133 375.962 301.854C372.223 293.67 369.055 285.272 366.479 276.714C369.579 286.034 371.634 295.62 372.611 305.315C368.875 297.323 365.799 289.079 363.412 280.658C366.112 290.295 368.184 300.07 369.616 309.929L360.313 287.458C362.332 295.944 364.356 304.431 366.384 312.919C362.7 304.379 359.013 295.836 355.322 287.287C359.22 297.397 361.608 307.949 362.416 318.636C358.698 309.533 354.98 300.462 351.263 291.422C354.423 300.974 356.476 310.805 357.386 320.742C353.488 312.256 350.108 303.573 347.262 294.736C349.526 304.555 351.181 314.481 352.217 324.464C349.217 316.973 346.211 309.49 343.2 302.014L347.156 329.521L340.16 305.725C340.852 316.51 340.639 327.318 339.524 338.048C337.551 329.699 336.164 321.245 335.374 312.741C335.315 324.033 334.592 335.305 333.21 346.505C331.24 337.928 330.111 329.21 329.838 320.461C329.031 331.514 327.476 342.496 325.183 353.343L324.242 332.347C323.052 341.405 320.959 350.325 317.989 358.99C317.701 352.603 318.141 346.215 319.3 339.936C317.416 347.103 315.115 354.185 312.538 361.141C312.594 354.759 313.758 348.443 315.985 342.444C313.869 348.36 311.04 354.021 307.553 359.317C314.402 333.54 326.372 309.278 342.837 287.8C354.152 273.085 368.367 259.194 386.686 253.253C397.769 249.657 411.679 249.772 419.706 257.981C415.944 250.256 410.408 243.395 403.5 237.897C396.592 232.399 388.489 228.405 379.781 226.205C378.633 225.805 377.38 225.779 376.227 226.132C375.09 226.782 374.241 227.792 373.828 228.984L364.894 247.24C364.893 239.631 366.573 232.127 369.827 225.206C366.865 233.839 363.181 242.229 358.808 250.298C358.867 242.469 359.695 234.672 361.282 227.007C359.082 235.055 356.88 243.106 354.679 251.162C355.73 242.184 357.07 233.243 358.699 224.341C356.061 234.764 353.415 245.179 350.762 255.585C351.631 244.915 353.316 234.328 355.804 223.907C351.822 233.829 349.103 244.175 347.702 254.73C347.102 245.613 347.53 236.475 348.98 227.47C345.812 238.361 343.808 249.538 342.997 260.834C341.551 249.864 341.801 238.777 343.74 227.921C339.98 238.56 338.358 249.792 338.957 261.047C336.082 250.718 335.81 239.935 338.161 229.561C335.59 240.551 334.35 251.797 334.463 263.086C332.538 252.667 331.955 242.086 332.726 231.572C331.254 244.327 330.592 257.163 330.744 270.014C328.555 260.675 327.507 251.145 327.623 241.613L328.387 276.062C326.202 266.488 324.649 256.805 323.737 247.068L324.186 283.56C320.88 272.631 319.377 261.312 319.73 250.003L318.132 285.169C315.862 275.949 314.968 266.495 315.478 257.081C313.742 268.107 311.562 279.061 308.937 289.943C308.125 282.119 308.386 274.244 309.716 266.513C307.722 273.965 305.11 281.251 301.903 288.304C302.411 282.154 304.042 276.148 306.726 270.548C304.362 274.303 301.367 277.668 297.855 280.514C300.669 274.749 303.916 269.185 307.571 263.863L295.844 270.055C300.652 266.197 305.463 262.335 310.28 258.471C304.713 259.788 299.273 261.523 294.012 263.658L314.732 251.084L296.929 252.617C304.237 248.941 311.859 245.833 319.719 243.323L300.186 243.826C307.858 240.257 316.059 237.764 324.529 236.428L308.428 234.177C314.734 232.101 321.421 231.183 328.131 231.472L313.006 228.082C320.125 226.827 327.363 226.199 334.626 226.204C329.801 225.125 325.215 223.226 321.094 220.601C327.256 219.985 333.491 220.174 339.622 221.162C336.385 219.601 333.367 217.659 330.643 215.383C336.67 215.759 342.62 216.961 348.302 218.951L338.161 212.351C343.65 213.421 348.998 215.086 354.096 217.313L349.426 210.856C354.157 212.988 358.69 215.496 362.975 218.352L358.705 210.524C363.844 211.957 368.4 214.863 371.731 218.833C370.182 216.258 369.1 213.462 368.532 210.563C371.846 212.419 374.716 214.906 376.956 217.861L375.033 210.52C377.469 217.129 384.884 220.68 391.277 224.241C403.642 231.34 414.417 240.661 422.976 251.662C422.484 248.768 422.608 244.693 422.116 241.798C421.367 237.444 420.63 232.984 418.316 229.096C416.001 225.209 411.925 221.966 407.234 221.818C401.213 221.634 396.51 226.32 392.658 230.62C395.003 224.332 399.133 218.789 404.606 214.584L383.668 223.433C386.909 217.648 391.613 212.713 397.372 209.057C389.027 210.123 381.153 213.223 374.529 218.05C378.859 212.253 383.914 206.973 389.588 202.319C381.019 206.454 373.368 212.068 367.031 218.874L379.738 203.554L357.135 222.432L373.925 200.084C364.805 206.431 355.326 212.312 345.528 217.705C352.13 212.836 358.315 207.491 364.029 201.715C355.73 205.858 346.619 208.407 337.219 209.215C344.515 203.65 352.578 199.029 361.197 195.474C351.903 195.335 342.616 195.684 333.379 196.52C341.173 191.504 350.469 188.916 359.977 189.114L338.917 182.654C349.407 181.947 359.92 184.292 369.036 189.37C363.457 185.828 358.429 181.567 354.102 176.713C364.828 179.342 374.571 184.802 382.171 192.444C378.458 187.305 375.474 181.738 373.296 175.886C379.75 180.635 385.48 186.199 390.319 192.417L385.965 175.844C391.75 183.151 396.554 191.095 400.267 199.491C399.852 192.486 398.614 185.535 396.575 178.764C399.204 186.779 401.831 194.801 404.458 202.83L403.413 184.978L409.143 203.142L409.302 195.005L414.59 213.708C414.912 210.957 415.097 208.2 415.344 205.44C414.689 212.219 419.928 218.115 423.563 224.061C427.451 230.449 429.666 237.599 430.023 244.91C430.535 224.805 423.626 205.051 410.47 189.007L416.188 192.419C410.881 186.482 404.594 181.383 397.575 177.321L409.518 179.18L389.492 169.803L403.631 171.825L382.118 161.175C388.431 160.631 394.815 161.378 400.832 163.365C391.276 161.106 382.17 157.355 373.895 152.269C380.807 151.828 387.763 152.731 394.33 154.921C386.136 153.053 378.313 149.913 371.185 145.629L388.276 146.955C379.459 144.207 370.944 140.637 362.861 136.298C369.258 135.556 375.774 136.262 381.868 138.357C373.861 137.062 366.203 134.222 359.379 130.016C364.044 128.724 369.021 128.704 373.737 129.959C367.055 129.929 360.385 129.247 353.833 127.925C359.011 126.842 364.337 126.459 369.652 126.786L351.284 121.09C358.086 121.813 364.83 122.997 371.464 124.634C366.096 122.96 361.497 119.573 358.473 115.064C366.077 118.521 373.274 122.736 379.938 127.635L374.425 114.177C379.266 120.216 383.07 126.925 385.695 134.053C385.514 128.43 385.333 122.802 385.153 117.171L391.03 141.498C392.221 133.877 392.252 126.12 391.12 118.46C392.627 127.099 394.133 135.738 395.64 144.378L399.044 121.42C399.992 132.681 400.506 143.958 400.586 155.252C401.822 147.283 404.002 139.483 407.084 131.995L403.742 157.867C405.621 151.214 409.959 145.439 415.984 141.57C411.424 148.063 408.137 155.282 406.275 162.891C410.199 155.693 415.917 149.511 422.95 144.867C417.943 152.536 413.708 160.635 410.299 169.059C415.481 162.303 421.52 156.172 428.286 150.799C421.862 159.32 416.771 168.673 413.163 178.578C417.601 172.792 423.036 167.749 429.248 163.653C424.27 170.357 419.952 177.479 416.347 184.932L430.029 171.286C425.38 177.954 421.706 185.187 419.103 192.795C422.315 189.373 425.518 185.95 428.714 182.526C426.384 188.333 424.652 194.344 423.541 200.478L430.687 190.617C428.721 197.19 427.43 203.933 426.832 210.756C428.212 207.64 429.601 204.524 430.998 201.409C431.143 209.105 430.857 216.797 430.139 224.452C432.972 210.483 434.713 196.323 435.349 182.085C435.916 185.414 436.48 188.738 437.039 192.058L435.748 167.275C436.997 170.588 438.233 173.901 439.48 177.226L437.187 149.501C439.435 155.143 440.921 161.02 441.61 166.991C441.844 156.389 442.53 145.831 443.668 135.319C444.197 142.63 444.722 149.937 445.244 157.24C446.081 146.529 448.584 136.015 452.673 126.031C450.806 132.646 449.409 139.376 448.49 146.178C451.715 135.386 457.809 125.579 466.202 117.674C462.959 125.625 459.017 133.3 454.415 140.619C460.029 132.777 466.675 125.641 474.198 119.378C466.791 131.158 458.734 142.56 450.058 153.536C456.526 146.528 464.184 140.577 472.727 135.919C464.518 141.912 456.844 148.524 449.781 155.691L472.076 142.237C464.409 148.731 457.101 155.563 450.153 162.731L472.659 150.165C463.366 156.779 454.863 164.314 447.293 172.644L467.01 157.554C458.908 165.833 451.249 174.479 444.034 183.492C450.476 178.005 456.916 172.522 463.357 167.043C453.878 176.393 446.015 187.087 440.046 198.745C444.928 191.26 450.617 184.274 457.026 177.897C451.901 186.832 447.246 195.991 443.059 205.374C452.539 190.417 462.576 175.796 473.168 161.513L462.958 183.248C469.153 170.251 477.814 158.451 488.523 148.417C484.279 156.884 479.295 164.998 473.624 172.677C481.7 161.729 491.912 152.336 503.729 144.985C498.756 151.191 493.177 156.944 487.065 162.17C496.794 154.492 507.403 147.85 518.702 142.364L502.635 155.305C511.207 150.22 520.632 146.511 530.532 144.327C524.949 146.736 519.652 149.681 514.724 153.115C523.138 150.389 532.093 149.367 541.008 150.116L525.486 153.665C532.475 153.623 539.444 154.602 546.144 156.568C538.464 154.654 530.424 154.57 522.758 156.325C529.337 157.597 535.798 159.393 542.069 161.694C531.199 161.875 520.318 161.481 509.477 160.515L534.048 168.272C523.143 166.83 512.175 165.913 501.187 165.525C509.141 167.302 517.279 168.183 525.427 168.15C512.776 168.071 500.205 169.705 488.101 173L511.643 176.217C501.194 176.183 490.854 177.937 481.127 181.392L498.408 180.66C490.11 182.951 481.975 185.718 474.049 188.943C478.367 189.058 482.675 188.652 486.867 187.737C476.34 190.112 466.746 195.162 459.125 202.338C469.022 196.617 479.578 191.954 490.6 188.434C497.885 186.095 505.998 184.326 513.225 187.004C517.957 188.74 521.71 192.276 525.091 195.863C530.603 201.728 535.505 208.073 539.73 214.81C533.054 211.039 527.141 206.175 522.276 200.451C526.447 204.85 529.533 210.057 531.306 215.691L511.14 195.247C515.859 199.471 519.515 204.63 521.836 210.339L506.184 195.21C510.21 198.085 513.661 201.612 516.371 205.622L497.772 195.987L508.425 205.106C502.044 201.829 495.766 198.392 489.591 194.793L500.286 205.382C493.154 203.582 486.232 201.088 479.63 197.941L489.52 204.11C484.779 203.146 479.988 202.424 475.171 201.946C475.471 202.777 476.057 203.494 476.834 203.983C477.611 204.473 478.536 204.706 479.462 204.647C472.156 204.477 463.889 207.777 459.473 213.241C457.604 215.551 448.671 229.6 446.485 229.45C448.462 229.552 450.066 228.108 451.407 226.764L464.994 213.071C462.186 216.85 459.892 220.949 458.165 225.274C463.21 219.281 468.962 214.552 476.614 211.772L466.188 223.731C471.618 218.645 477.114 213.521 483.563 209.619L471.389 223.394C476.502 218 482.023 212.346 489.458 210.45C484.688 214.099 480.517 218.389 477.078 223.185C481.783 218.35 487.462 214.441 493.796 211.679C489.685 215.288 485.886 219.027 483.682 223.982C491.544 218.621 500.599 214.986 510.193 213.338C504.99 215.113 500.223 217.836 496.163 221.353C505.212 217.176 514.919 214.364 524.934 213.019C519.165 215.412 513.86 218.675 509.226 222.681C518.143 219.591 527.626 218.126 537.174 218.364L522.352 225.718L547.589 219.937L535.562 227.513C543.259 225.828 551.138 224.927 559.064 224.826C554.429 227.321 548.864 227.758 544.335 231.282C552.896 231.612 561.271 233.907 568.73 237.966C564.833 237.28 560.862 237.11 556.931 237.46C564.658 240.492 572.466 243.581 579.292 248.186C574.773 247.423 570.317 246.34 565.962 244.947L584.452 261.744C585.419 262.626 586.34 264.329 585.175 264.925C580.532 262.432 576.15 259.525 572.092 256.243C574.767 262.537 575.646 268.904 576.118 275.626C574.465 267.132 569.431 259.506 562.046 254.311C564.294 257.138 565.917 260.356 566.815 263.77C567.714 267.185 567.87 270.725 567.274 274.177C565.472 265.481 561.812 257.194 556.516 249.822C560.411 257.32 561.744 265.738 560.331 273.908C558.354 264.129 555.316 254.553 551.264 245.331C553.487 252.684 554.715 260.258 554.92 267.873C552.436 257.65 548.876 247.672 544.294 238.085C547.521 248.089 549.015 258.493 548.72 268.897C546.653 258.217 543.329 247.77 538.807 237.75C541.023 246.359 542.668 255.083 543.731 263.869C540.444 254.383 537.158 244.889 533.872 235.388C536.5 243.976 538.265 252.766 539.145 261.642C535.903 252.2 532.042 242.949 527.583 233.942C530.535 241.849 532.597 250.014 533.733 258.302L521.819 234.036C525.734 242.04 528.289 250.556 529.39 259.271L516.33 232.968C519.49 240.711 522.053 248.651 523.998 256.725L512.073 233.096C514.611 239.91 516.319 246.962 517.165 254.117C513.818 246.862 510.472 239.603 507.126 232.34L513.758 256.342C510.127 248.372 505.577 240.792 500.189 233.738L507.421 252.622L493.169 232.952L501.734 251.838L482.214 232.119C486.854 237.616 490.338 243.887 492.477 250.589C485.91 246.009 480.015 240.628 474.95 234.59L487.612 253.329L469.57 236.785C473.293 242.904 477.78 248.588 482.934 253.715C476.053 249.643 469.517 245.072 463.385 240.045C468.111 244.325 472.393 249.018 476.171 254.059C468.934 250.337 462.123 245.915 455.849 240.865L468.436 253.141L451.085 240.804L458.748 248.792L449.583 242.885C451.024 245.418 452.465 247.982 453.907 250.578C452.331 249.336 450.506 248.408 448.545 247.852C446.583 247.295 444.527 247.121 442.503 247.34C438.675 247.779 436.759 252.105 435.64 255.532C450.843 253.848 467.376 252.414 480.525 259.993C476.066 259.629 471.597 260.286 467.498 261.908C478.387 263.052 489.099 265.477 499.383 269.127C493.819 268.577 488.21 269.036 482.86 270.479C494.906 270.707 508.359 271.383 516.803 279.582C512.3 278.7 507.742 278.111 503.162 277.819C514.331 282.564 524.765 288.742 534.159 296.175C532.366 296.145 530.597 295.729 528.99 294.959C527.382 294.189 525.978 293.085 524.885 291.733C535.071 297.606 544.326 304.815 552.366 313.14C548.037 311.131 543.983 308.628 540.297 305.687C549.037 311.094 555.916 318.793 560.065 327.811L541.336 308.645C545.839 315.083 548.532 322.475 549.158 330.115C544.845 320.393 538.818 311.406 531.334 303.539C535.307 310.213 538.138 317.422 539.723 324.898L524.782 297.453C527.279 303.98 528.863 310.773 529.492 317.661L516.416 291.391C518.252 297.637 519.649 303.984 520.599 310.391L508.056 286.772C509.491 292.685 510.237 298.717 510.281 304.762L500.783 282.446C501.752 287.287 502.722 292.16 503.692 297.065L492.492 276.275C493.296 281.948 494.109 287.626 494.929 293.309L483.551 271.245C484.304 275.849 485.054 280.451 485.799 285.054C480.355 279.312 475.672 272.972 471.858 266.177C473.594 270.086 474.582 274.244 474.776 278.457L462.357 262.808L462.463 268.032C458.08 265.155 454.143 261.574 449.343 259.346C444.544 257.118 438.423 256.496 434.223 259.467C439.993 257.601 446.241 260.472 451.643 263.256C471.517 273.501 492.193 284.419 504.809 302.148L491.91 292.542C501.824 299.656 510.707 307.965 518.324 317.252L504.639 306.608C512.474 315.084 518.812 324.679 523.407 335.021L509.384 318.77C516.29 327.491 521.237 337.428 523.918 347.964L516.378 334.304C520.584 342.816 523.347 351.879 524.564 361.16L516.584 343.3C518.533 351.729 519.499 360.32 519.464 368.919C516.247 362 513.55 354.883 511.395 347.621C512.743 357.086 513.197 366.632 512.752 376.147C507.764 366.521 504.67 356.145 503.621 345.529L501.916 364.832C500.827 355.389 500.755 345.881 501.7 336.452C498.72 342.001 496.378 347.84 494.714 353.872C496.494 345.102 498.881 336.458 501.859 327.995C497.828 335.403 493.812 342.79 489.812 350.154L499.449 323.635C493.409 329.773 488.768 337.013 485.804 344.921C486.337 336.158 488.242 327.536 491.455 319.331C487.5 325.367 484.411 331.876 482.266 338.692C484.585 328.412 486.917 318.13 489.262 307.846C485.431 315.127 481.6 322.401 477.77 329.667L487.871 299.515C484.713 305.844 481.547 312.171 478.373 318.497C480.198 311.005 482.016 303.503 483.827 295.993L471.479 317.277L479.242 291.603C473.865 296.736 469.959 303.073 467.882 310.036C470.686 302.155 472.731 294.044 473.992 285.799L464.899 302.831C466.798 294.78 468.689 286.727 470.571 278.674C466.903 284.453 463.674 290.473 460.909 296.691C462.767 289.714 464.633 282.734 466.507 275.751C464.199 280.059 461.902 284.373 459.617 288.691C460.457 283.133 460.986 277.534 461.203 271.916C459.507 275.657 457.813 279.375 456.121 283.07C456.481 279.353 456.822 275.469 455.369 271.965C452.176 264.287 442.181 261.711 433.585 260.185C438.651 261.534 442.528 265.522 445.11 269.807C447.693 274.093 449.241 278.931 451.499 283.415C453.966 288.053 456.812 292.508 460.01 296.739L470.96 312.027C465.182 309.554 460.286 305.565 455.483 301.646C464.571 306.716 471.639 314.475 475.562 323.688C470.896 319.755 466.844 315.221 463.53 310.224C470.146 318.213 475.73 326.907 480.163 336.117L462.722 315.732C470.397 323.878 476.341 333.325 480.225 343.547L467.117 326.47C473.755 335.061 478.567 344.762 481.285 355.03L472.233 339.444C477.667 350.271 481.258 361.813 482.87 373.643L470.107 342.871C472.897 354.904 474.244 367.175 474.121 379.451L470.662 353.184C468.728 362.035 466.792 370.871 464.853 379.69C464.676 369.705 465.576 359.743 467.54 349.958L458.408 369.905L463.393 339.249C459.943 344.85 456.497 350.455 453.054 356.064C454.379 347.231 456.268 338.488 458.711 329.883C453.712 337.061 449.552 344.733 446.302 352.768C448.596 342.848 450.898 332.932 453.208 323.022C450.129 330.108 447.049 337.202 443.969 344.304C446.308 334.72 448.654 325.145 451.007 315.578C446.938 322.34 443.392 329.375 440.399 336.628L447.044 304.051L436.898 326.207L443.279 296.743C440.095 302.922 437.414 309.326 435.259 315.898C437.458 306.148 439.66 296.402 441.866 286.661L432.12 305.401C434.532 297.055 436.948 288.709 439.368 280.364L430.102 296.288C433.06 290.208 435.289 283.829 436.747 277.268C437.463 274.054 437.976 270.639 436.858 267.494C435.741 264.349 432.152 264.036 428.673 264.397Z" fill="#477309"/>
<path d="M245.37 412.579C255.039 460.791 240.852 511.192 247.2 560.002C249.855 580.466 255.938 602.149 247.318 621.071C245.834 624.397 242.716 628.032 239.146 627.127C236.941 626.548 235.592 624.385 234.681 622.328C230.61 613.08 230.838 602.576 231.165 592.495C232.984 533.458 234.809 474.424 236.637 415.392C236.772 414.089 236.615 412.776 236.178 411.545C233.972 406.539 226.629 409.232 223.414 411.589C218.259 415.339 214.521 419.977 213.758 426.435C213.087 432.12 214.558 437.824 216.581 443.167C214.211 438.688 212.155 434.054 210.427 429.295C212.438 435.805 214.051 442.431 215.256 449.137C213.308 444.655 211.329 440.174 209.319 435.693C211.83 443.182 213.567 450.907 214.503 458.751C212.252 453.134 209.398 447.774 205.99 442.761C208.184 449.576 210.377 456.4 212.568 463.232C208.863 457.036 205.545 450.623 202.631 444.026L208.437 466.358C205.391 459.61 202.342 452.867 199.291 446.128C200.595 454.139 202.448 462.05 204.836 469.807C201.331 463.64 199.344 456.766 197.334 449.98C199.653 459.714 201.975 469.444 204.299 479.169C199.548 473.222 196.978 465.912 194.484 458.756C197.016 467.321 199.727 475.839 202.618 484.31C198.173 477.78 193.993 471.081 190.078 464.213C192.297 470.97 195.136 477.51 198.562 483.75C195.135 478.154 191.721 472.551 188.322 466.941C190.772 474.62 193.453 482.223 196.365 489.751C192.623 484.391 189.092 478.892 185.77 473.253C188.192 480.009 190.843 486.683 193.723 493.274C189.085 488.577 185.79 482.77 182.563 477.038C185.069 484.602 187.574 492.175 190.077 499.756C185.789 494.808 182.092 489.391 179.057 483.61C181.204 491.099 183.853 498.437 186.986 505.574C182.943 500.829 179.515 495.606 176.779 490.024C178.308 496.113 179.842 502.212 181.384 508.321C178.78 503.855 176.583 499.168 174.819 494.315C175.485 500.882 176.15 507.446 176.814 514.005C174.738 509.71 173.197 505.179 172.226 500.511C172.654 508.031 173.078 515.668 171.325 523.018C169.486 512.777 169.779 502.258 172.186 492.094C169.702 497.098 166.746 501.865 163.359 506.332C166.451 499.664 169.936 493.177 173.796 486.903C169.722 490.383 165.554 493.91 160.626 496.091L178.063 476.398L162.989 483.049L180.691 469.478L164.795 475.316C170.852 471.513 176.715 467.464 182.386 463.169L168.113 467.618L186.214 456.756C181.449 458.68 176.453 459.979 171.354 460.619L188.935 449.835C185.184 450.693 181.366 451.227 177.525 451.429L191.9 442.585C188.841 443.779 185.544 444.241 182.281 443.933C187.497 441.613 192.566 438.983 197.46 436.056C193.854 435.894 190.239 436.021 186.649 436.433L200.074 431.479C197.169 431.564 194.302 430.871 191.78 429.474C195.487 428.862 199.132 427.914 202.668 426.643L196.629 423.51C199.936 423.425 203.229 423.025 206.463 422.313C205.358 421.54 204.244 420.781 203.128 420.01C204.711 418.918 207.133 420.283 208.702 419.184C209.214 418.752 209.62 418.213 209.889 417.607C212.105 413.534 215.405 410.125 219.432 407.748C222.919 405.804 226.598 405.228 227.384 400.528C227.501 399.851 227.26 398.877 226.561 398.943C226.465 399.568 225.466 399.654 225.039 399.189C224.682 398.662 224.536 398.022 224.631 397.393L223.455 402.31C223.04 400.712 222.547 399.087 222.115 397.516C221.48 399.331 221.134 401.23 221.089 403.144C220.484 402.218 219.879 401.291 219.288 400.373C217.311 400.402 217.62 406.513 217.783 407.681C217.052 404.193 216.311 400.709 215.58 397.221C215.713 401.396 214.678 405.538 212.587 409.193C212.035 405.578 211.496 401.972 210.944 398.357C210.275 404.338 208.806 410.213 206.574 415.829C206.09 411.228 205.386 406.654 204.462 402.106C203.634 407.954 202.807 413.807 201.981 419.663L199.557 405.098C199.38 411.966 198.729 418.818 197.608 425.607C196.712 420.083 195.818 414.551 194.926 409.011C195.369 416.637 195.212 424.29 194.454 431.903C193.32 426.818 192.182 421.733 191.041 416.65L189.475 437.728C188.06 432.285 186.67 426.832 185.305 421.369C185.232 428.912 184.576 436.444 183.341 443.899C182.344 438.287 181.341 432.683 180.333 427.089C179.659 436.087 178.975 445.08 178.282 454.068C177.039 447.905 176.392 441.635 176.349 435.341C175.215 443.259 174.935 451.265 175.513 459.226C173.004 449.572 170.566 439.519 172.447 429.681C174.49 420.053 180.095 411.487 188.169 405.649C196.248 399.887 205.787 396.457 215.702 395.748C213.455 393.969 210.283 393.871 207.416 394.225C193.231 395.987 180.884 407.797 178.674 421.698L178.077 408.158C176.979 414.592 175.863 420.988 174.729 427.347C173.489 423.061 172.702 418.657 172.381 414.204C171.366 420.508 170.436 426.822 169.59 433.144C168.723 427.851 167.848 422.56 166.967 417.271C166.483 423.27 165.384 429.211 163.685 435.002L160.374 420.322C158.898 426.447 157.421 432.572 155.945 438.697C155.149 433.647 154.348 428.595 153.543 423.539C152.162 429.64 150.769 435.739 149.364 441.838L147.479 425.554L144.759 443.68L143.423 431.496C141.855 438.444 140.603 445.445 139.665 452.498C139.154 447.312 138.647 442.137 138.142 436.973C136.753 442.86 135.552 448.783 134.541 454.741C133.632 449.462 133.662 444.059 134.629 438.774C132.052 440.74 129.979 443.274 128.579 446.169L134.949 432.823C132.842 435.252 130.114 437.084 127.052 438.127L139.53 426.594L128.34 426.955L145.449 417.608L138.465 414.593C143.5 413.155 148.675 412.266 153.898 411.942L146.64 409.632C151.397 408.326 156.285 407.551 161.209 407.32C158.421 406.925 155.813 405.751 153.695 403.936C158.213 403.219 162.776 402.834 167.346 402.785C165.274 401.58 163.554 399.873 162.346 397.825L177.113 399.209C175.381 397.484 174.09 395.379 173.343 393.064C177.667 393.811 181.934 394.835 186.118 396.13C185.331 395.182 184.533 394.236 183.746 393.288C185.958 394.615 188.8 394.072 191.336 393.528C203.751 390.831 217.003 388.873 228.825 393.201L217.781 386.85C216.709 386.133 215.498 385.64 214.222 385.4C209.494 384.877 207.046 390.724 203.371 393.754L204.977 384.437L198.462 396.506C198.887 392.899 199.318 389.29 199.757 385.679L195.448 399.319C194.905 394.941 194.369 390.561 193.84 386.179L191.337 398.232L190.616 385.519L187.532 399.901C186.916 395.304 186.298 390.696 185.676 386.077L181.851 400.133C181.323 395.482 180.792 390.836 180.258 386.194C179.162 390.973 178.337 395.806 177.787 400.671L176.311 385.237C175.075 390.692 173.832 396.146 172.579 401.598C171.963 397.331 171.344 393.065 170.72 388.8L167.233 404.924C165.679 400.403 164.665 395.715 164.211 390.954C162.507 395.931 161.427 401.09 160.995 406.315L159.059 393.538C157.149 398.441 155.661 403.49 154.611 408.632C154.006 404.858 153.414 401.092 152.842 397.31L148.062 412.076C147.676 407.972 147.286 403.869 146.893 399.767L141.637 416.904C141.309 412.456 141.469 407.981 142.113 403.558L135.772 419.455C136.013 414.231 137.089 409.069 138.958 404.159C137.38 406.858 135.084 409.085 132.319 410.6L145.014 392.313C141.056 395.371 136.676 397.857 132.009 399.694C135.58 394.508 140.298 390.179 145.803 387.035C142.266 389.003 138.471 390.475 134.528 391.407C139.482 387.319 144.809 383.691 150.44 380.573C145.903 382.306 141.153 383.425 136.321 383.897C142.132 380.957 148.096 378.3 154.211 375.926C149.467 376.924 144.573 376.932 139.844 375.949C147.034 373.494 154.597 372.309 162.183 372.447C157.696 371.493 153.431 369.738 149.6 367.268L168.217 371.132C165.239 369.101 162.252 367.08 159.256 365.069C166.256 365.912 173.037 367.979 179.278 371.174C176.429 369.361 173.825 367.203 171.525 364.75L198.499 376.322C198.027 375.407 197.551 374.482 197.089 373.564L229.149 389.163C224.45 384.365 219.275 380.041 213.7 376.255C209.882 373.674 205.726 371.284 201.114 370.708C196.502 370.131 191.301 371.76 188.857 375.681C189.936 371.713 192.541 368.302 196.119 366.173L180.771 374.163L188.729 364.394L175.373 376.028C177.096 372.564 179.178 369.284 181.588 366.239L169.478 381.538C170.881 376.596 172.74 371.786 175.031 367.171L161.053 382.552C162.794 378.036 165.268 373.823 168.377 370.076C163.264 372.628 158.425 375.686 153.935 379.203C156.968 375.173 160.295 371.364 163.889 367.808C159.877 370.097 155.328 371.304 150.707 371.303L164.324 363.429C159.323 363.738 154.313 363.162 149.534 361.729C155.808 360.755 162.138 360.192 168.481 360.043C165.131 359.451 162.02 357.957 159.492 355.727C165.804 356.661 171.917 358.574 177.604 361.395L172.835 355.153C177.251 357.717 181.67 360.276 186.092 362.831L178.182 353.544C183.749 356.778 188.9 360.656 193.526 365.095C192.656 363.015 191.798 360.933 190.928 358.853L201.966 368.25C200.628 364.817 199.278 361.386 197.939 357.953C202.278 362.205 206.446 366.586 210.444 371.095C208.578 367.843 206.988 364.443 205.688 360.93L217.555 374.193C216.438 371.024 215.31 367.859 214.193 364.691C220 371.223 225.461 378.045 230.556 385.131C230.745 381.429 230.042 377.742 228.502 374.374C226.962 371.006 224.63 368.052 221.696 365.754C218.763 363.456 215.312 361.88 211.626 361.154C207.94 360.428 204.124 360.573 200.49 361.578C203.054 358.897 205.987 356.583 209.2 354.703C204.146 355.749 199.18 357.183 194.346 358.991C196.82 355.145 199.819 351.65 203.259 348.604C200.181 351.69 196.738 354.4 193.005 356.676C194.716 352.465 197.013 348.503 199.832 344.906C196.486 347.92 193.414 351.215 190.649 354.752C193.084 350.88 195.101 346.77 196.667 342.49L187.223 353.453C188.095 349.281 189.22 345.162 190.592 341.118L184.026 353.8C184.789 349.059 185.556 344.314 186.325 339.564L180.577 354.131C181.538 349.627 181.877 345.021 181.585 340.439L176.893 356.807L176.652 343.277C174.293 348.925 172.266 354.698 170.579 360.569L171.278 347.268C168.779 353.644 166.428 360.077 164.224 366.568C164.994 361.157 165.756 355.748 166.511 350.341C164.284 354.251 162.268 358.273 160.473 362.39L165.446 349.407L158.535 354.846C161.804 351.905 164.69 348.575 167.126 344.935L159.461 347.747C163.53 344.763 167.903 342.208 172.509 340.124C169.529 341.195 166.274 341.227 163.292 340.214C167.748 339.042 172.294 338.246 176.881 337.834C173.653 337.278 170.759 335.568 168.751 333.031L183.323 336.01C180.769 334.44 178.65 332.276 177.151 329.706C181.111 331.795 184.821 334.311 188.213 337.205L184.517 328.817C187.616 331.479 190.321 334.555 192.553 337.956L190.776 328.953L199.124 339.926L197.459 330.133C199.552 333.97 201.645 337.803 203.736 341.632C204.329 339.286 204.435 336.851 204.047 334.473L209.282 344.041C209.429 340.36 207.415 336.86 204.598 334.422C203.341 333.228 201.853 332.294 200.22 331.675C198.588 331.057 196.843 330.765 195.089 330.818C191.635 331.082 188.167 333.551 187.51 336.939C188.645 334.397 189.569 331.771 190.27 329.085C187.612 330.897 185.254 333.105 183.282 335.628C184.584 332.843 185.603 329.941 186.325 326.963L178.651 337.236C179.897 333.849 180.782 330.347 181.289 326.785C178.794 330.468 176.6 334.338 174.728 338.359L176.655 326.803C173.705 330.961 171.405 335.527 169.831 340.347C170.214 337.1 170.032 333.818 169.293 330.642C168.005 334.33 167.024 338.112 166.362 341.952L164.682 334.815C163.465 339.035 162.914 343.408 163.051 347.782C162.333 345.017 161.614 342.253 160.898 339.499C160.141 343.362 159.381 347.229 158.619 351.101C158.548 347.185 158.483 343.263 158.425 339.335L153.535 349.748C154.301 345.479 155.628 341.32 157.482 337.378L148.557 346.95C151.297 343.41 153.755 339.668 155.91 335.758C153.275 338.428 149.978 340.375 146.351 341.402C150.517 336.075 155.304 331.248 160.613 327.019L148.409 329.038C153.283 325.994 158.615 323.736 164.202 322.351C160.648 321.757 157.229 320.567 154.093 318.834C159.17 318.581 164.255 318.732 169.299 319.285C165.126 317.882 161.303 315.636 158.074 312.692L172.886 317.499C168.742 315.684 164.946 313.191 161.657 310.123C166.956 312.843 172.065 315.901 176.953 319.278L166.94 307.32L181.467 319.522C179.476 315.206 177.495 310.898 175.524 306.599C180.145 310.476 184.44 314.715 188.366 319.274L183.6 306.091C187.788 311.043 191.761 316.166 195.472 321.45C193.935 316.892 192.394 312.336 190.849 307.78C193.965 312.701 196.754 317.818 199.2 323.098L195.592 309.625L204.424 325.532L203.034 315.172L210.185 329.13C210.272 326.087 210.117 323.044 209.721 320.028C210.765 323.531 211.813 327.035 212.866 330.543C212.547 325.703 211.938 320.743 209.602 316.497C207.265 312.251 202.84 308.825 197.906 308.908L200.212 305.311C197.344 307.275 194.002 308.454 190.532 308.727L197.289 301.702C192.697 303.761 188.281 306.185 184.085 308.95C186.51 306.143 189.314 303.676 192.418 301.619L178.688 309.869L188.497 302.028C183.9 303.604 179.12 304.591 174.277 304.963L186.514 300.272C181.664 300.915 176.74 300.574 172.046 299.272L184.647 296.434C180.138 296.082 175.676 295.312 171.321 294.134C176.053 292.882 180.947 292.357 185.829 292.576C182.516 290.855 178.715 288.927 175.335 287.35C180.571 287.705 185.604 289.429 189.913 292.345L180.673 281.189C185.673 283.59 190.211 286.82 194.088 290.741C191.762 287.034 189.431 283.324 187.096 279.612C191.523 283.242 195.622 287.24 199.35 291.563L192.538 278.635C196.327 282.948 199.812 287.511 202.969 292.294L197.909 279.06C201.433 283.631 204.422 288.581 206.818 293.818C205.941 288.551 205.068 283.279 204.197 278.002C207.951 284.312 210.197 291.372 212.427 298.366C211.771 293.548 211.438 288.69 211.429 283.823C212.721 289.47 214.311 295.044 216.193 300.523C215.892 295.784 216.078 291.024 216.75 286.313C217.701 291.659 218.998 296.936 220.634 302.112C220.406 297.939 220.583 293.751 221.163 289.605C220.854 295.561 221.293 301.527 222.469 307.365C222.154 303.762 222.571 300.127 223.693 296.671L223.993 315.892C223.994 316.214 223.928 316.635 223.606 316.707C223.284 316.779 223.432 316.037 223.593 316.295C226.345 309.156 228.653 301.861 230.502 294.451C229.439 302.542 229.077 310.7 229.42 318.838C229.79 313.63 231.302 308.552 233.853 303.956C232.848 310.658 232.294 317.415 232.195 324.181L237.411 312.265C235.444 319.356 234.579 326.69 234.846 334.017C235.538 328.655 237.19 323.448 239.725 318.638C238.115 328.35 238.105 338.241 239.695 347.928C240.901 337.931 242.917 327.215 244.44 317.262L244.529 327.903C244.995 317.767 247.248 307.772 251.187 298.366C249.52 303.838 248.555 309.487 248.314 315.183C250.06 305.031 253.639 295.253 258.88 286.313C257.46 291.24 256.283 296.226 255.348 301.273C258.244 295.32 262.395 290.035 267.523 285.773L260.647 299.296C264.006 295.868 267.981 293.083 272.368 291.084L265.118 299.782C270.418 297.586 276.792 295.41 281.683 298.37L275.403 300.14C279.885 301.16 284.003 303.331 287.337 306.434L277.927 302.216C280.862 304.624 283.454 307.408 285.634 310.496C281.105 308.892 276.805 306.734 272.832 304.071L280.588 310.736C276.117 309.711 271.744 308.318 267.517 306.571L276.302 311.366C271.636 310.611 266.933 310.032 262.193 309.627C263.314 310.474 264.619 311.055 266.008 311.325C267.397 311.596 268.834 311.548 270.208 311.186C267.056 311.029 263.901 311.524 260.945 312.64C257.988 313.756 255.298 315.468 253.046 317.665L265.058 314.185C259.43 316.854 254.855 321.29 252.059 326.787L263.12 320.326C257.386 325.248 252.403 330.959 248.328 337.279L254.843 330.087C250.559 334.799 247.733 340.612 246.702 346.833C248.519 342.05 251.409 337.724 255.155 334.179C250.924 339.812 248.475 346.539 248.12 353.508L256.156 337.262C258.172 332.764 260.7 328.502 263.691 324.559C266.633 320.953 270.317 317.999 274.496 315.893L266.054 327.864C270.116 324.062 274.758 320.91 279.807 318.525C276.94 321.13 274.489 324.146 272.539 327.47C276.554 325.02 280.816 322.989 285.253 321.409L277.101 329.754L289.386 324.162L279.277 332.612C281.641 332.302 283.841 331.227 285.528 329.557L280.524 335.469C283.139 333.547 286.245 332.384 289.486 332.114C292.726 331.845 295.971 332.48 298.845 333.946C301.035 331.355 303.668 329.16 306.624 327.462C308.11 326.623 309.752 326.089 311.448 325.891C313.145 325.694 314.862 325.838 316.494 326.315C312.022 328.057 307.877 330.534 304.238 333.639C308.35 331.563 312.785 330.188 317.353 329.573C320.063 329.203 323.709 329.765 324.107 332.428C320.561 331.967 316.956 332.074 313.435 332.747C318.224 333.747 322.814 335.497 327.029 337.929L315.773 336.324C319.973 337.564 324 339.3 327.768 341.495C329.347 342.422 331.067 343.842 330.77 345.637C326.903 343.184 322.971 340.748 318.519 339.703C324.118 343.181 329.139 347.481 333.412 352.455L323.183 346.803C328.138 350.334 331.995 355.152 334.329 360.725C332.013 358.516 329.98 356.037 328.276 353.341C330.539 358.534 331.696 364.138 331.676 369.807C329.47 364.486 327.013 359.28 324.304 354.189C325.455 358.09 326.022 362.141 325.986 366.214C323.651 360.577 320.869 355.133 317.667 349.931C319.246 353.489 320.173 357.299 320.405 361.186L312.622 347.012C314.352 350.952 315.535 355.107 316.139 359.367L307.206 344.834C309.18 349.04 310.53 353.506 311.218 358.098C308.1 352.787 304.915 347.401 300.321 343.281C302.997 346.854 305.351 350.65 307.357 354.629C304.661 353.289 302.678 350.946 300.415 348.974C298.153 347.003 295.276 345.33 292.289 345.807C295.813 347.139 298.945 349.301 301.414 352.105C303.882 354.909 305.612 358.27 306.452 361.896C302.263 355.63 297.502 348.925 290.179 346.817C293.513 348.364 296.391 350.715 298.548 353.653C300.705 356.592 302.072 360.023 302.523 363.632C298.627 358.241 293.265 354.045 287.045 351.517C289.433 354.02 292.512 355.79 295.161 358.03C297.81 360.27 300.148 363.258 300.226 366.72L282.999 352.983C288.304 357.76 293.973 363.261 294.44 370.345C290.948 366.849 287.303 363.5 283.504 360.299C281.806 358.873 279.786 357.381 277.552 357.685L286.26 368.598C287.277 369.89 288.281 371.854 287.031 373.009C282.933 369.832 278.957 366.508 275.103 363.037C278.901 366.029 282.254 369.53 285.064 373.44L272.454 364.636C275.223 367.667 277.998 370.692 280.779 373.712C276.717 371.699 272.471 370.063 268.095 368.824C270.799 371.173 272.915 374.105 274.28 377.396C269.6 376.54 265.067 375.058 260.806 372.99C263.861 375.62 266.752 378.43 269.463 381.403L259.985 375.797C260.391 379.262 260.491 382.758 260.283 386.246C257.279 383.998 254.519 381.451 252.048 378.645L255.347 385.235C254.479 383.074 251.011 383.191 249.398 384.936C247.785 386.682 247.566 389.182 247.41 391.517L247.218 394.438C247.385 392.596 249.191 391.504 250.955 390.745C276.617 379.615 305.106 376.643 332.421 382.249C339.862 383.773 347.302 386.058 353.289 390.658C350.762 389.453 348.031 388.71 345.227 388.465C352.325 391.999 358.419 397.199 362.973 403.611C358.192 400.285 353.057 397.476 347.656 395.235C350.681 396.962 353.322 399.267 355.423 402.016C357.525 404.765 359.046 407.903 359.897 411.247C354.952 404.669 348.963 398.921 342.156 394.221C345.98 397.879 348.665 402.537 349.899 407.656C345.889 401.462 340.754 396.053 334.748 391.697C338.814 395.452 341.988 400.045 344.047 405.154C340.112 399.21 334.882 394.207 328.731 390.505C332.126 394.317 334.436 398.948 335.428 403.936C331.761 397.724 326.864 392.306 321.023 388.001C325.287 392.398 328.469 397.702 330.327 403.509C326.202 398.208 321.287 393.551 315.746 389.696C319.948 393.515 323.138 398.286 325.044 403.603C320.462 398.374 315.354 393.615 309.797 389.398C314.611 394.152 318.257 399.929 320.459 406.294C316.22 400.187 311.246 394.61 305.644 389.682C310.421 394.17 314.142 399.634 316.547 405.697C311.516 400.165 306.266 394.877 300.799 389.835C305.554 394.376 309.295 399.845 311.785 405.897C307.884 399.705 302.655 394.432 296.46 390.444C300.405 395.038 303.74 400.109 306.384 405.538C302.281 400.048 297.292 395.259 291.613 391.358C296.183 395.955 299.843 401.351 302.408 407.274C298.789 401.735 294.151 396.913 288.731 393.053C292.239 397.21 294.898 401.997 296.565 407.156C291.131 401.623 285.12 396.668 278.631 392.37C281.593 397.472 284.557 402.565 287.523 407.651C283.354 402.694 279.192 397.735 275.037 392.774C278.613 397.476 281.68 402.536 284.187 407.872C280.656 402.18 276.049 397.211 270.612 393.233C274.239 397.187 277.414 401.522 280.079 406.162L266.822 393.468C270.299 397.092 273.236 401.183 275.547 405.622L261.375 394.377C263.893 397.175 266.128 400.207 268.05 403.433C264.681 400.869 261.121 398.558 257.399 396.518C258.379 398.119 259.348 399.723 260.331 401.335L252.396 395.974C254.857 397.47 256.892 399.553 258.316 402.032C256.999 400.601 255.314 399.547 253.436 398.977C251.558 398.407 249.555 398.343 247.634 398.791C251.054 401.063 254.702 402.988 258.521 404.538C274.604 411.885 289.749 421.632 301.57 434.63C313.392 447.627 321.599 464.112 322.95 481.549C319.697 474.539 317.264 467.181 315.698 459.617C314.285 464.036 313.374 468.592 312.983 473.2L313.638 457.293C312.187 462.098 310.727 466.9 309.258 471.701C309.36 466.072 309.242 460.453 308.904 454.846C307.015 458.845 305.676 463.07 304.925 467.409C304.864 462.145 304.795 456.879 304.717 451.612L299.422 464.171C299.434 458.196 299.446 452.221 299.459 446.246C296.53 450.095 294.675 454.624 294.078 459.381C293.936 453.161 294.369 446.936 295.373 440.783C292.695 445.953 290.522 451.359 288.885 456.927C289.943 450.549 291.023 444.166 292.126 437.777C288.98 442.862 286.11 448.107 283.529 453.488L288.255 436.12C284.735 440.881 281.918 446.104 279.888 451.634C281.199 445.567 282.512 439.488 283.825 433.398L275.65 447.571C277.891 441.363 279.53 434.965 280.546 428.463C276.659 432.575 273.862 437.533 271.1 442.447L276.595 428.487C271.945 430.711 267.965 434.1 265.058 438.311L275.18 426.25L263.179 435.826C262.041 436.732 260.639 437.708 259.246 437.274L271.077 422.348C266.849 426.232 262.176 429.617 257.155 432.435C260.518 427.758 264.347 423.422 268.585 419.491C263.858 423.172 258.408 425.842 252.586 427.328C257.051 424.274 261.044 420.598 264.44 416.418C260.496 418.82 256.003 420.194 251.387 420.411C254.695 417.476 257.997 414.535 261.293 411.587L250.048 415.94L258.497 409.594C255.36 411.377 251.814 412.334 248.205 412.373L254.747 407.456C252.892 405.42 250.406 404.042 247.668 403.532C247.412 403.455 247.143 403.428 246.875 403.454C246.608 403.48 246.348 403.558 246.111 403.683C245.713 404.058 245.479 404.57 245.46 405.109C244.945 408.413 244.71 409.316 245.37 412.579Z" fill="#477309"/>
</svg>
