<svg width="338" height="505" viewBox="0 0 338 505" fill="none" xmlns="http://www.w3.org/2000/svg">
<path d="M144.415 179.698C177.29 235.931 218.633 286.694 254.694 340.935C285.687 387.562 312.74 436.69 335.575 487.809C337.031 491.066 338.495 494.663 337.536 498.063C335.703 504.733 325.82 505.781 320.307 501.572C314.793 497.363 312.571 490.291 310.202 483.789C305.259 470.19 298.569 457.297 291.906 444.443L258.775 380.617C250.462 364.605 242.125 348.565 232.518 333.293C221.968 316.549 209.902 300.764 198.525 284.544C172.95 248.123 150.781 209.455 128.662 170.854C125.881 165.989 120.565 162.487 116.322 158.819C120.836 163.034 124.713 167.883 127.831 173.215C124.527 170.334 120.931 167.807 117.102 165.673C123.27 171.707 128.87 178.296 133.83 185.357L120.906 174.927C127.865 181.064 133.767 188.304 138.375 196.357C132.462 191.563 126.549 186.77 120.636 181.976C128.451 189.73 135.174 198.512 140.618 208.08C133.435 202.136 126.616 195.766 120.199 189.004C126.996 196.086 133.298 203.627 139.06 211.575C132.447 206.31 126.302 200.483 120.694 194.157C126.59 201.647 132.04 209.476 137.017 217.604C131.58 212.074 126.167 206.534 120.78 200.985C125.749 209.442 130.71 217.898 135.662 226.353L119.195 208.464C123.817 217.291 128.425 226.123 133.018 234.96C128.209 228.92 123.602 222.729 119.199 216.387C123.207 225.661 128.044 234.555 133.65 242.959C127.614 238.217 126.008 229.686 120.865 223.99L132.895 248.996C125.709 241.146 120.267 231.862 116.928 221.757C117.847 232.961 123.015 242.903 128.491 252.787C123.15 246.072 118.703 238.693 115.259 230.834L126.665 255.81C122.978 251.315 119.704 246.496 116.88 241.414C120.748 249.017 124.938 256.472 129.451 263.718C125.124 258.698 121.295 253.269 118.017 247.508C121.877 254.803 126.139 261.877 130.785 268.697C120.82 260.692 115.747 248.219 111.298 236.229C112.568 241.384 113.219 246.672 113.238 251.981C110.643 241.444 110.465 230.483 110.313 219.621C109.356 224.366 108.162 229.066 106.758 233.701C107.742 223.802 109.138 213.949 110.947 204.142C108.284 208.931 106.168 214.003 104.638 219.265C105.926 210.97 107.229 202.673 108.549 194.373L102.026 207.634C104.169 199.378 106.302 191.118 108.426 182.853L99.0086 193.921L108.132 178.514C104.808 181.48 101.053 183.926 96.9958 185.766L107.949 173.889C104.536 176.494 100.486 178.135 96.2214 178.64C100.652 175.312 104.917 171.815 109.014 168.149C105.431 169.799 101.566 170.749 97.6266 170.948C101.259 168.333 105.017 165.854 108.892 163.586C105.584 164.926 102.045 165.601 98.4766 165.572C101.854 163.961 105.134 162.153 108.299 160.157C105.007 161.546 101.41 162.056 97.8615 161.638C100.46 159.194 103.339 157.069 106.44 155.305C103.433 156.424 100.218 156.868 97.0206 156.604C99.6315 154.674 103.521 152.634 105.436 150.261C102.173 150.937 98.6543 151.87 95.4244 150.429C98.6278 148.386 101.872 146.43 105.158 144.559C101.501 144.516 97.8526 144.916 94.2921 145.752C97.0914 142.527 101.184 139.039 103.068 135.308C100.429 134.07 96.7529 136.922 94.6803 138.437C96.3201 134.057 98.6682 129.977 101.631 126.358C97.8161 128.688 94.235 131.724 92.3356 135.765C90.4363 139.807 90.5367 145.015 93.5052 148.389C91.6034 146.838 89.9684 144.987 88.6652 142.907C91.4081 146.459 93.6323 150.382 95.2711 154.56C93.1018 151.652 90.5726 149.03 87.7441 146.757C90.4541 151.531 93.169 156.307 95.8889 161.086L86.7976 150.605C90.7581 157.174 94.7222 163.742 98.6898 170.308C94.3326 166.153 90.3932 161.581 86.9281 156.657C90.7878 163.941 94.6488 171.229 98.5112 178.521L85.3181 160.05C89.9062 168.767 94.473 177.492 99.0185 186.226C93.8886 179.383 89.3171 172.138 85.348 164.563L99.0361 193.483L82.2752 170.999L99.0656 197.005C92.128 190.517 86.6997 182.607 81.3361 174.77L96.5114 201.604C90.9074 193.724 85.3077 185.835 79.7125 177.936C84.6593 186.972 89.599 196.011 94.5316 205.053C89.5334 197.903 84.5294 190.76 79.5196 183.623C83.7763 193.453 88.0352 203.279 92.2963 213.099C87.328 206.517 84.0038 198.865 80.7377 191.3C85.2317 200.886 88.7286 210.908 91.1734 221.209C85.6216 213.774 82.5515 204.838 79.5573 196.069C83.341 205.658 86.44 215.503 88.8311 225.531C82.6272 217.735 79.6416 207.935 76.6607 198.402C79.0522 206.277 80.1861 214.479 80.0209 222.708C76.6613 213.11 74.5771 203.113 73.8216 192.972C74.0122 200.489 74.5012 207.997 75.2886 215.497C69.7942 202.501 70.6224 187.815 71.5966 173.734L67.9314 195.12C67.7236 176.968 73.1952 159.206 83.5808 144.318L73.9042 155.889C80.4296 145.618 88.0385 136.077 96.6002 127.43C89.4568 127.233 82.6559 134.119 83.3606 141.223C81.8318 138.638 80.3008 136.057 78.7675 133.482L82.4363 146.468C80.5539 143.79 78.6672 141.122 76.7761 138.464L80.3367 149.988C78.2973 146.517 75.9042 143.266 73.1955 140.288L76.8942 155.012L70.5401 144.559C72.5368 150.464 74.1228 156.499 75.2866 162.623C73.0997 158.102 70.4676 153.81 67.4293 149.811C69.6057 156.191 71.7883 162.578 73.9772 168.97C70.3712 164.888 67.2093 160.435 64.5449 155.685C67.2929 161.799 69.6196 168.094 71.5088 174.526C68.2075 169.677 64.9098 164.827 61.6156 159.975C64.8123 166.38 68.0054 172.787 71.195 179.195C67.5962 174.553 63.5104 170.31 59.0074 166.539C63.7553 170.909 67.5166 176.242 70.0405 182.181C65.7436 177.822 61.1797 173.736 56.3751 169.944C61.4751 175.299 66.162 181.032 70.3953 187.095C65.9424 182.794 61.5002 178.488 57.0686 174.178C61.3165 179.455 65.569 184.755 69.8261 190.077C64.5306 186.62 59.4698 182.816 54.6768 178.69C60.3517 184.047 65.4332 190 69.8334 196.445C64.5234 192.142 58.9285 188.203 53.0867 184.655C59.3267 189.301 64.8996 194.781 69.6493 200.942L50.1403 187.497L68.6993 204.302C62.2612 200.166 56.0981 195.617 50.2488 190.683C56.0485 195.797 61.6693 201.062 67.1112 206.476L49.9213 193.817C55.1853 197.687 59.8156 202.352 63.6462 207.645C59.0839 204.356 54.5194 201.071 49.9527 197.791C54.4263 201.17 58.5625 204.974 62.3033 209.15L49.2261 199.341C54.2066 203.048 58.4727 207.628 61.8168 212.858L50.2317 202.38C53.5791 206.027 55.9991 210.426 57.2871 215.206C54.279 211.256 51.5538 207.099 49.1319 202.765C51.5426 208.134 53.452 213.714 54.8359 219.435C51.7445 215.324 49.5773 210.595 48.4826 205.569C48.6201 209.808 48.1877 214.045 47.1969 218.168C46.5197 214.564 46.6605 210.853 47.6091 207.31C45.854 210.312 43.6411 213.02 41.0502 215.339L46.3088 205.29C43.9582 207.877 41.3547 210.222 38.5371 212.291C40.514 208.355 42.7613 204.56 45.263 200.934C41.7619 202.847 38.6342 205.375 36.0299 208.398L43.4121 197.987C40.6736 200.799 37.5939 203.257 34.2448 205.303C36.3528 201.12 39.0356 197.251 42.2153 193.811L30.7863 200.906L41.7049 189.384L29.635 197.104L41.4526 186.461C37.8471 188.911 33.9658 190.928 29.8889 192.47L42.2785 181.277L29.79 188.032L43.7342 175.95C40.7131 179.09 36.9831 181.458 32.8572 182.858L46.1897 169.531L34.0254 175.281C38.2697 170.912 42.8672 166.901 47.7711 163.288C44.9053 164.857 41.7523 165.833 38.5008 166.156C42.9573 163.299 47.2981 160.278 51.5233 157.093L43.817 158.714C47.9162 155.396 52.2683 152.403 56.8336 149.763L49.5669 150.457C53.6424 148.626 57.8061 146.994 62.0582 145.56L56.5399 144.434C59.7939 143.024 63.2114 142.027 66.7129 141.465L62.3475 140.093C67.6771 136.982 73.0911 134.092 78.5896 131.422C83.6057 128.856 88.8506 126.764 94.2559 125.174C91.2912 124.011 87.9831 122.845 85.0166 124.007C81.0609 125.523 79.7017 130.336 78.8483 134.49L77.482 127.383L76.3923 137.877L74.5572 129.898C74.2632 133.109 73.9607 136.319 73.6498 139.527C73.1386 136.471 72.6208 133.429 72.0867 130.344C71.7684 133.768 71.4252 137.201 71.0571 140.643C70.7191 137.634 70.3576 134.638 69.9725 131.655L68.7443 142.202C68.4955 139.155 67.8202 136.158 66.7381 133.299C66.4689 136.85 66.1982 140.398 65.9262 143.943L63.518 134.692L62.0387 147.487C61.5144 144.208 60.471 141.033 58.9477 138.082L58.2001 149.851L55.4905 139.59L53.7032 153.592L50.585 142.265C49.8075 148.217 49.6222 154.232 50.0317 160.22C48.7412 155.237 47.4535 150.26 46.1685 145.291C45.1746 151.835 44.5338 158.428 44.2489 165.041C43.5714 159.317 42.8918 153.598 42.2099 147.884C41.7912 155.3 41.6529 162.735 41.7949 170.188C40.3936 164.062 39.6 157.813 39.4257 151.531L36.2954 174.632C35.8415 167.66 35.9573 160.663 36.6416 153.711C34.575 161.641 33.5322 169.804 33.5385 177.999C32.0784 170.485 31.5798 162.815 32.0547 155.175L30.4006 177.82C29.4356 169.523 29.1223 161.164 29.4637 152.818C29.0639 160.879 28.6641 168.939 28.2643 177C26.6683 171.182 25.8163 165.185 25.7286 159.153C24.5006 166.031 27.0657 172.947 29.5878 179.465C27.2768 174.179 24.973 168.891 22.6762 163.6C23.8508 170.321 25.7586 176.893 28.3652 183.198C25.445 177.323 22.5261 171.451 19.6086 165.583C21.8647 171.604 24.5418 177.459 27.6201 183.104L17.5974 166.525L25.3829 183.106C22.5402 178.709 19.6841 174.309 16.8146 169.906C18.7072 174.993 20.5927 180.083 22.471 185.176C19.9741 180.426 17.4818 175.699 14.9941 170.995C16.6617 176.878 18.3329 182.759 20.0076 188.639C18.0611 185.411 16.104 182.187 14.1575 178.958C15.9618 182.486 17.7727 185.998 19.5876 189.521L15.0653 182.157L15.8948 192.649C15.3495 188.439 14.8068 184.237 14.2669 180.041C13.1294 183.229 11.5035 186.22 9.4475 188.908C10.8549 185.156 12.2667 181.395 13.6828 177.624C11.8775 180.212 9.63206 182.463 7.04856 184.275L12.937 175.391L3.8151 180.305L12.7188 172.748C9.41817 174.743 5.87845 176.313 2.18386 177.421L11.876 170.038L0.666021 171.546L11.9004 166.018C8.16392 167.303 4.20841 167.83 0.265763 167.567L13.0568 161.441L0.357156 161.711C4.85276 160.222 9.42615 158.98 14.057 157.989C10.5377 158.286 6.99432 158.092 3.52828 157.414C7.86577 157.121 12.1711 156.465 16.3989 155.453L8.08557 153.894C12.4111 152.872 16.8098 152.188 21.2415 151.848C18.646 151.333 16.1374 150.45 13.7919 149.225L26.5393 148.888L18.7162 145.993L29.2155 147.129L23.1962 143.994L32.9004 144.396L28.5251 143.126L36.1556 143.222L33.1866 140.899C35.3397 140.627 37.5235 140.725 39.6437 141.188C39.0591 140.556 38.4598 139.918 37.8646 139.29C56.9006 136.091 72.9111 120.881 92.2063 120.432C89.617 118.371 87.4844 115.795 85.9438 112.866C83.3673 115.501 81.3007 118.59 79.8485 121.976C80.0351 118.571 80.2119 115.161 80.3788 111.746C78.6697 114.985 77.4109 118.442 76.6374 122.021C77.2886 118.316 77.6543 114.566 77.7312 110.804L74.7113 122.356C75.393 118.697 75.6068 114.966 75.3475 111.253L70.7959 124.455L72.5231 112.116C69.6857 117.092 67.0951 122.201 64.7514 127.445C66.8138 122.419 68.2821 117.17 69.1263 111.803C65.7787 118.32 62.6655 124.959 59.7866 131.72C61.4453 125.263 63.4031 118.896 65.6601 112.618C61.9194 118.837 58.4971 125.242 55.4063 131.809C57.2951 125.378 59.4155 119.01 61.7676 112.704C57.4598 118.724 53.7074 125.122 50.5564 131.821L57.0743 112.008L45.1228 131.874C47.9899 124.465 50.8543 117.049 53.716 109.626C49.388 115.712 45.5071 122.104 42.1039 128.751L50.4382 107.104C45.9171 113.684 41.8645 120.574 38.3103 127.722C40.5857 120.627 43.378 113.709 46.6648 107.022L32.8896 126.596C36.4053 120.709 39.5813 114.625 42.4019 108.374L28.4646 125.675C32.1238 120.114 35.4229 114.324 38.3415 108.341L26.7884 122.673C28.6777 117.817 31.3704 113.312 34.7537 109.349L23.7058 121.458L30.3387 109.794L20.4369 119.055L24.6596 110.099C20.6842 116.607 18.4371 124.021 18.1315 131.641C18.3101 128.045 18.1566 124.44 17.6729 120.872L15.4812 134.968C15.7403 129.39 15.9945 123.81 16.2438 118.228L8.3436 130.574C10.1059 126.095 12.2679 121.784 14.8033 117.692C11.5543 121.19 8.09072 124.481 4.43269 127.548L17.1729 112.516C13.9662 114.877 10.4246 116.746 6.66558 118.06C11.4375 114.356 16.6475 111.254 22.178 108.825L12.631 109.28C17.7448 107.684 23.0196 106.659 28.359 106.224C25.2152 106.298 22.0887 105.737 19.167 104.574L33.6561 104.475C30.9268 103.369 28.4492 101.723 26.3723 99.6361L39.0917 102.098C35.814 100.775 32.7296 99.0165 29.922 96.8694C34.994 97.9567 39.9749 99.4328 44.8205 101.284L36.1223 94.542C40.4714 95.6493 44.7493 97.0193 48.9324 98.6446C46.6272 97.5244 44.4574 96.1446 42.4651 94.5323C48.7118 98.0689 56.5014 96.6976 63.7081 96.7726C71.8591 96.8735 79.8647 98.9446 87.042 102.809C82.4012 98.645 77.0876 94.9587 71.0294 93.4775C64.9713 91.9963 58.0265 93.0194 53.4625 97.2875L62.3206 86.7391C57.5089 89.1136 52.8552 91.7957 48.3886 94.7688L59.0855 82.7331C56.6477 85.2714 53.7477 87.3208 50.5411 88.7713L58.9052 77.9232L47.0628 87.3531C49.6527 81.9038 52.7811 76.7272 56.4013 71.9005C53.6778 76.4452 50.2774 80.5482 46.3174 84.0681C48.8983 79.2311 51.4864 74.3914 54.0816 69.549L44.5359 79.9941C46.1158 74.9701 47.7029 69.9434 49.2971 64.914C46.5041 69.4655 44.265 74.3344 42.6273 79.4172C43.6778 74.3333 44.3341 69.176 44.5901 63.991L41.2779 78.0022C41.335 72.8957 41.1211 67.7897 40.637 62.7058L38.2396 76.8067C37.813 72.3968 37.3794 67.9896 36.9387 63.5852L35.2815 79.1387L33.2348 67.7683C32.9356 74.011 32.9651 80.2651 33.3233 86.5047L30.3007 69.9077C30.2665 75.285 30.2327 80.6742 30.1996 86.0755L27.3111 72.5087L25.6785 87.3925C25.2215 82.8394 24.7668 78.2813 24.3142 73.7184L20.7166 82.9966C21.6297 79.6466 22.3433 76.2453 22.8536 72.8108L18.6341 76.2866L23.6242 70.7057L17.9698 71.6499L24.4916 67.9276L17.1171 66.2662L26.2188 65.2235C22.8108 63.9652 19.6217 62.1793 16.768 59.9312L27.9425 62.7654C24.4048 60.3999 21.0712 57.7426 17.9767 54.8213C22.0172 56.6404 25.9049 58.7817 29.6019 61.2245L19.7986 49.6842L31.5686 59.8471C28.5954 55.7692 25.6159 51.6856 22.6302 47.5962C26.589 50.9703 30.5511 54.3634 34.5165 57.7757L25.3113 46.5197C29.4195 49.8366 33.5241 53.1548 37.6251 56.4743C34.6421 52.392 31.8513 48.1627 29.2529 43.7863L41.6605 57.4956L33.0605 41.948C37.3648 46.8439 41.1705 52.1565 44.4212 57.8072L36.4664 36.6684L46.0066 55.8178L41.5905 34.2766C44.123 42.2245 46.6478 50.1631 49.165 58.0923C48.1121 50.6153 47.8475 43.0483 48.3753 35.516C49.6192 43.3137 50.8645 51.1149 52.1112 58.9197L53.3573 36.04L55.4936 61.6832L57.9142 43.9417C58.1661 50.4484 58.4272 56.9474 58.6977 63.4388C60.1596 58.4538 61.2945 53.3786 62.0949 48.2456C61.5454 54.0264 61.5163 59.8448 62.0079 65.6308C63.4117 61.4755 64.5783 57.2437 65.5021 52.9561C65.7219 57.3854 65.5239 61.8257 64.9109 66.2179C66.5978 62.0585 68.9406 58.1964 71.8501 54.7786C69.2429 60.4285 68.5212 66.7669 69.7914 72.8583L74.0278 59.3122C72.531 64.6091 72.3452 70.1906 73.4863 75.5754L77.9591 63.1248C77.5606 68.736 77.4767 74.3652 77.7079 79.9859L81.1652 69.4164C80.6655 74.6214 80.4221 79.8465 80.435 85.0915L82.2987 75.1817C82.4068 78.7723 82.7101 82.3544 83.2074 85.9122C83.7478 84.1002 84.0572 82.2273 84.1281 80.3378C84.6532 84.0507 85.5034 87.7103 86.6688 91.2744C86.5515 88.8748 86.7836 86.471 87.3576 84.1381L92.2769 95.4103C91.7467 92.7302 91.7883 89.9682 92.3989 87.3052C94.033 88.5474 95.4081 90.0975 96.4465 91.8681C93.0924 83.4291 87.3309 76.1628 79.8787 70.9733C83.5069 72.974 87.1239 74.9669 90.7298 76.9517C85.6111 74.0376 80.7499 70.6931 76.1985 66.9544L88.6381 71.7493C82.4255 69.6704 76.4381 66.9712 70.7664 63.6925C75.7446 63.4863 80.704 64.4215 85.2652 66.4265C78.7615 64.4464 72.5826 61.5246 66.9253 57.7543L79.6723 62.5538C73.5053 59.4189 67.7309 55.5653 62.4695 51.0735C67.9388 52.4211 73.0373 54.9753 77.3915 58.5488C70.6127 54.1822 64.2425 49.2116 58.3588 43.6979C63.8163 46.5791 69.1237 49.7175 74.2811 53.1132C66.8679 47.2726 59.8106 40.994 53.1471 34.3109C59.2471 38.6985 65.1605 43.333 70.8872 48.2142C63.6143 41.0641 56.345 33.9127 49.0792 26.7598C55.798 32.9321 62.5176 39.0959 69.238 45.2512C63.3145 38.1546 57.381 31.0536 51.4378 23.9483C57.5147 30.3176 63.3482 36.9026 68.9382 43.7031C63.7122 35.4913 58.4908 27.3022 53.2741 19.1359C59.7276 26.8185 65.5466 35.0125 70.6738 43.6371C67.0328 34.4347 63.0151 25.3767 58.6207 16.4631L72.3979 44.9451C70.9155 39.5458 69.4381 34.1487 67.9656 28.7539C70.9622 36.5727 73.9589 44.3916 76.9555 52.2105C73.8329 40.4576 70.6343 28.5381 64.495 18.0392C68.1972 23.598 71.5199 29.4004 74.4406 35.4068C69.906 27.2419 65.9856 18.7509 62.7117 10.0039L73.1622 33.6345C70.1492 23.5393 67.5803 13.3269 65.4557 2.99716C68.4983 14.2311 72.1128 25.3022 76.2851 36.1672C73.9876 26.6745 72.2333 17.0584 71.0308 7.36587L78.8818 41.3473L78.9796 29.3506C78.9953 23.0104 79.1195 16.5063 81.1917 10.4907L82.3667 42.7508C82.7801 33.4369 84.4752 24.2244 87.404 15.3733L85.2616 47.4008C87.0047 38.442 89.1128 29.5635 91.5859 20.7652C89.7449 31.5957 88.4238 42.496 87.6227 53.466C88.7884 47.0845 90.262 40.7725 92.0434 34.53C90.9123 42.3383 90.4755 50.2316 90.7382 58.1171L97.3334 16.6181C96.539 27.5204 96.0601 38.4484 95.8968 49.4023C96.7514 39.1977 98.8778 29.14 102.227 19.4628C100.821 27.0937 99.8845 34.8035 99.421 42.5489C101.604 36.2461 104.31 30.1369 107.511 24.2854C105.237 28.3967 103.543 32.803 102.478 37.3788L109.271 29.994C107.14 33.3441 105.348 36.8984 103.921 40.604C106.116 38.7975 108.768 37.6332 111.583 37.2396C110.104 39.9209 107.853 42.0958 105.122 43.482C107.606 43.0378 110.164 43.585 112.249 45.0063C108.356 45.7071 104.399 45.9937 100.446 45.8612L108.665 47.7491C106.359 48.0014 104.141 48.7756 102.179 50.0128C100.216 51.2501 98.5614 52.918 97.3397 54.89C97.968 54.8344 98.5681 54.6029 99.0709 54.2221C99.5737 53.8412 99.9591 53.3263 100.183 52.7365C97.9694 56.819 96.6579 61.3289 96.3371 65.9617L103.28 57.0523C99.6848 63.0897 97.4048 69.818 96.589 76.7972C98.8352 72.962 100.766 68.9505 102.361 64.8023C100.341 70.4689 99.3002 76.4378 99.2827 82.4537C101.308 72.0415 103.704 61.7117 106.47 51.4643C104.272 59.4377 103.743 67.7788 104.916 75.966C106.379 64.3752 108.577 52.8891 111.497 41.577C111.634 47.231 111.775 52.9161 111.919 58.6324C113.14 48.1377 115.537 37.8135 119.065 27.8545C117.239 33.7591 116.155 39.8679 115.836 46.0402C119.081 34.6389 123.651 23.6574 129.453 13.3205C126.611 20.0269 124.164 26.8935 122.122 33.8852C126.082 22.4614 132.23 11.9187 140.222 2.84649C135.105 7.78539 131.49 14.0716 129.795 20.9785C134.601 13.199 140.745 6.33154 147.945 0.693877C143.653 4.24229 139.888 8.38225 136.761 12.9897C141.938 8.0871 147.71 3.85365 153.942 0.388639C148.396 4.62254 143.482 9.62674 139.351 15.2497C144.077 10.3438 150.199 7.01149 156.884 5.7052L141.192 17.0874C145.933 15.1133 150.826 13.5283 155.823 12.3483C148.268 15.5809 141.099 19.6492 134.45 24.4772L151.46 19.181L132.24 30.9001C137.259 29.702 142.251 28.3884 147.214 26.9591C139.639 30.4859 131.882 34.1436 126.094 40.1646C131.017 39.2511 135.789 37.653 140.269 35.4168C133.214 39.3434 126.008 43.4502 120.399 49.3297C124.596 47.6848 128.528 45.4319 132.07 42.6434C125.689 49.3931 119.662 56.4151 113.987 63.7094C120.292 56.85 127.295 50.6663 134.882 45.2586C127.28 49.6516 120.698 55.6087 115.571 62.7357L131.679 53.2362C125.545 58.9759 119.849 65.1648 114.636 71.7515C119.172 68.1492 123.442 64.2241 127.413 60.0068C122.284 65.5278 118.019 71.7922 114.762 78.5879L124.298 69.5528C119.895 76.5449 115.847 83.7532 112.166 91.1505C112.759 90.2365 113.497 89.425 114.351 88.7479C114.254 92.0134 114.568 95.2782 115.287 98.4651C117.071 91.1422 119.366 83.9535 122.156 76.9521C121.881 80.9369 122.18 84.9405 123.044 88.8402C122.755 81.3964 123.614 73.9526 125.591 66.7703C126.619 70.4729 127.661 74.182 128.693 77.8953C127.339 69.969 127.336 61.8707 128.685 53.9435C129.423 58.9106 130.159 63.8742 130.894 68.8343C130.742 59.9471 131.175 51.0596 132.193 42.2295C133.4 47.4838 134.141 52.8343 134.407 58.2189C134.449 50.0723 135.652 41.9734 137.98 34.1664L138.538 49.2135C140.056 41.5382 142.441 34.0603 145.647 26.9236L144.973 39.6181C146.937 32.6514 149.841 25.9847 153.605 19.8017L151.076 31.1651C153.802 24.9602 157.627 19.2983 162.364 14.4515C160.568 18.1236 158.767 21.7936 156.96 25.4614C161.524 19.1919 168.011 14.5847 175.434 12.3405C170.611 15.4161 166.191 19.0819 162.277 23.2526C166.991 18.6609 173.257 16.0063 179.835 15.8142C174.428 17.9967 169.311 20.8368 164.599 24.2703C170.09 22.1659 176.437 20.0632 181.591 22.9796C174.09 24.4357 166.345 25.9857 160.06 30.3265C165.169 29.2996 170.359 28.7264 175.569 28.6135C177.815 28.5719 180.756 29.1935 181.01 31.4195L159.581 33.7993C167.356 33.9128 175.089 34.9512 182.618 36.8927L166.853 37.2363C163.523 37.2898 160.097 37.38 157.072 38.7717C163.763 38.811 170.446 39.2089 177.094 39.9636C177.228 41.2697 175.508 41.8555 174.194 41.9679L149.668 44.1161C158.222 45.7289 166.873 47.305 174.632 51.2156L147.359 50.2471C155.57 51.5389 164.009 52.9147 171.155 57.1705L146.652 52.3276C154.407 54.5036 162.566 56.9037 168.148 62.7251C161.091 59.5391 153.591 57.4411 145.905 56.5028C152.045 58.6128 158.477 60.9413 162.699 65.865C155.256 62.862 147.498 60.7078 139.572 59.4432C146.423 61.3664 153.482 63.4792 158.617 68.3589C152.586 65.961 146.398 63.9814 140.095 62.4345C143.446 67.8269 151.602 69.4212 153.56 75.4572L137.953 70.9471C142.626 72.7127 146.939 75.3156 150.679 78.628C145.899 77.7656 141.249 76.2927 136.845 74.2454C139.989 77.0759 142.834 80.2225 145.335 83.6355C141.242 82.73 137.287 81.2849 133.575 79.3382L141.622 86.2323C137.72 85.0513 134.006 83.3208 130.591 81.0931L137.923 88.0659C135.068 87.6599 132.271 86.9175 129.591 85.8541C130.795 87.3369 131.957 88.836 133.21 90.2877L123.995 90.6522L128.218 93.7905C126.177 94.1059 124.094 94.0151 122.088 93.5233C122.355 96.1355 125.667 97.4707 128.212 96.7401C130.756 96.0094 132.626 93.9965 134.489 92.1575C138.782 87.9389 143.642 84.3395 148.929 81.4633C154.798 78.2722 158.521 74.3629 164.028 70.5771C168.704 67.1379 173.717 64.1839 178.992 61.7608C191.187 56.6344 205.059 57.4444 218.036 59.9421C213.257 59.7597 208.473 60.1206 203.775 61.018C209.658 60.2921 215.616 61.54 220.713 64.5656C214.446 63.6464 208.104 63.3532 201.779 63.6906C207.911 63.8783 213.855 65.8496 218.883 69.3634L198.649 62.5425C203.803 65.1257 208.505 68.5269 212.572 72.6137L194.094 64.2512C198.311 67.2892 202.319 70.6063 206.092 74.18L188.557 63.5241C192.899 66.546 196.92 70.0036 200.558 73.8431C195.34 70.5974 189.799 67.9017 184.024 65.7993L194.833 73.9953C189.042 72.584 183.352 70.7855 177.802 68.612L185.095 72.4204C176.986 71.3951 167.834 70.6472 161.559 75.8766C165.442 73.6909 169.755 72.379 174.196 72.0326C178.638 71.6861 183.102 72.3135 187.277 73.8708C183.897 73.9447 180.533 74.3612 177.237 75.1139C184.467 74.1507 191.78 73.976 199.048 74.593L188.71 76.1097C194.775 75.4429 200.864 77.1383 205.711 80.8436C199.691 79.22 193.492 78.3507 187.258 78.2558L197.148 81.7287C192.188 79.9098 187.028 78.6894 181.778 78.0935C195.827 80.8655 207.349 90.5732 218.021 100.105C210.923 94.6075 203.426 89.6455 195.592 85.2601C200.739 89.7149 205.555 94.539 210.001 99.6941C202.959 95.0942 196.365 89.8426 190.306 84.0086C195.22 89.4245 200.597 94.4013 206.376 98.8823C198.098 93.7152 190.918 86.9778 183.81 80.2987C189.169 87.0984 195.005 93.5084 201.274 99.4804L180.209 82.2292C186.344 89.0489 192.76 95.602 199.458 101.888C190.532 95.9679 182.379 88.9592 175.185 81.0238L191.375 99.6548C184.278 93.3549 176.644 87.6882 168.56 82.7195C173.932 87.9321 179.077 93.3789 183.993 99.0598C177.686 93.9568 171.109 89.195 164.293 84.7951C169.598 90.2781 174.899 95.771 180.195 101.274C173.747 96.0091 166.805 91.3803 159.466 87.452C164.629 91.8317 169.841 96.2418 173.926 101.634C167.482 97.8595 160.975 94.1862 154.405 90.6145L166.816 102.61C160.987 98.7963 154.856 95.4654 148.484 92.6512C154.055 96.1635 159.228 100.269 163.914 104.897C158.2 101.282 152.354 97.8773 146.377 94.6818L157.68 105.317L140.578 97.9311C144.132 100.18 147.456 102.772 150.503 105.671L134.822 102.852C135.682 104.509 137.006 105.88 138.632 106.796C136.436 107.157 134.181 106.84 132.169 105.886L137.959 109.219C134.705 109.023 130.592 109.364 129.405 112.424C135.979 113.402 142.583 111.042 148.556 108.154C154.529 105.265 160.3 101.721 166.739 100.048C165.463 102.065 164.566 104.299 164.092 106.638C167.887 102.167 172.999 99.0094 178.696 97.6173L170.707 106.989C175.723 101.766 182.185 98.1614 189.264 96.6362C186.395 99.3805 182.998 101.514 179.281 102.908C185.642 99.3053 192.988 97.8267 200.248 98.6873C195.369 100.231 190.658 102.262 186.186 104.749C193.748 102.147 201.835 101.45 209.73 102.72L192.447 106.409C201.715 104.584 211.294 105.141 220.288 108.029L198.913 108.126C207.132 108.247 215.295 109.501 223.171 111.852C216.071 111.98 208.974 111.819 201.88 111.366C209.254 112.186 216.529 113.736 223.597 115.993L204.258 115.945C212.017 116.379 219.644 118.133 226.813 121.131C219.898 121.346 212.981 120.777 206.194 119.434C213.822 120.412 221.148 123.027 227.67 127.1C222.753 126.728 217.94 125.483 213.459 123.425C221.352 128.067 229.407 132.781 235.762 139.407C229.665 136.279 223.956 132.446 218.753 127.986C224.471 134.396 230.403 140.58 236.551 146.539C228.438 141.675 222.175 134.33 216.058 127.112C220.862 134.495 226.274 141.464 232.236 147.948C224.91 141.756 218.167 134.905 212.091 127.483C214.737 133.94 219.003 139.581 223.225 145.141C217.54 138.745 212.757 131.6 209.009 123.907C210.081 131.298 212.701 138.389 215.294 145.38C210.176 137.969 206.226 129.816 203.584 121.205C205.72 128.31 207.851 135.413 209.977 142.514L198.925 120.056C199.665 127.219 202.126 134.09 204.577 140.867C200.853 133 197.131 125.129 193.412 117.253C195.216 124.543 197.617 131.671 200.59 138.567C196.028 131.561 191.991 124.226 188.512 116.624L194.78 134.704C190.011 128.522 185.868 121.88 182.413 114.877C184.202 121.109 186.556 127.165 189.445 132.97C185.355 126.669 181.739 120.072 178.628 113.234C180.714 120.013 183.284 126.633 186.318 133.044C181.234 126.1 176.703 118.768 172.766 111.115C174.379 117.805 176.874 124.251 180.185 130.283C175.897 124.198 171.606 118.098 167.314 111.982C169.459 117.918 171.606 123.862 173.756 129.812C170.246 124.284 166.214 119.106 161.715 114.348C164.202 118.013 166.202 121.986 167.664 126.167L155.874 113.114L159.89 123.4C156.725 120.267 153.555 117.145 150.381 114.033L154.259 121.95C151.276 119.547 148.284 117.144 145.284 114.739C147.147 116.747 148.617 119.088 149.616 121.639C147.45 119.749 144.721 118.626 141.853 118.444C138.984 118.261 136.136 119.029 133.747 120.628C144.252 119.928 155.045 119.277 165.032 122.492C172.958 125.019 179.967 129.841 186.351 135.171C198.471 145.301 208.746 157.452 216.722 171.087C210.515 165.611 204.916 159.484 200.02 152.811C202.462 158.609 204.897 164.409 207.325 170.213C202.6 163.979 198.859 157.058 196.232 149.69L200.418 165.303L191.086 142.197L196.942 163.859C193.67 156.725 190.402 149.593 187.14 142.462C187.505 147.852 188.381 153.196 189.758 158.42C186.254 151.276 182.749 144.129 179.242 136.979C180.237 142.709 181.572 148.376 183.239 153.948C179.809 146.527 176.824 138.908 174.299 131.132C174.916 138.265 176.216 145.322 178.181 152.206C175.202 144.943 172.22 137.685 169.237 130.431C169.797 135.427 170.664 140.383 171.831 145.273C168.513 138.859 165.574 132.256 163.029 125.498C164.055 130.917 165.075 136.335 166.091 141.75C163.977 136.361 161.474 131.132 158.603 126.106C158.722 130.386 159.202 134.649 160.038 138.848L152.944 125.377C153.621 129.568 154.299 133.751 154.977 137.926C152.536 133.408 150.098 128.885 147.661 124.356C147.955 127.768 148.596 131.14 149.574 134.421C147.922 130.581 146.075 126.828 144.042 123.176L144.197 129.389C142.546 127.185 140.825 124.898 138.326 123.642C135.827 122.386 132.497 122.44 130.73 124.56C145.728 134.978 165.426 136.6 180.917 146.327C176.858 145.995 172.846 145.229 168.95 144.041C177.648 145.609 186.017 148.641 193.7 153.008C188.359 152.218 183.014 151.438 177.665 150.667C185.507 152.536 193.054 155.479 200.092 159.411L184.586 156.697C193.413 158.592 201.871 161.918 209.624 166.543C203.615 165.761 197.671 164.541 191.839 162.892C200.729 165.951 209.143 170.247 216.833 175.654L201.26 171.681L222.574 183.933L205.259 179.148L222.003 188.824L218.394 187.895C216.517 187.301 214.701 186.527 212.972 185.584C218.206 188.457 222.792 192.377 226.446 197.099C220.664 193.716 215.139 189.912 209.916 185.715C216.758 190.15 222.547 196.029 226.875 202.939C221.414 197.923 215.964 192.911 210.523 187.904C216.347 193.392 221.484 199.565 225.823 206.289C220.985 201.238 216.147 196.187 211.309 191.137C215.14 198.228 219.038 205.465 220.463 213.393C217.159 207.836 213.858 202.274 210.558 196.707C212.649 203.815 214.335 211.036 215.607 218.336C212.122 213.395 209.565 207.861 208.064 202.004C207.978 206.928 207.897 211.875 207.821 216.844C206.586 210.435 206.55 203.852 207.717 197.429L201.4 216.713C201.766 209.254 202.9 201.854 204.784 194.628L196.452 213.376L202.774 191.106C198.964 197.136 195.951 203.634 193.81 210.438C196.379 202.496 198.972 194.459 199.598 186.136C195.359 192.486 192.184 199.485 190.2 206.857C191.286 197.502 197.015 188.936 196.836 179.503C192.727 185.768 189.42 192.523 186.995 199.612L190.696 179.374C191.242 177.396 191.244 175.309 190.704 173.33C187.454 179.528 186.423 186.6 185.446 193.528C185.825 185.435 186.213 177.342 186.609 169.25C183.787 175.736 183.189 182.948 182.626 189.999C182.445 181.379 182.254 172.757 182.056 164.135C179.806 170.169 178.87 176.615 179.311 183.04C177.727 175.609 176.149 168.184 174.577 160.765C174.325 165.957 174.077 171.159 173.833 176.372C172.595 169.892 170.863 163.516 168.651 157.301C168.636 162.572 168.976 167.839 169.667 173.065C167.697 165.798 165.726 158.528 163.754 151.254C164.241 157.589 164.722 163.926 165.195 170.267C163.355 162.722 161.511 155.175 159.661 147.626C159.85 154.075 160.309 160.474 161.038 166.822L154.347 145.822L155.102 158.128C152.893 151.769 150.484 145.485 147.877 139.278L149.786 153.831C147.591 148.813 145.106 143.927 142.344 139.197C143.223 142.321 144.109 145.43 144.988 148.553C141.88 144.209 138.774 139.86 135.671 135.506C136.106 137.557 136.54 139.604 136.973 141.647C134.154 137.482 131.619 133.134 129.262 128.706C130.96 133.552 132.376 138.493 133.502 143.503C131.308 138.442 128.715 133.565 125.747 128.916C124.101 129.95 125.103 132.501 126.313 134.03C133.481 143.106 142.572 150.48 152.931 155.622L137.851 150.799C145.627 153.816 153.058 157.654 160.019 162.248L143.673 155.428C151.923 159.143 159.731 163.772 166.949 169.228C160.878 167.858 155.098 165.424 149.875 162.039C158.527 165.39 166.39 170.501 172.966 177.047C166.915 173.659 160.854 170.276 154.781 166.896C163.966 172.707 173.335 178.678 180.077 187.21L161.84 174.72C169.021 181.97 176.202 189.213 183.385 196.446C178.384 192.566 173.388 188.677 168.397 184.777C175.398 191.212 181.504 198.558 186.55 206.618C180.648 202.212 175.336 197.069 170.743 191.313C175.168 197.457 178.806 204.131 181.572 211.179C180.125 207.882 178.689 204.58 177.237 201.272C176.35 201.893 176.328 203.174 176.412 204.255L177.607 221.124C174.987 215.341 175.106 208.729 175.309 202.366C173.688 208.954 173.634 215.799 173.594 222.588C173.385 213.065 173.171 203.552 172.953 194.049C170.233 200.288 170.659 207.401 171.138 214.2C170.931 205.621 170.724 197.051 170.516 188.49C168.152 194.446 168.082 201.027 167.998 207.443L167.681 182.973C164.404 188.973 164.148 196.09 163.938 202.945L162.506 180.065C162.449 179.023 162.18 177.745 161.163 177.486C160.208 183.611 159.718 189.799 159.698 195.998C158.763 187.177 157.854 178.338 156.971 169.481C154.861 174.729 155.246 180.585 155.669 186.219L154.002 163.906L153.218 185.214L147.459 157.426C146.334 164.827 147.076 172.381 147.872 179.816C146.015 172.164 144.155 164.513 142.291 156.863C142.677 162.275 143.07 167.692 143.469 173.115L137.047 151.572L136.891 159.813C135.955 156.511 134.724 153.299 133.214 150.217C130.956 152.207 131.885 155.874 133.102 158.636C136.414 165.894 140.193 172.929 144.415 179.698Z" fill="#FDCE00"/>
</svg>
