<svg width="294" height="307" viewBox="0 0 294 307" fill="none" xmlns="http://www.w3.org/2000/svg">
<path d="M80.2203 90.0891C84.433 91.0703 85.9119 96.1476 87.7807 99.3524C93.5439 109.223 94.7181 98.7717 97.1068 94.7838C99.3475 91.0748 98.7112 88.2121 103.305 86.0741C107.898 83.9361 112.815 83.0134 117.789 82.2076C124.579 81.1094 130.75 80.2362 137.638 80.9654C148.394 82.0861 155.174 83.2159 160.046 70.3067C162.398 64.0547 166.867 51.3481 156.559 48.5844C149.429 46.6759 143.379 48.0127 136.32 49.4396C129.262 50.8664 123.404 51.276 116.436 49.3361C111.179 47.8732 107.75 42.5844 102.337 40.7254C98.4692 39.4066 92.9255 38.1733 89.9766 35.0585C83.5411 28.2844 92.083 20.6055 97.7969 16.9866C99.7509 15.7488 103.125 15.4832 105.362 15.2312C113.702 14.2859 117.673 10.1539 121.737 3.85235C122.266 3.03315 122.786 2.22295 123.31 1.41725C70.2489 6.499 24.9763 38.3263 1 83.3374C1.81968 84.0549 2.8856 84.4231 3.97127 84.3637C4.81382 84.2878 5.66239 84.3135 6.49886 84.4402C8.16599 84.8903 10.8415 85.525 11.7064 87.2939C14.3371 92.6637 14.3326 102.382 22.5428 103.133C24.7343 103.331 26.9078 103.66 28.7497 105.001C34.5757 109.246 31.5417 118.572 33.5181 124.563C37.3095 136.05 41.4997 147.469 47.7067 157.871C48.4954 159.199 47.7425 161.297 46.3622 161.922C40.841 164.393 35.2256 164.357 29.4668 165.816C17.4831 168.845 36.7448 180.629 38.9677 183.253C48.4551 194.474 38.5867 200.681 31.1339 208.212C36.7 213.51 40.5452 218.695 41.9838 226.716C44.1976 238.842 43.8301 251.836 53.6358 260.834C62.5092 268.986 71.7233 275.836 79.8214 284.852C89.0669 295.142 100.531 299.476 112.219 305.296C109.888 298.864 101.965 292.621 104.488 285.649C107.544 277.2 115.405 272.83 117.189 263.544C117.95 259.587 121.854 256.585 124.771 254.375C130.342 250.158 135.406 246.588 137.853 239.409C142.227 226.554 146.722 217.29 154.143 206.132C167.933 185.382 118.291 187.304 112.407 171.564C107.741 159.087 97.537 143.603 82.0309 144.21C73.8341 144.526 68.4966 152.506 60.627 154.842C59.6679 157.147 58.4624 159.073 56.7056 159.604C53.1876 160.653 51.1037 156.476 49.4142 154.095C46.1516 149.508 42.8442 144.156 44.2828 138.273C45.7931 132.116 49.2707 126.796 51.0051 120.719C48.4551 118.919 43.0324 116.668 42.5753 114.526C41.6163 110.097 42.3288 105.496 42.4812 101.022C42.4977 100.32 42.7271 99.6398 43.1387 99.072C43.5503 98.5042 44.1245 98.076 44.7847 97.8445C55.3791 94.2166 68.7431 87.4109 80.2203 90.0891Z" fill="#FDCE00"/>
<path d="M80.2194 90.0891C82.8545 90.7508 84.5665 93.1049 85.7631 95.4004C86.9596 97.696 88.0621 100.19 89.7964 102.175L90.518 102.841C90.7859 103.024 91.0676 103.187 91.3605 103.327C91.668 103.417 91.994 103.423 92.3045 103.344C92.6151 103.265 92.8988 103.103 93.1262 102.877C94.0225 101.932 94.529 100.667 95.0309 99.4559C95.5328 98.2451 95.9541 96.9803 96.5143 95.7785C97.0745 94.5767 97.796 93.4559 98.2442 92.2091C98.6694 90.9491 99.2347 89.7412 99.9292 88.6082C100.737 87.5392 101.792 86.6847 103.004 86.1191C104.209 85.5565 105.446 85.1199 106.665 84.6158L110.47 83.504C115.617 82.3445 120.825 81.4819 126.07 80.9203C131.325 80.4083 136.62 80.5005 141.854 81.1949C144.467 81.4065 147.115 81.5505 149.67 81.0374C152.225 80.5076 154.51 79.0849 156.119 77.0224C157.755 74.9924 158.871 72.5798 159.812 70.1357C160.77 67.6839 161.55 65.1657 162.147 62.6008C162.675 60.0487 163.011 57.3841 162.442 54.8589C162.187 53.6102 161.618 52.4479 160.788 51.4827C159.959 50.5175 158.898 49.7816 157.705 49.3451C152.776 47.5806 147.398 47.7742 142.271 48.6699C137.144 49.5656 131.963 50.8935 126.617 51.0285C123.959 50.9295 121.279 50.9025 118.693 50.2273C116.015 49.8619 113.477 48.8058 111.326 47.162C109.157 45.6092 107.194 43.8312 104.971 42.5214C102.748 41.2116 100.216 40.5859 97.6974 39.7442C95.1788 38.9025 92.6243 37.9438 90.4956 36.1883C89.4332 35.2929 88.5627 34.1904 87.9366 32.9475C87.3178 31.6619 87.0917 30.221 87.2868 28.8065C87.708 25.9978 89.3617 23.6482 91.1857 21.7083C93.0445 19.7707 95.1284 18.0646 97.3927 16.6265C98.0873 16.2439 98.6206 16.0549 99.2436 15.7578L101.278 15.2357C102.623 15.0061 103.927 14.8306 105.235 14.691C107.812 14.2904 110.335 13.7908 112.567 12.5215C114.797 11.2554 116.766 9.57518 118.371 7.57029C119.958 5.4878 121.438 3.32439 122.803 1.08869L123.363 2.02042L113.93 3.25373L104.572 5.05417C101.48 5.78335 98.4234 6.64756 95.3446 7.43976C92.3016 8.33998 89.308 9.41574 86.2874 10.3925C83.2982 11.4773 80.3807 12.7421 77.4274 13.9033C74.5144 15.1637 71.6776 16.604 68.8004 17.9543C65.9725 19.3947 63.2343 21.0151 60.4423 22.532C57.7086 24.1524 55.0645 25.9303 52.3755 27.6182C49.7538 29.4187 47.2218 31.3361 44.6404 33.1861C42.1352 35.1441 39.7107 37.2371 37.2593 39.2221C34.8885 41.3376 32.5985 43.5432 30.2636 45.6992L23.6623 52.6039L17.5046 59.8867L11.7996 67.5386L6.57861 75.519L1.85506 83.8056L1.66235 82.6533C1.96288 82.9085 2.3099 83.1026 2.68415 83.2249C2.89478 83.2609 3.07852 83.3465 3.3026 83.3645L3.97035 83.4095H3.8852L6.64135 83.4905H6.71754H6.76235C8.39812 83.9901 10.3252 84.3052 11.9341 85.9121C12.2937 86.3235 12.5857 86.79 12.799 87.2939C12.9783 87.6855 13.153 88.0951 13.3099 88.5497C13.655 89.45 13.9015 90.2692 14.1659 91.1199C15.1832 94.4507 16.066 97.9075 18.262 100.122C19.3489 101.203 20.7731 101.875 22.2954 102.026C23.9356 102.238 25.8806 102.413 27.6733 103.183L28.9639 103.912L29.2866 104.101C29.4023 104.183 29.5131 104.272 29.6182 104.367L30.1112 104.79C30.8517 105.468 31.4769 106.263 31.9621 107.144C32.8252 108.834 33.3476 110.679 33.4993 112.572C33.8892 116.173 33.5754 119.738 34.2163 122.947C34.53 124.442 35.256 126.174 35.7848 127.813L37.5013 132.764C38.7875 135.996 39.9348 139.286 41.3285 142.469C42.8164 145.619 44.0174 148.887 45.8101 151.876L48.2973 156.471L48.6066 157.043L48.8261 157.471L48.9561 157.772C49.0796 158.084 49.161 158.411 49.1981 158.745C49.2301 159.063 49.2301 159.384 49.1981 159.703C49.1243 160.31 48.9237 160.893 48.6093 161.416C48.2949 161.939 47.874 162.389 47.3741 162.737L46.9484 162.989C46.8133 163.064 46.6706 163.125 46.5226 163.169L45.9042 163.385L44.6673 163.835C43.8292 164.101 43.0539 164.456 42.1621 164.654C40.3964 165.019 38.5365 165.487 36.847 165.726C35.1574 165.964 33.3962 166.297 31.747 166.662C30.0978 167.027 28.3051 167.328 27.4044 168.116C27.2108 168.252 27.0563 168.436 26.9564 168.651C26.8564 168.866 26.8146 169.104 26.8352 169.34C26.9437 170.006 27.2062 170.636 27.6015 171.181C28.5412 172.532 29.638 173.765 30.8686 174.854C33.3648 177.181 36.1254 179.198 38.913 181.498C39.3208 181.832 39.696 182.204 40.0334 182.609L40.8266 183.658C41.4008 184.386 41.9106 185.164 42.3503 185.981C43.3559 187.657 43.9403 189.554 44.0533 191.508C44.1595 193.488 43.7058 195.457 42.7447 197.188C41.8679 198.826 40.7783 200.34 39.5045 201.69C37.0755 204.39 34.3956 206.641 31.9755 209.08L31.9486 207.37C34.0034 209.326 35.9005 211.442 37.6223 213.699C39.3096 216.031 40.6712 218.584 41.6691 221.287C42.6775 223.988 43.148 226.878 43.5783 229.587L44.7345 237.843C45.5412 243.266 46.6392 248.668 49.1667 253.389C50.4052 255.749 52.0223 257.887 53.953 259.718C55.916 261.559 58.0581 263.395 60.1017 265.232L66.3759 270.669C68.4733 272.47 70.5034 274.387 72.5649 276.246C74.6264 278.105 76.5131 280.175 78.4895 282.142C80.4659 284.109 82.3033 286.076 84.3155 287.994L87.4123 290.582C88.4834 291.41 89.6306 292.162 90.7331 292.959C93.0079 294.475 95.3577 295.876 97.7736 297.154C100.167 298.481 102.663 299.656 105.137 300.881L112.585 304.558L111.384 305.643C109.663 301.065 105.782 297.329 103.86 292.234C103.381 290.923 103.147 289.534 103.169 288.138C103.202 287.43 103.319 286.729 103.519 286.049L103.662 285.536C103.718 285.36 103.789 285.188 103.873 285.023L104.272 284.145L105.07 282.39L106.118 280.675C106.806 279.554 107.554 278.473 108.359 277.434C111.523 273.356 114.866 269.445 116.081 264.597L116.619 262.698C116.798 262.03 117.06 261.387 117.398 260.785C118.058 259.593 118.887 258.505 119.859 257.553C121.732 255.658 123.856 254.15 125.891 252.602C127.937 251.108 129.883 249.482 131.717 247.731C133.482 245.972 134.965 243.948 136.113 241.731C138.134 237.14 139.564 232.099 141.755 227.431C142.862 225.095 143.763 222.651 145.032 220.396C146.3 218.141 147.461 215.832 148.729 213.586L152.843 207.037C153.529 205.943 154.187 204.894 154.792 203.76C155.34 202.685 155.7 201.523 155.859 200.326C155.999 199.144 155.827 197.946 155.361 196.851C154.821 195.765 154.079 194.793 153.174 193.988C151.359 192.318 149.105 191.103 146.815 190.041C142.19 187.943 137.292 186.408 132.452 184.725C127.612 183.042 122.713 181.331 118.268 178.581C116.085 177.195 113.965 175.493 112.612 173.148C111.994 171.919 111.559 170.744 111.084 169.547C110.609 168.35 110.098 167.202 109.511 166.063C107.33 161.443 104.482 157.172 101.059 153.388C97.5809 149.724 93.3369 146.637 88.4251 145.34C86.005 144.638 83.4693 144.43 80.9678 144.728L79.0676 145.021L77.3288 145.669C76.1367 146.006 75.088 146.799 73.9497 147.348C69.6385 149.994 65.6992 153.555 60.6709 155.139L60.8501 154.977C60.4359 156.008 59.9067 156.988 59.2726 157.898C58.6049 158.799 57.7758 159.658 56.5434 159.915C55.9847 160.041 55.406 160.05 54.8437 159.941C54.2815 159.832 53.7478 159.607 53.2763 159.28C52.3801 158.616 51.6001 157.807 50.9683 156.886C50.3095 155.985 49.7493 155.085 49.1264 154.185C48.5035 153.285 47.8805 152.384 47.3069 151.484C46.7333 150.584 46.2 149.598 45.6756 148.635C45.1857 147.651 44.7722 146.631 44.4387 145.583C44.0947 144.535 43.8677 143.451 43.762 142.351L43.7172 140.691C43.7172 140.141 43.8651 139.597 43.9323 139.048C44.0354 137.904 44.5418 136.946 44.8286 135.897C45.133 134.85 45.4996 133.821 45.9266 132.818L48.499 126.791C49.4446 124.824 50.0451 122.74 50.816 120.71L50.8742 120.886C48.6334 119.364 46.1372 118.262 43.9682 116.578C43.3996 116.168 42.9232 115.642 42.5699 115.034C42.2696 114.328 42.3369 113.684 42.2024 112.995C41.994 111.645 41.913 110.278 41.9604 108.913C41.9156 107.54 42.0769 106.185 42.1262 104.821C42.1755 103.457 42.2428 102.121 42.3996 100.739C42.4837 100.045 42.7652 99.3912 43.2103 98.8547C43.6555 98.3181 44.2455 97.922 44.9093 97.714L48.7365 96.3322L56.3551 93.492C57.6234 93.0058 58.9231 92.5917 60.2093 92.1866C61.4902 91.7417 62.7931 91.3631 64.1127 91.0524C65.4154 90.672 66.7399 90.3714 68.0789 90.1521C69.4233 89.9811 70.7678 89.6165 72.1123 89.603C73.4567 89.5895 74.8236 89.459 76.1725 89.531L80.2194 90.0891ZM80.2194 90.0891L76.186 89.5625C74.8415 89.4905 73.4971 89.63 72.1257 89.6525C70.7544 89.675 69.4368 90.0396 68.0923 90.2151C66.7562 90.4341 65.4347 90.7347 64.1351 91.1154C62.818 91.4316 61.5181 91.8162 60.2406 92.2677C58.9544 92.7178 57.6593 93.0959 56.3955 93.5865L48.7769 96.4672L44.9541 97.867C44.32 98.0645 43.7571 98.4435 43.3344 98.9576C42.9117 99.4717 42.6475 100.099 42.5744 100.761C42.4355 102.085 42.4131 103.462 42.3279 104.812C42.2428 106.163 42.1307 107.513 42.1845 108.863C42.1379 110.219 42.2235 111.576 42.4399 112.914C42.5654 113.558 42.5385 114.328 42.7895 114.872C43.1346 115.441 43.5921 115.933 44.134 116.317C46.2672 117.964 48.7813 119.045 51.049 120.584C51.0769 120.602 51.0982 120.628 51.1096 120.659C51.1209 120.69 51.1217 120.724 51.1117 120.755C50.3499 122.799 49.7673 124.914 48.8127 126.881L46.2582 132.917C45.8383 133.918 45.4776 134.943 45.1782 135.987C44.9048 137.027 44.3894 138.057 44.3132 139.102C44.2186 139.627 44.1528 140.158 44.116 140.691L44.1653 142.293C44.2691 143.366 44.4946 144.423 44.8376 145.444C45.1694 146.468 45.5784 147.466 46.061 148.428C46.5809 149.373 47.0783 150.332 47.6834 151.228C48.2884 152.123 48.8844 153.028 49.5073 153.928C50.1303 154.829 50.7129 155.751 51.3537 156.606C51.9544 157.474 52.6951 158.235 53.5452 158.857C53.9644 159.15 54.4412 159.35 54.9436 159.443C55.446 159.537 55.9624 159.521 56.4582 159.397C57.3859 159.204 58.215 158.416 58.8155 157.597C59.4192 156.719 59.9214 155.775 60.3124 154.784C60.3287 154.745 60.3532 154.71 60.3841 154.681C60.415 154.652 60.4517 154.63 60.4916 154.617C65.3496 153.069 69.2351 149.544 73.6046 146.821C74.7743 146.249 75.8051 145.471 77.0957 145.075L78.9735 144.363L80.8692 144.066C83.4638 143.738 86.0977 143.939 88.6133 144.656C93.6909 145.957 98.0649 149.13 101.632 152.853C105.132 156.679 108.049 161.005 110.286 165.69C110.882 166.838 111.375 168.044 111.904 169.223C112.433 170.402 112.85 171.645 113.396 172.711C114.633 174.845 116.645 176.47 118.774 177.798C123.09 180.444 127.966 182.11 132.788 183.775C137.61 185.441 142.544 186.926 147.277 189.064C149.625 190.144 151.956 191.373 153.945 193.178C154.965 194.077 155.801 195.167 156.406 196.387C156.958 197.661 157.17 199.057 157.02 200.438C156.85 201.794 156.448 203.109 155.832 204.327C155.232 205.462 154.528 206.578 153.851 207.681L149.818 214.203C148.567 216.453 147.407 218.704 146.192 220.954C144.978 223.205 144.068 225.595 142.988 227.909C140.823 232.563 139.479 237.487 137.377 242.312C136.169 244.688 134.596 246.859 132.716 248.744C130.846 250.55 128.859 252.229 126.769 253.772C122.736 256.878 118.308 259.812 117.551 264.962C116.251 270.224 112.679 274.414 109.627 278.384C108.859 279.372 108.147 280.403 107.494 281.472L106.531 283.038L105.742 284.798L105.347 285.676C105.303 285.797 105.173 286.031 105.195 286.054L105.083 286.477C104.922 287.031 104.826 287.602 104.796 288.178C104.794 289.36 105.004 290.532 105.415 291.64C107.131 296.244 111.008 299.931 113.006 305.022C113.048 305.127 113.068 305.24 113.066 305.354C113.063 305.468 113.039 305.58 112.994 305.684C112.948 305.788 112.883 305.882 112.801 305.961C112.72 306.039 112.623 306.101 112.518 306.142C112.41 306.19 112.293 306.215 112.175 306.215C112.057 306.215 111.94 306.19 111.832 306.142H111.801L104.339 302.541C101.856 301.326 99.3377 300.156 96.8952 298.815C94.4187 297.521 92.0104 296.1 89.6799 294.556C88.5327 293.742 87.3585 292.981 86.2426 292.121L82.9621 289.421C80.9812 287.53 78.987 285.469 77.0689 283.529C75.1508 281.589 73.3133 279.532 71.207 277.745C69.1007 275.958 67.1736 274.04 65.0359 272.245L58.7617 266.843C56.6823 264.989 54.6163 263.242 52.5279 261.307C50.4301 259.33 48.6681 257.022 47.3114 254.474C44.5642 249.383 43.4124 243.725 42.5699 238.234L41.3285 229.961C40.8804 227.206 40.4322 224.587 39.4911 222.089C38.5561 219.594 37.2817 217.242 35.7042 215.098C34.055 212.96 32.2403 210.955 30.277 209.103C30.1639 208.995 30.0731 208.865 30.0099 208.722C29.9466 208.579 29.9121 208.424 29.9084 208.267C29.9046 208.111 29.9317 207.955 29.988 207.808C30.0444 207.662 30.1289 207.528 30.2367 207.415C32.7284 204.881 35.4039 202.599 37.6492 200.074C39.8944 197.549 41.7901 194.704 41.5302 191.648C41.4276 190.09 40.9493 188.581 40.1364 187.25C39.7543 186.524 39.3041 185.837 38.792 185.198L37.9898 184.153C37.7572 183.896 37.5056 183.657 37.2369 183.438C34.6286 181.291 31.7022 179.207 29.0894 176.744C27.7066 175.504 26.4786 174.1 25.4325 172.563C24.8149 171.666 24.4256 170.63 24.2986 169.547C24.2487 168.907 24.3567 168.263 24.6131 167.675C24.8694 167.086 25.2663 166.569 25.7686 166.171C27.6374 164.727 29.4928 164.6 31.2092 164.209C32.9256 163.817 34.6958 163.543 36.4123 163.277C38.1287 163.012 39.7107 162.629 41.3689 162.323C42.2064 162.1 43.0321 161.834 43.8427 161.526L45.0796 161.103L45.698 160.887C45.7428 160.865 46.0386 160.779 45.8773 160.82L46.0117 160.734C46.2281 160.575 46.4096 160.373 46.5453 160.141C46.6809 159.909 46.7678 159.651 46.8005 159.384C46.8065 159.265 46.8065 159.147 46.8005 159.028C46.7557 158.943 46.8856 158.997 46.7467 158.731L46.6167 158.425V158.389C46.6167 158.348 46.7467 158.632 46.675 158.492L46.6347 158.42L46.5585 158.272L46.2403 157.687L43.7351 153.006C41.9425 149.936 40.7325 146.61 39.2536 143.409C37.8508 140.168 36.7036 136.824 35.4174 133.538L33.7099 128.565C33.1811 126.868 32.5088 125.36 32.0876 123.415C31.3929 119.715 31.7515 116.178 31.3885 112.824C31.2735 111.212 30.8441 109.638 30.1247 108.193C29.3823 106.858 28.2365 105.796 26.8531 105.159C25.419 104.529 23.8505 104.358 22.0579 104.124C20.0831 103.908 18.2401 103.024 16.8324 101.616C14.0673 98.7222 13.283 94.9998 12.2567 91.714C12.0058 90.8903 11.7503 90.0351 11.468 89.2924C11.3301 88.8913 11.1715 88.4977 10.9929 88.1131C10.8768 87.8048 10.7068 87.5198 10.491 87.2714C9.59469 86.3172 7.90963 85.8536 6.25146 85.3945L6.36798 85.4215L4.0555 85.354H3.97035L3.03371 85.2819C2.71453 85.2288 2.39877 85.1566 2.0881 85.0659C1.76951 84.9573 1.46067 84.8218 1.1649 84.6608C0.876792 84.477 0.601303 84.274 0.340297 84.0531C0.173338 83.9279 0.0581795 83.7453 0.0168406 83.5402C-0.0244983 83.3351 0.010883 83.1219 0.11622 82.9414L0.147591 82.8873L4.96973 74.5153L10.2938 66.4493L16.1198 58.7389L22.394 51.4021C24.6348 49.093 26.8262 46.7434 29.0894 44.4659C31.4602 42.2963 33.7861 40.0773 36.1972 37.9528C38.6934 35.9363 41.1269 33.8523 43.6858 31.8898C46.2986 30.0308 48.8665 28.0953 51.524 26.2994C54.2488 24.607 56.9019 22.8245 59.6939 21.2041C62.5173 19.6828 65.2914 18.0534 68.1551 16.622C71.0681 15.2717 73.9363 13.8358 76.8806 12.571C79.8698 11.4097 82.8232 10.1494 85.8437 9.06916C88.8957 8.09692 91.9207 7.03466 94.995 6.13444C98.1008 5.35124 101.193 4.49603 104.312 3.77135L113.755 1.97091L123.251 0.814124C123.407 0.795 123.565 0.838687 123.689 0.935657C123.813 1.03263 123.894 1.17501 123.914 1.33175C123.933 1.47235 123.899 1.61484 123.82 1.73235C122.418 3.99832 120.897 6.18748 119.263 8.29047C117.554 10.4087 115.46 12.1807 113.092 13.5118C110.685 14.8621 107.96 15.3842 105.352 15.7623C104.039 15.8928 102.744 16.0594 101.48 16.2709L99.6872 16.721C99.1181 16.9821 98.41 17.2702 97.9573 17.5177C95.7561 18.8965 93.7292 20.5379 91.9207 22.4059C90.155 24.2559 88.6268 26.4569 88.2548 28.9371C87.8828 31.4172 89.1825 33.8253 91.1095 35.4367C93.0366 37.048 95.5284 38.0203 97.9932 38.853C100.458 39.6857 103.084 40.3024 105.415 41.7472C107.745 43.1921 109.695 44.9385 111.805 46.4599C113.856 48.0503 116.284 49.0744 118.85 49.4306C121.382 50.1013 124.004 50.1328 126.599 50.2453C131.815 50.1463 136.965 48.8455 142.163 47.9947C147.362 47.144 152.888 46.937 157.934 48.7824C159.211 49.2726 160.35 50.0665 161.255 51.096C162.12 52.1608 162.722 53.4164 163.011 54.7599C163.594 57.4246 163.227 60.1612 162.68 62.7404C162.066 65.3259 161.268 67.8636 160.291 70.3337C159.323 72.8049 158.18 75.249 156.491 77.3375C154.805 79.468 152.424 80.9315 149.769 81.4695C147.133 81.9871 144.458 81.8251 141.836 81.6C136.626 80.8783 131.351 80.7605 126.115 81.2489C120.879 81.7851 115.678 82.6206 110.537 83.7516L106.759 84.8138C105.545 85.3089 104.285 85.75 103.107 86.2902C101.919 86.8384 100.882 87.6697 100.086 88.7118C99.3943 89.8303 98.8291 91.023 98.401 92.2677C97.875 93.4802 97.2887 94.6655 96.6442 95.819C96.0885 97.0118 95.6494 98.2631 95.1519 99.4874C94.6544 100.712 94.1391 101.963 93.2024 102.935C92.9635 103.174 92.6654 103.343 92.339 103.426C92.0127 103.509 91.6701 103.503 91.3471 103.408C91.0461 103.263 90.7569 103.094 90.4821 102.904L89.7561 102.224C88.0038 100.217 86.9283 97.759 85.7227 95.4184C84.5172 93.0779 82.8501 90.7553 80.2194 90.0891Z" fill="#FFE757"/>
<path d="M289.566 157.142C285.434 155.652 279.012 149.859 274.916 154.531C274.271 155.265 272.635 156.363 271.64 155.657C271.309 155.819 270.986 155.994 270.645 156.138C270.479 156.204 270.306 156.254 270.13 156.287C270.058 156.48 270.005 156.737 269.933 156.899C269.377 158.249 267.607 159.469 266.218 158.546C262.368 155.994 259.217 153.033 255.722 150.075C251.635 146.614 246.548 154.64 244.209 157.232C243.913 157.541 243.544 157.768 243.135 157.891C242.727 158.014 242.294 158.029 241.878 157.934C235.452 155.963 222.527 150.098 220.784 160.284C220.044 164.6 218.96 166.225 215.926 169.367C212.717 172.693 207.379 175.219 203.48 177.735C198.282 181.093 202.212 198.557 209.522 196.189C216.455 193.939 223.737 194.123 229.196 199.426C234.125 204.21 243.223 212.155 243.577 219.618C243.675 221.747 243.223 223.889 241.65 225.469C236.532 230.668 232.727 235.93 234.977 243.613C237.894 253.587 238.692 255.698 234.573 265.763C231.203 274 227.139 280.081 220.044 285.608C215.37 289.254 210.7 292.662 207.151 296.632C257.945 271.061 292.878 218.42 293.116 157.547C291.917 157.687 290.703 157.549 289.566 157.142Z" fill="#FDCE00"/>
<path d="M289.566 157.142C286.492 155.931 283.789 153.838 280.563 153.024C279.767 152.81 278.939 152.747 278.12 152.839C277.711 152.879 277.31 152.982 276.933 153.145C276.551 153.294 276.19 153.494 275.862 153.739C275.216 154.234 274.714 154.923 273.997 155.373C273.28 155.823 272.393 156.179 271.604 155.711H271.68C271.2 155.982 270.69 156.196 270.161 156.35L270.206 156.305C270.065 156.958 269.734 157.555 269.256 158.02C268.777 158.485 268.172 158.796 267.517 158.916C267.185 158.944 266.851 158.901 266.537 158.789C266.224 158.677 265.937 158.499 265.697 158.267L264.151 157.102L261.059 154.77C260.046 153.969 259.078 153.105 258.088 152.272C257.097 151.439 256.152 150.521 255.099 149.828C254.045 149.135 252.665 149.301 251.572 149.922C249.331 151.16 247.695 153.24 246.077 155.225L244.858 156.737C244.41 157.237 244.029 157.781 243.317 158.006C242.663 158.242 241.945 158.223 241.304 157.952L239.471 157.372C237.044 156.523 234.571 155.815 232.063 155.252C229.59 154.802 226.91 154.437 224.633 155.423C224.074 155.659 223.554 155.979 223.091 156.372C222.733 156.854 222.226 157.237 222.02 157.831L221.617 158.655C221.518 158.943 221.46 159.253 221.379 159.555C221.223 160.14 221.07 160.82 220.931 161.441C220.792 162.062 220.676 162.701 220.483 163.336L219.708 165.217C219.071 166.384 218.296 167.469 217.4 168.449C216.952 168.944 216.575 169.426 216.055 169.921L214.599 171.195C213.621 172.063 212.572 172.846 211.462 173.535C209.284 175.03 207.016 176.236 204.86 177.64C203.794 178.135 202.944 179.004 202.472 180.084C202.041 181.22 201.819 182.425 201.817 183.64C201.771 186.137 202.254 188.615 203.234 190.91C204.184 193.093 205.766 195.411 207.894 195.573C208.836 195.663 210.113 195.19 211.363 194.852C212.658 194.516 213.976 194.275 215.307 194.132C217.984 193.808 220.698 194.044 223.28 194.825C225.942 195.528 228.209 197.279 230.204 199.034C232.077 200.803 233.986 202.563 235.819 204.435C239.404 208.198 243.119 212.258 244.459 217.844C244.598 218.564 244.673 219.294 244.683 220.027C244.702 220.72 244.647 221.413 244.518 222.093C244.27 223.604 243.593 225.011 242.568 226.144C240.775 228.071 239.108 229.871 237.786 231.951C236.502 233.964 235.733 236.265 235.546 238.648L235.595 240.417C235.658 241.012 235.763 241.602 235.909 242.182C236.173 243.419 236.501 244.642 236.89 245.846C237.589 248.344 238.4 250.891 238.58 253.686C238.741 256.44 238.338 259.197 237.396 261.788C237.033 263.098 236.5 264.273 236.025 265.515C235.51 266.866 234.936 267.91 234.394 269.116C233.851 270.323 233.367 271.47 232.677 272.614L230.553 276.039C229.867 277.187 229.065 278.261 228.16 279.244C227.299 280.252 226.461 281.296 225.574 282.282C223.575 284.001 221.644 285.883 219.587 287.454C215.509 290.605 211.359 293.674 207.975 297.388L206.631 295.614L215.988 290.528L225.009 284.839L233.623 278.537C236.343 276.242 239.113 274 241.797 271.659C244.356 269.184 246.982 266.771 249.488 264.237C251.867 261.586 254.341 259.011 256.658 256.297C258.854 253.488 261.162 250.756 263.273 247.88C265.272 244.918 267.405 242.029 269.301 239.017C271.093 235.93 273.038 232.918 274.71 229.759C276.283 226.549 278.031 223.412 279.474 220.135C280.818 216.822 282.364 213.577 283.552 210.201C284.659 206.794 285.936 203.45 286.895 199.984C287.765 196.509 288.791 193.066 289.53 189.559C290.158 186.03 290.915 182.519 291.444 178.973C291.829 175.408 292.3 171.852 292.622 168.278L293.071 157.52C292.47 157.52 291.87 157.52 291.278 157.52L289.566 157.142ZM289.566 157.142L291.318 157.547C291.919 157.547 292.515 157.547 293.111 157.547L292.744 168.323C292.439 171.901 292 175.466 291.632 179.036C291.13 182.591 290.395 186.111 289.786 189.649C289.073 193.169 288.069 196.621 287.222 200.11C286.277 203.576 285.026 206.951 283.937 210.372C282.759 213.762 281.298 217.056 279.994 220.401C278.604 223.714 276.91 226.891 275.378 230.141C273.755 233.35 271.851 236.402 270.103 239.544C268.247 242.627 266.155 245.553 264.187 248.569C262.112 251.503 259.84 254.294 257.666 257.166C255.385 259.939 252.934 262.567 250.572 265.299C248.089 267.901 245.481 270.381 242.954 272.951C240.265 275.359 237.526 277.677 234.811 280.045L226.175 286.554L217.117 292.455L207.657 297.685C207.425 297.814 207.154 297.856 206.894 297.804C206.633 297.751 206.4 297.608 206.235 297.398C206.07 297.189 205.985 296.928 205.994 296.661C206.003 296.395 206.107 296.14 206.286 295.943L206.312 295.911C209.898 291.932 214.11 288.813 218.153 285.617C220.21 284.042 221.944 282.278 223.862 280.626C224.696 279.685 225.471 278.699 226.278 277.74C227.124 276.821 227.868 275.811 228.496 274.729L230.454 271.547C231.095 270.48 231.566 269.229 232.131 268.072C232.695 266.915 233.291 265.673 233.672 264.597C234.098 263.409 234.64 262.225 234.963 261.032C235.821 258.754 236.202 256.322 236.083 253.889C235.958 251.499 235.218 249.046 234.537 246.57C233.856 244.095 232.978 241.403 233.148 238.558C233.38 235.758 234.304 233.06 235.837 230.708C237.307 228.417 239.198 226.432 240.928 224.587C241.628 223.791 242.093 222.816 242.272 221.769C242.402 221.178 242.456 220.573 242.434 219.969C242.419 219.408 242.36 218.85 242.259 218.299C241.228 213.636 237.737 209.585 234.304 205.925C232.552 204.071 230.692 202.297 228.841 200.483C227.004 198.827 225.099 197.279 222.719 196.612C220.376 195.85 217.9 195.59 215.45 195.847C214.214 195.957 212.987 196.158 211.78 196.45L209.911 196.946C209.302 197.027 208.446 197.328 207.711 197.157C206.115 197.063 204.874 196.018 203.951 195.001C203.063 193.946 202.356 192.751 201.858 191.463C200.84 188.962 200.363 186.273 200.459 183.573C200.489 182.194 200.768 180.832 201.284 179.553C201.577 178.875 202.002 178.263 202.534 177.753L202.897 177.429L203.157 177.213L203.364 177.087L204.206 176.587C206.415 175.237 208.728 174.021 210.83 172.631C211.927 171.984 212.965 171.242 213.931 170.411L215.41 169.165C215.831 168.791 216.27 168.264 216.701 167.814C218.453 165.919 219.748 163.867 220.156 161.229C220.304 160.581 220.447 160.005 220.635 159.339C220.725 159.015 220.801 158.686 220.913 158.366L221.361 157.466C221.612 156.823 222.182 156.368 222.607 155.841C223.134 155.405 223.725 155.052 224.36 154.797C226.914 153.762 229.648 154.207 232.157 154.716C234.675 155.318 237.155 156.07 239.583 156.967L241.416 157.579C241.971 157.83 242.599 157.857 243.173 157.655C244.307 157.205 244.93 155.936 245.795 155C247.44 153.024 249.102 150.949 251.433 149.652C252.562 149.009 254.099 148.82 255.246 149.598C256.394 150.377 257.236 151.255 258.24 152.078C259.244 152.902 260.181 153.78 261.184 154.59L264.263 156.944L265.8 158.119C266.02 158.342 266.285 158.513 266.578 158.621C266.871 158.73 267.184 158.772 267.494 158.745C268.117 158.629 268.692 158.331 269.146 157.888C269.601 157.445 269.915 156.877 270.049 156.255C270.051 156.245 270.056 156.235 270.064 156.228C270.073 156.22 270.083 156.216 270.094 156.215C270.617 156.067 271.121 155.857 271.595 155.589C271.606 155.584 271.619 155.581 271.631 155.581C271.643 155.581 271.656 155.584 271.667 155.589C272.357 156.012 273.258 155.697 273.908 155.261C274.557 154.824 275.113 154.149 275.776 153.645C276.114 153.398 276.484 153.196 276.874 153.046C277.26 152.883 277.668 152.78 278.084 152.74C278.912 152.653 279.748 152.724 280.549 152.947C283.821 153.798 286.496 155.913 289.566 157.142Z" fill="#FFE757"/>
<path d="M228.177 29.4772C227.39 30.1624 226.642 30.8913 225.936 31.6602C217.834 40.5094 229.822 49.111 234.366 56.0067C236.795 59.6887 241.192 70.1492 245.96 71.2745C250.271 72.2873 260.122 73.4891 257.89 80.5648C255.062 89.567 247.51 95.7785 244.051 104.389C244.051 104.416 244.01 104.443 244.001 104.475C243.504 105.794 243.042 107.126 242.657 108.476C242.133 110.385 241.523 112.271 244.512 112.131C246.879 112.014 249.084 111.168 251.163 110.056C254.3 108.373 257.226 106.28 260.368 104.578C260.655 104.418 260.972 104.319 261.299 104.288C261.626 104.257 261.956 104.295 262.268 104.398C263.254 103.948 264.263 104.124 264.581 105.483C266.086 111.888 275.453 108.931 276.044 115.79C276.224 117.784 275.861 119.819 275.785 121.642C276.345 123.369 277.006 125.061 277.765 126.71C278.435 127.157 279.172 127.492 279.948 127.7L280.244 127.777C284.035 126.701 288.517 126.292 290.798 129.888C291.149 130.44 291.457 131.02 291.716 131.621C288.384 111.219 281.051 91.6844 270.144 74.1504C259.237 56.6164 244.972 41.4318 228.177 29.4772Z" fill="#FDCE00"/>
<path d="M228.178 29.4772C226.336 31.2776 224.378 33.2266 223.723 35.7472C223.069 38.2679 223.647 40.9055 224.929 43.1336C227.461 47.6797 231.485 51.123 234.622 55.4441C236.137 57.6947 237.311 60.0172 238.656 62.2453C239.895 64.4935 241.384 66.5939 243.093 68.5063C243.873 69.3933 244.864 70.067 245.974 70.4643C247.153 70.7749 248.488 70.9819 249.77 71.2835C252.325 71.9137 255.049 72.5528 257.29 74.5603C257.86 75.0846 258.314 75.7234 258.623 76.4351C258.932 77.1469 259.089 77.9159 259.083 78.6923C259.073 79.4561 258.952 80.2142 258.724 80.9429L258.03 82.7838C257.133 85.2369 255.677 87.7351 254.287 89.9181C252.898 92.1011 251.316 94.2932 249.833 96.4222C248.344 98.507 247.031 100.713 245.907 103.016L245.1 104.736C244.899 105.186 244.693 105.933 244.486 106.514C244.058 107.692 243.699 108.894 243.411 110.115C243.308 110.709 243.411 110.875 243.411 110.812C243.357 110.853 243.63 110.866 243.765 110.925H244.437C245.064 110.83 245.782 110.794 246.337 110.646C246.901 110.51 247.456 110.341 248 110.142C250.272 109.336 252.414 107.837 254.722 106.514L258.101 104.484L259.795 103.466L260.36 103.223C260.624 103.141 260.893 103.079 261.167 103.039C261.676 102.99 262.19 103.046 262.677 103.205L261.781 103.237C262.177 103.037 262.613 102.928 263.057 102.92C263.5 102.911 263.94 103.003 264.344 103.187C265.33 103.637 265.689 104.826 265.787 105.163C265.9 105.61 266.082 106.037 266.325 106.428C266.523 106.763 266.769 107.066 267.055 107.328C268.319 108.44 270.318 108.935 272.388 109.741C273.539 110.147 274.595 110.786 275.49 111.618C275.975 112.089 276.37 112.646 276.655 113.261C276.942 113.848 277.134 114.477 277.224 115.124L277.305 115.597C277.317 115.768 277.317 115.939 277.305 116.11V116.902V118.487C277.269 119.553 277.148 120.634 277.072 121.705L277.004 121.255L278.914 126.206L278.465 125.697C278.781 125.891 279.109 126.064 279.447 126.215C279.814 126.365 280.19 126.494 280.572 126.602H279.895C281.049 126.278 282.227 126.046 283.418 125.909C284.035 125.837 284.657 125.814 285.277 125.841C285.921 125.837 286.563 125.918 287.187 126.08C287.84 126.217 288.473 126.44 289.069 126.742C289.376 126.889 289.664 127.075 289.925 127.295C290.206 127.492 290.475 127.706 290.731 127.934L291.377 128.718L291.695 129.118L291.776 129.217C291.805 129.258 291.832 129.3 291.856 129.343L291.883 129.393L291.982 129.577L292.775 131.081L290.534 131.855L289.136 124.316L287.366 116.83L285.233 109.466C284.444 107.036 283.57 104.632 282.741 102.215C281.845 99.825 280.836 97.471 279.891 95.0944C278.945 92.7178 277.784 90.4402 276.753 88.1087C275.723 85.7771 274.392 83.5535 273.231 81.303C271.999 79.0524 270.672 76.8739 269.399 74.6548C268.055 72.4763 266.625 70.3518 265.245 68.1957C263.788 66.0937 262.26 64.0412 260.763 61.9572L255.995 55.9167L250.958 50.1058L245.647 44.5469L240.072 39.2536L234.246 34.2349L228.178 29.4772ZM228.178 29.4772L234.452 33.9783L240.457 38.8125L246.23 43.9438L251.746 49.3451L256.99 55.039L261.92 61.0165C263.461 63.0915 265.057 65.135 266.549 67.2325C268.041 69.33 269.475 71.4996 270.878 73.6736C272.223 75.8926 273.567 78.0847 274.88 80.3262C276.099 82.6083 277.376 84.8633 278.551 87.1724C279.658 89.513 280.827 91.8311 281.88 94.1987C282.857 96.5977 283.884 98.9833 284.816 101.4C285.672 103.849 286.577 106.28 287.393 108.742L289.607 116.232L291.448 123.793L292.914 131.445C292.964 131.728 292.913 132.019 292.77 132.267C292.627 132.515 292.401 132.704 292.132 132.8C291.863 132.896 291.568 132.893 291.301 132.792C291.034 132.691 290.812 132.497 290.673 132.247V132.215L289.871 130.716L289.772 130.532L289.745 130.487C289.826 130.626 289.745 130.487 289.745 130.527L289.692 130.464L289.468 130.203L289.019 129.676C288.858 129.523 288.661 129.415 288.491 129.276C288.32 129.136 288.159 128.97 287.93 128.911C287.069 128.516 286.135 128.309 285.188 128.304C284.68 128.284 284.172 128.306 283.669 128.371C282.618 128.501 281.58 128.713 280.563 129.006C280.365 129.053 280.16 129.053 279.962 129.006H279.882C279.395 128.87 278.916 128.708 278.447 128.52C277.958 128.305 277.485 128.055 277.031 127.772C276.846 127.675 276.7 127.516 276.619 127.322V127.277L274.566 122.074C274.514 121.94 274.491 121.795 274.499 121.651V121.615C274.571 120.58 274.674 119.562 274.719 118.518L274.746 116.934V116.142C274.752 116.05 274.752 115.958 274.746 115.867L274.688 115.556C274.643 115.155 274.531 114.764 274.356 114.4C274.196 114.051 273.969 113.738 273.688 113.477C273.034 112.873 272.262 112.413 271.42 112.127C269.628 111.366 267.356 110.916 265.379 109.228C264.882 108.778 264.46 108.251 264.129 107.666C263.831 107.152 263.6 106.601 263.443 106.028C263.246 105.37 263.219 105.478 263.219 105.442C263.219 105.406 263.049 105.388 262.74 105.532C262.508 105.644 262.245 105.671 261.996 105.609L261.834 105.568C261.688 105.53 261.537 105.515 261.386 105.523C261.341 105.546 261.319 105.523 261.238 105.523C261.158 105.523 260.826 105.703 260.898 105.663L259.222 106.653L255.865 108.643L252.486 110.632C251.303 111.342 250.054 111.935 248.757 112.401C248.074 112.651 247.375 112.852 246.664 113.004C245.956 113.166 245.351 113.184 244.693 113.283C244.277 113.296 243.861 113.289 243.447 113.261C243.206 113.217 242.969 113.152 242.739 113.067C242.464 113.001 242.211 112.864 242.004 112.671C241.758 112.486 241.553 112.253 241.399 111.986C241.245 111.719 241.146 111.424 241.107 111.118C241.052 110.669 241.067 110.213 241.152 109.768C241.46 108.437 241.853 107.127 242.331 105.848C242.564 105.199 242.694 104.668 243.012 103.921L243.881 102.08C245.074 99.679 246.46 97.3803 248.027 95.2069C249.542 93.0419 251.115 90.9534 252.558 88.8153C254.001 86.6773 255.287 84.5888 256.241 82.1267L256.967 80.2992C257.124 79.7801 257.216 79.2433 257.241 78.7013C257.255 78.1674 257.155 77.6367 256.947 77.1451C256.739 76.6535 256.428 76.2125 256.035 75.8521C254.382 74.2677 251.818 73.4981 249.367 72.8769C248.112 72.5528 246.857 72.3413 245.517 71.9767C244.157 71.4857 242.947 70.65 242.004 69.5506C240.255 67.5226 238.74 65.303 237.486 62.9339C236.173 60.6429 235.084 58.2348 233.708 56.0878C230.836 51.8342 226.843 48.1928 224.382 43.4396C223.141 41.1171 222.522 38.2499 223.387 35.6842C224.252 33.1186 226.26 31.2236 228.178 29.4772Z" fill="#FDCE00"/>
<path d="M236.321 84.0441C235.556 81.0101 234.305 78.1216 232.615 75.492C232.467 75.0824 232.297 74.6818 232.167 74.2587C231.584 72.0397 230.907 69.7576 229.671 67.8086C227.712 64.7434 223.302 66.4133 222.052 69.1905C219.941 73.8581 217.92 79.507 217.835 84.6338C217.772 88.3022 217.597 92.9608 220.869 95.3824C223.948 97.66 229.178 95.4319 232.073 93.9916C234.968 92.5512 237.114 87.1544 236.321 84.0441Z" fill="#FDCE00"/>
<path d="M236.321 84.0441C235.802 82.5768 235.3 81.1049 234.766 79.6421L232.476 75.5911V75.5596C231.912 74.2092 231.58 72.8229 231.015 71.5086C230.545 70.2286 229.888 69.0257 229.066 67.9392C228.81 67.7186 228.568 67.363 228.308 67.246C228.048 67.129 227.86 67.0434 227.587 66.9669L226.726 66.8904L225.853 67.0525C224.698 67.4212 223.733 68.2289 223.164 69.303C222.872 69.9071 222.623 70.5313 222.42 71.171L221.644 73.174L220.385 77.1394C220.089 78.4898 219.744 79.8401 219.489 81.1904C219.363 82.5408 219.135 83.8596 219.076 85.2684C219.006 86.6452 219.016 88.0249 219.108 89.4005C219.174 90.6827 219.502 91.9376 220.071 93.0869C220.346 93.6466 220.73 94.145 221.2 94.5525C221.671 94.9601 222.218 95.2683 222.81 95.459C223.822 95.8596 225.342 95.729 226.646 95.5355C228.023 95.2605 229.373 94.8613 230.679 94.3427C232.016 93.9285 233.203 93.1305 234.094 92.0471C234.963 90.9233 235.623 89.6518 236.044 88.2932C236.465 86.918 236.56 85.4629 236.321 84.0441ZM236.321 84.0441C236.58 85.4597 236.505 86.9166 236.102 88.2977C235.713 89.6881 235.108 91.0082 234.309 92.2092C233.43 93.3854 232.265 94.3153 230.926 94.9098C229.633 95.5781 228.283 96.1294 226.892 96.5572C225.436 96.8813 224.024 97.2864 222.276 96.8273C220.697 96.4419 219.328 95.456 218.458 94.0771C217.591 92.7487 217.047 91.2349 216.867 89.657C216.663 88.1869 216.575 86.703 216.603 85.2189C216.634 83.7651 216.84 82.2347 216.961 80.7448C217.248 79.2865 217.656 77.8641 218.001 76.4283C218.48 75.0284 219.005 73.6376 219.534 72.2782C220.106 70.9201 220.752 69.5948 221.47 68.3083C222.397 66.9006 223.837 65.9146 225.481 65.5626L226.726 65.4636C227.143 65.5176 227.564 65.6121 227.972 65.7021C228.387 65.8904 228.784 66.1148 229.16 66.3728C229.432 66.6214 229.679 66.8974 229.895 67.1965C230.705 68.4593 231.31 69.8434 231.687 71.297C232.136 72.6878 232.297 74.1282 232.79 75.447V75.4155L234.887 79.6106C235.38 81.0824 235.828 82.5678 236.321 84.0441Z" fill="#FDCE00"/>
<path d="M70.4285 117.856C67.7978 114.958 63.1997 114.206 60.5198 117.433C60.3407 117.511 60.1826 117.63 60.0586 117.781C59.9347 117.932 59.8485 118.111 59.8072 118.302C59.8072 118.415 59.7803 118.541 59.7624 118.658C59.4301 119.517 59.3538 120.456 59.5428 121.358C59.4666 123.793 59.8341 126.283 61.6536 127.934C64.1767 130.226 69.093 128.691 71.1321 126.508C73.3953 124.104 72.4362 120.067 70.4285 117.856Z" fill="#FDCE00"/>
<path d="M70.4275 117.856L69.3698 116.92C68.9799 116.668 68.5721 116.439 68.1777 116.196C67.7834 115.952 67.2814 115.889 66.8646 115.745C66.4165 115.664 65.9683 115.624 65.5202 115.561C65.072 115.597 64.6239 115.66 64.1757 115.718C63.7545 115.88 63.3332 116.011 62.9478 116.169C62.5893 116.43 62.2218 116.646 61.8991 116.916L61.0476 117.879L60.8101 118.063C60.716 118.149 60.6039 118.253 60.595 118.343C60.586 118.433 60.595 118.401 60.595 118.406C60.595 118.491 60.595 118.649 60.595 118.766L60.5412 118.977C60.5098 119.36 60.4695 119.715 60.4157 120.066L60.6084 121.178V121.336V121.408C60.6373 122.432 60.7877 123.449 61.0566 124.437C61.2838 125.314 61.7189 126.124 62.3248 126.796L62.4324 126.922L62.4862 126.98L62.5131 127.012C62.2083 126.773 62.4324 126.949 62.3652 126.899H62.3876L62.7327 127.138C62.953 127.3 63.1819 127.45 63.4183 127.588C63.7858 127.588 63.974 127.853 64.4984 127.858L65.1886 127.948C65.435 127.948 65.6726 127.912 65.9235 127.912C66.426 127.895 66.9257 127.831 67.4159 127.718C68.4259 127.492 69.3839 127.075 70.2393 126.49C70.4412 126.356 70.6316 126.205 70.8084 126.039L71.3552 125.414C71.6454 125.003 71.8651 124.547 72.005 124.063L72.1977 123.276V122.452C72.1792 121.898 72.1025 121.347 71.9691 120.809C71.6616 119.729 71.1369 118.724 70.4275 117.856ZM70.4275 117.856C70.8011 118.273 71.1329 118.725 71.4179 119.207C71.7037 119.696 71.9467 120.21 72.1439 120.742C72.3415 121.279 72.4812 121.836 72.5607 122.403C72.6535 122.983 72.6655 123.574 72.5965 124.158C72.5348 124.776 72.3649 125.378 72.0946 125.936L71.6465 126.67C71.4606 126.935 71.2472 127.179 71.0101 127.399C70.1389 128.266 69.1106 128.958 67.9806 129.438C67.4035 129.688 66.803 129.879 66.1879 130.009C64.8165 130.326 63.3817 130.216 62.0739 129.694C61.8167 129.558 61.5669 129.407 61.3255 129.244L60.9714 129.024L60.7966 128.889L60.7473 128.844L60.6577 128.749L60.4784 128.565C59.5354 127.589 58.89 126.363 58.6186 125.031C58.3761 123.817 58.3187 122.572 58.4483 121.34V121.57V119.927C58.5962 119.382 58.7665 118.847 58.9413 118.334L58.883 118.541L58.9682 118.149C59.0207 117.92 59.1182 117.705 59.255 117.514C59.4851 117.199 59.7943 116.95 60.1513 116.794L59.9182 116.979L61.1372 116.002C61.5854 115.745 62.0739 115.552 62.5265 115.349C63.015 115.223 63.5214 115.16 64.0054 115.07L65.4709 115.156C65.919 115.273 66.412 115.367 66.8646 115.502L68.1598 116.097C68.5542 116.362 68.9575 116.61 69.3385 116.88L70.4275 117.856Z" fill="#FDCE00"/>
<g style="mix-blend-mode:screen" opacity="0.4">
<path d="M44.7609 97.867C55.3777 94.2166 68.7417 87.4109 80.2189 90.0891C84.4316 91.0703 85.9105 96.1476 87.7793 99.3524C93.5426 109.223 94.7167 98.7717 97.1054 94.7838C99.3462 91.0748 98.7098 88.2121 103.303 86.0741C107.897 83.9361 112.813 83.0134 117.788 82.2076C124.577 81.1094 130.748 80.2362 137.636 80.9654C148.392 82.0861 155.173 83.2159 160.044 70.3067C162.397 64.0547 166.865 51.3481 156.558 48.5844C149.427 46.6759 143.377 48.0127 136.319 49.4396C129.26 50.8664 123.403 51.276 116.434 49.3361C111.177 47.8732 107.749 42.5844 102.335 40.7254C98.4678 39.4066 92.9241 38.1733 89.9753 35.0585C83.5397 28.2844 92.0816 20.6055 97.7955 16.9866C99.7495 15.7488 103.124 15.4832 105.36 15.2312C113.701 14.2859 117.671 10.1539 121.736 3.85235C122.265 3.03315 122.785 2.22295 123.309 1.41725C115.465 2.17255 107.689 3.52679 100.05 5.46825C98.768 9.06914 97.2354 12.4855 93.9414 14.9206C87.6673 19.5612 62.6737 30.4449 76.0152 38.8665C89.5181 47.3916 88.1871 49.4171 77.763 58.8919C71.2558 64.8064 67.1642 73.0074 59.8368 78.0216C57.8829 79.372 53.9571 79.6735 51.6849 79.462C43.5285 78.6923 37.2409 79.741 30.4065 84.9083C28.1299 86.6277 24.473 88.6893 21.5958 86.8933C14.6046 82.5407 11.3017 75.0014 5.47569 75.4965C3.90715 78.0681 2.4133 80.6863 0.994141 83.3509C1.81382 84.0684 2.87974 84.4366 3.96541 84.3772C4.80796 84.3013 5.65653 84.327 6.493 84.4537C8.16013 84.9038 10.8356 85.5385 11.7006 87.3074C14.3312 92.6772 14.3267 102.395 22.5369 103.147C24.7284 103.345 26.902 103.673 28.7439 105.015C34.5699 109.259 31.5359 118.586 33.5122 124.577C37.3036 136.063 41.4939 147.483 47.7008 157.885C48.4896 159.213 47.7367 161.31 46.3564 161.936C45.9082 162.134 45.46 162.291 45.0388 162.453C49.7803 164.303 53.8988 163.457 60.2312 159.861C64.5738 157.39 69.5752 153.946 74.6528 153.217C85.2293 151.687 91.4362 162.692 96.1195 170.672C100.269 177.739 93.9593 184.828 88.949 189.294C80.1248 197.166 98.8442 213.523 99.0773 223.187C99.1355 225.514 98.3916 228.476 96.4511 230.015C89.0476 235.867 90.029 241.385 89.5854 249.478C89.3523 253.79 85.4847 258.03 81.3483 258.665C76.8667 259.367 74.1016 250.779 72.914 247.862C71.2827 243.869 69.9293 239.215 67.2269 235.808C62.2972 229.601 56.8342 240.759 53.8361 244.248C53.0652 245.148 51.667 246.138 50.4928 245.247C48.554 243.823 46.4668 242.616 44.268 241.646C45.5855 248.762 47.8173 255.496 53.612 260.821C62.4854 268.972 71.6995 275.823 79.7977 284.839C89.0431 295.128 100.507 299.463 112.195 305.283C109.864 298.851 101.941 292.607 104.464 285.635C107.521 277.187 115.381 272.816 117.165 263.53C117.927 259.574 121.83 256.572 124.748 254.362C130.318 250.144 135.382 246.575 137.829 239.395C142.203 226.54 146.698 217.277 154.12 206.119C167.909 185.369 118.267 187.291 112.383 171.55C107.718 159.073 97.5132 143.589 82.0071 144.197C73.8103 144.512 68.4728 152.492 60.6032 154.829C59.6441 157.133 58.4386 159.06 56.6818 159.591C53.1638 160.639 51.0799 156.462 49.3904 154.081C46.1278 149.495 42.8204 144.143 44.259 138.26C45.7693 132.102 49.2469 126.782 50.9813 120.706C48.4313 118.905 43.0086 116.655 42.5515 114.512C41.5925 110.083 42.305 105.483 42.4574 101.009C42.4811 100.313 42.7138 99.6404 43.1249 99.0797C43.536 98.519 44.1063 98.0963 44.7609 97.867ZM106.207 54.5258C106.716 54.3263 107.239 54.1653 107.771 54.0442C112.67 53.009 117.846 56.4073 121.875 58.7029C123.161 59.4365 122.498 61.2775 121.96 62.2047C118.944 67.4125 111.89 71.315 106.682 73.8221C102.882 75.654 94.9498 79.732 90.8895 76.3247C83.105 69.7981 97.1592 51.4291 106.207 54.5258Z" fill="#FDCE00"/>
<path d="M289.564 157.142C285.432 155.652 279.01 149.859 274.914 154.531C274.269 155.265 272.633 156.363 271.638 155.657C271.306 155.819 270.984 155.994 270.643 156.138C270.476 156.204 270.304 156.254 270.128 156.287C270.056 156.48 270.002 156.737 269.93 156.899C269.375 158.249 267.604 159.469 266.215 158.546C262.366 155.994 259.215 153.033 255.719 150.075C255.139 149.561 254.396 149.267 253.622 149.247C253.976 151.354 254.214 153.487 254.478 155.742C255.652 165.708 261.106 164.335 268.505 166.946C273.292 168.629 272.35 174.867 271.701 178.617C269.272 192.606 265.991 204.953 250.189 206.861C249.082 206.992 248.45 205.939 248.37 204.993C247.747 197.873 250.857 190.788 250.077 183.762C248.795 172.239 239.017 183.532 235.288 184.662C230.699 186.08 227.508 185.661 223.098 183.69C213.651 179.472 208.081 185.738 203.68 193.385C205.141 195.636 207.139 196.95 209.506 196.185C216.439 193.934 223.721 194.119 229.18 199.421C234.109 204.206 243.207 212.15 243.561 219.613C243.66 221.742 243.207 223.885 241.634 225.464C236.516 230.663 232.711 235.925 234.961 243.608C237.878 253.583 238.676 255.694 234.558 265.758C231.187 273.995 227.123 280.076 220.028 285.604C215.354 289.25 210.684 292.657 207.135 296.627C257.929 271.056 292.862 218.416 293.1 157.543C291.906 157.682 290.697 157.545 289.564 157.142Z" fill="#FDCE00"/>
<path d="M240.148 38.9294C240.462 41.9047 240.673 44.9699 240.794 48.2287C241.318 62.2452 256.623 56.3892 261.624 66.6022C264.734 72.9533 268.042 87.933 264.595 94.7702C262.74 98.4611 261.427 100.293 257.667 102.148C252.661 104.623 250.124 107.76 247.745 111.519C248.927 111.139 250.072 110.65 251.164 110.056C254.301 108.373 257.228 106.28 260.369 104.578C260.656 104.418 260.973 104.319 261.3 104.288C261.628 104.257 261.957 104.294 262.269 104.398C263.255 103.948 264.264 104.123 264.582 105.483C266.088 111.888 275.454 108.931 276.046 115.79C276.225 117.784 275.862 119.819 275.786 121.642C276.346 123.369 277.007 125.061 277.767 126.71C278.436 127.157 279.173 127.491 279.949 127.7L280.245 127.777C284.036 126.701 288.518 126.291 290.799 129.888C291.151 130.44 291.458 131.019 291.718 131.621C285.847 95.6181 267.6 62.8201 240.148 38.9294Z" fill="#FDCE00"/>
</g>
</svg>
